<svg id="_22_Icons_Line_Cart" data-name="22) Icons/Line/Cart" xmlns="http://www.w3.org/2000/svg" width="48.579" height="48.578" viewBox="0 0 48.579 48.578">
  <g id="Shape" transform="translate(0 0.001)" fill="#28aade" stroke-miterlimit="10">
    <path d="M 38.88359832763672 48.07749938964844 C 37.08443069458008 48.07749938964844 35.62070083618164 46.48497772216797 35.62070083618164 44.52750015258789 C 35.62070083618164 42.5720100402832 37.08443069458008 40.98109817504883 38.88359832763672 40.98109817504883 C 40.68227005004883 40.98109817504883 42.14559936523438 42.5720100402832 42.14559936523438 44.52750015258789 C 42.14559936523438 46.48497772216797 40.68227005004883 48.07749938964844 38.88359832763672 48.07749938964844 Z M 13.79609870910645 48.07749938964844 C 11.99742889404297 48.07749938964844 10.53409862518311 46.48497772216797 10.53409862518311 44.52750015258789 C 10.53409862518311 42.5720100402832 11.99742889404297 40.98109817504883 13.79609870910645 40.98109817504883 C 15.59526920318604 40.98109817504883 17.05900001525879 42.5720100402832 17.05900001525879 44.52750015258789 C 17.05900001525879 46.48497772216797 15.59526920318604 48.07749938964844 13.79609870910645 48.07749938964844 Z M 14.96451950073242 34.58451843261719 C 14.06261920928955 34.58443832397461 13.26606941223145 33.91823959350586 13.0274486541748 32.96445083618164 L 6.103759288787842 5.276899337768555 L 6.009058952331543 4.898199081420898 L 5.618699073791504 4.898199081420898 L 2.508299112319946 4.898199081420898 C 1.400919079780579 4.898199081420898 0.499999076128006 3.911689281463623 0.499999076128006 2.69909930229187 C 0.499999076128006 1.487009167671204 1.400919079780579 0.5008991956710815 2.508299112319946 0.5008991956710815 L 7.52579927444458 0.5008991956710815 L 7.535068988800049 0.5008991956710815 L 7.544329166412354 0.5005592107772827 C 7.567258834838867 0.4997092187404633 7.590209007263184 0.4992792010307312 7.613008975982666 0.4992792010307312 C 8.51417350769043 0.4992792010307312 9.30955982208252 1.163599729537964 9.548230171203613 2.115154504776001 L 11.00304889678955 8.21243953704834 L 11.09465885162354 8.596399307250977 L 11.48939895629883 8.596399307250977 L 43.59447860717773 8.596399307250977 C 45.16505813598633 8.625330924987793 46.63141250610352 9.558239936828613 47.42234039306641 11.03194904327393 L 47.42427825927734 11.03555965423584 L 47.42627716064453 11.03913879394531 C 48.21734237670898 12.45682048797607 48.29469299316406 14.19482135772705 47.63351440429688 15.6890697479248 L 39.40757751464844 33.38805770874023 C 39.06335830688477 34.12233734130859 38.38068771362305 34.58074951171875 37.62667083740234 34.58290100097656 L 15.05159950256348 34.58290100097656 L 15.04234886169434 34.58290100097656 L 15.03310871124268 34.5832405090332 C 15.01012706756592 34.58408737182617 14.98735427856445 34.58451843261719 14.96450233459473 34.58451843261719 L 14.96451950073242 34.58451843261719 Z M 12.22805881500244 12.99459934234619 L 12.38520908355713 13.61699962615967 L 16.47300910949707 29.80709838867188 L 16.56834983825684 30.18470001220703 L 16.95779991149902 30.18470001220703 L 36.07199859619141 30.18470001220703 L 36.39093017578125 30.18470001220703 L 36.525390625 29.89549827575684 L 44.0529899597168 13.70539951324463 L 44.38348007202148 12.99459934234619 L 43.5995979309082 12.99459934234619 L 12.86999893188477 12.99459934234619 L 12.22805881500244 12.99459934234619 Z" stroke="none"/>
    <path d="M 38.88359832763672 47.57749938964844 C 40.40657043457031 47.57749938964844 41.64559936523438 46.20927810668945 41.64559936523438 44.52750015258789 C 41.64559936523438 42.84770965576172 40.40657043457031 41.48109817504883 38.88359832763672 41.48109817504883 C 37.36013031005859 41.48109817504883 36.12070083618164 42.84770965576172 36.12070083618164 44.52750015258789 C 36.12070083618164 46.20927810668945 37.36013031005859 47.57749938964844 38.88359832763672 47.57749938964844 M 13.79609870910645 47.57749938964844 C 15.3195686340332 47.57749938964844 16.55900001525879 46.20927810668945 16.55900001525879 44.52750015258789 C 16.55900001525879 42.84770965576172 15.3195686340332 41.48109817504883 13.79609870910645 41.48109817504883 C 12.2731294631958 41.48109817504883 11.03409862518311 42.84770965576172 11.03409862518311 44.52750015258789 C 11.03409862518311 46.20927810668945 12.2731294631958 47.57749938964844 13.79609870910645 47.57749938964844 M 14.96456909179688 34.08451843261719 L 14.96451663970947 34.08451843261719 C 14.98120498657227 34.08451843261719 14.99783134460449 34.08420944213867 15.01462936401367 34.08358001708984 L 15.03310871124268 34.08290100097656 L 15.05159950256348 34.08290100097656 L 37.62524795532227 34.08290100097656 C 38.183837890625 34.0813102722168 38.69358825683594 33.73316955566406 38.95415878295898 33.17733001708984 L 47.17805099487305 15.48273754119873 C 47.77413177490234 14.13224411010742 47.70389556884766 12.56278228759766 46.98965072631836 11.2827787399292 L 46.98566055297852 11.27560901641846 L 46.98177719116211 11.26838874816895 C 46.27705001831055 9.955288887023926 44.97774505615234 9.123651504516602 43.58945083618164 9.096399307250977 L 11.48939895629883 9.096399307250977 L 10.69992923736572 9.096399307250977 L 10.51669883728027 8.328489303588867 L 9.062638282775879 2.234382152557373 C 8.879122734069824 1.506942987442017 8.283661842346191 0.9992792010307312 7.613008975982666 0.9992792010307312 C 7.596359252929688 0.9992792010307312 7.579608917236328 0.999589204788208 7.562859058380127 1.000209212303162 L 7.544339179992676 1.000899195671082 L 7.52579927444458 1.000899195671082 L 2.508299112319946 1.000899195671082 C 1.676619052886963 1.000899195671082 0.9999990463256836 1.762709259986877 0.9999990463256836 2.69909930229187 C 0.9999990463256836 3.635989189147949 1.676619052886963 4.398199081420898 2.508299112319946 4.398199081420898 L 5.618699073791504 4.398199081420898 L 6.399428844451904 4.398199081420898 L 6.588829040527344 5.155609130859375 L 13.51249885559082 32.84309768676758 C 13.69534873962402 33.57397079467773 14.29245948791504 34.08445739746094 14.96456909179688 34.08451843261719 M 11.5861291885376 12.49459934234619 L 12.86999893188477 12.49459934234619 L 43.5995979309082 12.49459934234619 L 45.1673583984375 12.49459934234619 L 44.50637817382813 13.91620922088623 L 36.97877883911133 30.10630989074707 L 36.7098503112793 30.68470001220703 L 36.07199859619141 30.68470001220703 L 16.95779991149902 30.68470001220703 L 16.17890930175781 30.68470001220703 L 15.9882287979126 29.92951011657715 L 11.90042877197266 13.73940944671631 L 11.5861291885376 12.49459934234619 M 38.88359832763672 48.57749938964844 C 36.8087272644043 48.57749938964844 35.12070083618164 46.76067733764648 35.12070083618164 44.52750015258789 C 35.12070083618164 42.29631042480469 36.8087272644043 40.48109817504883 38.88359832763672 40.48109817504883 C 40.95796966552734 40.48109817504883 42.64559936523438 42.29631042480469 42.64559936523438 44.52750015258789 C 42.64559936523438 46.76067733764648 40.95796966552734 48.57749938964844 38.88359832763672 48.57749938964844 Z M 13.79609870910645 48.57749938964844 C 11.72172927856445 48.57749938964844 10.03409862518311 46.76067733764648 10.03409862518311 44.52750015258789 C 10.03409862518311 42.29631042480469 11.72172927856445 40.48109817504883 13.79609870910645 40.48109817504883 C 15.87096881866455 40.48109817504883 17.55900001525879 42.29631042480469 17.55900001525879 44.52750015258789 C 17.55900001525879 46.76067733764648 15.87096881866455 48.57749938964844 13.79609870910645 48.57749938964844 Z M 14.96447944641113 35.08451843261719 C 13.83278942108154 35.08441925048828 12.83678913116455 34.26251983642578 12.54239940643311 33.08580017089844 L 5.618699073791504 5.398199081420898 L 2.508299112319946 5.398199081420898 C 1.125219106674194 5.398199081420898 -9.326171834800334e-07 4.187389373779297 -9.326171834800334e-07 2.69909930229187 C -9.326171834800334e-07 1.211309194564819 1.125219106674194 0.0008992059156298637 2.508299112319946 0.0008992059156298637 L 7.52579927444458 0.0008992059156298637 C 7.554919242858887 -0.0001807940716389567 7.584059238433838 -0.0007207940798252821 7.613008975982666 -0.0007207940798252821 C 8.745089530944824 -0.0007207940798252821 9.740678787231445 0.8208091855049133 10.03409862518311 1.997099161148071 L 11.48939895629883 8.096399307250977 L 43.59869766235352 8.096399307250977 C 45.35176849365234 8.126829147338867 46.98571014404297 9.161059379577637 47.86289978027344 10.79549884796143 C 48.73088836669922 12.35102939605713 48.81533813476563 14.25768947601318 48.08879852294922 15.89579963684082 L 39.86100006103516 33.59880065917969 C 39.43313980102539 34.51152038574219 38.57754898071289 35.0801887512207 37.62809753417969 35.08290100097656 L 15.05159950256348 35.08290100097656 C 15.02240943908691 35.08398056030273 14.99349880218506 35.08451843261719 14.96447944641113 35.08451843261719 Z M 12.86999893188477 13.49459934234619 L 16.95779991149902 29.68470001220703 L 36.07199859619141 29.68470001220703 L 43.5995979309082 13.49459934234619 L 12.86999893188477 13.49459934234619 Z" stroke="none" fill="#fff"/>
  </g>
</svg>
