<svg xmlns="http://www.w3.org/2000/svg" width="49.848" height="50" viewBox="0 0 49.848 50">
  <g id="Layer_2" data-name="Layer 2" transform="translate(0 50) rotate(-90)">
    <g id="Capa_1" data-name="Capa 1" transform="translate(0 0)">
      <path id="Path_5" data-name="Path 5" d="M31.779,49.848a3.08,3.08,0,0,1-2.181-.9L10.232,29.567a2.978,2.978,0,0,1-.521-.653,3.237,3.237,0,0,1-.253-.536L.185,4.13A3.191,3.191,0,0,1,.847.893,3.4,3.4,0,0,1,4.165.15L28.5,9.446a3.037,3.037,0,0,1,1.13.758L49.094,29.671A3.034,3.034,0,0,1,50,31.88a3.08,3.08,0,0,1-.955,2.2,3.148,3.148,0,0,1-4.37-.12l-17.115-17.1a.243.243,0,0,0-.348,0l-2.886,2.883a.138.138,0,0,0,0,.194L40.492,36.1a3.08,3.08,0,0,1-.052,4.407,3.148,3.148,0,0,1-4.37-.12L19.986,24.306a.142.142,0,0,0-.231,0l-2.969,2.972a.1.1,0,0,0,0,.142l17.17,17.17a3.08,3.08,0,0,1-2.177,5.257ZM3.2,1.848a1.54,1.54,0,0,0-.97.271,1.334,1.334,0,0,0-.308,1.355l9.271,24.276a1.281,1.281,0,0,0,.111.237,1.081,1.081,0,0,0,.2.253l.025.022L30.907,47.639a1.257,1.257,0,0,0,1.743,0,1.232,1.232,0,0,0,0-1.737L15.48,28.729a1.953,1.953,0,0,1,0-2.772l2.972-2.972a2,2,0,0,1,1.42-.588h0a2,2,0,0,1,1.42.588l16.08,16.08a1.29,1.29,0,0,0,1.786.089,1.232,1.232,0,0,0,.025-1.762L23.017,21.251a1.98,1.98,0,0,1,0-2.806L25.9,15.559a2.1,2.1,0,0,1,2.966,0l17.1,17.087a1.3,1.3,0,0,0,1.789.089,1.232,1.232,0,0,0,.022-1.762l-19.505-19.5a1.161,1.161,0,0,0-.453-.308L3.5,1.878A1.084,1.084,0,0,0,3.2,1.848ZM13.608,23.53a2.206,2.206,0,0,1-.422-.043,2.014,2.014,0,0,1-1.463-1.25l-1.565-4.065a3.212,3.212,0,0,1,.862-3.533,28.892,28.892,0,0,0,3.314-3.576,3.141,3.141,0,0,1,3.616-1.029L22.3,11.7a2,2,0,0,1,.7,3.265l-3.97,3.97h0L19,18.966,18.97,19,15.03,22.939A2,2,0,0,1,13.608,23.53Zm3.228-11.851a1.327,1.327,0,0,0-1.044.521,30.74,30.74,0,0,1-3.523,3.816,1.364,1.364,0,0,0-.373,1.5l1.54,4.065a.163.163,0,0,0,.271.059l7.986-7.98a.142.142,0,0,0,.04-.132.139.139,0,0,0-.092-.1l-4.349-1.663a1.3,1.3,0,0,0-.456-.083Zm1.749,6.8h0l-.206-.213Zm-.856-.862h0l.656.653Z" fill="#28aade"/>
      <path id="Path_6" data-name="Path 6" d="M1.028,3.613.049,1.051a.779.779,0,0,1,1-1L3.517.989a.779.779,0,0,1,.308,1.232C3.344,2.8,2.836,3.364,2.306,3.9a.779.779,0,0,1-1.278-.286Z" transform="translate(7.374 7.342)" fill="#28aade"/>
    </g>
  </g>
</svg>
