<svg id="Layer_2" data-name="Layer 2" xmlns="http://www.w3.org/2000/svg" width="46.339" height="50" viewBox="0 0 46.339 50">
  <g id="Capa_1" data-name="Capa 1" transform="translate(0 0)">
    <path id="Path_2" data-name="Path 2" d="M34.083,10.9H11.9A4.079,4.079,0,0,0,11.2,12.59H34.78a4.1,4.1,0,0,0-.7-1.685Zm8,0H36.864a14.009,14.009,0,0,0-27.314,0H4.333L.05,41.914v.1c0,4.411,4.252,8,9.477,8H36.91c5.227,0,9.479-3.588,9.479-8ZM23.213,1.7A11.928,11.928,0,0,1,33.2,7.185a12.44,12.44,0,0,1,1.637,3.72H11.591A12.464,12.464,0,0,1,13.534,6.74,11.9,11.9,0,0,1,23.213,1.7ZM36.9,48.319H9.522c-4.106,0-7.442-2.808-7.48-6.266L6.114,12.584h34.2l4.072,29.469C44.357,45.519,41.012,48.319,36.9,48.319ZM34.083,10.9H11.9A4.079,4.079,0,0,0,11.2,12.59H34.78a4.1,4.1,0,0,0-.7-1.685Z" transform="translate(-0.05 -0.015)" fill="#28aade"/>
    <path id="Path_3" data-name="Path 3" d="M67.1,98.905H65.126c-.051-2.314-.076-4.668-.076-7.046,0-.737.008-1.505.031-2.3h1.99q-.051,1.108-.052,2.3C67.019,94.243,67.047,96.6,67.1,98.905Z" transform="translate(-55.922 -76.986)" fill="#28aade"/>
    <path id="Path_4" data-name="Path 4" d="M249.179,91.859c0,2.379-.024,4.732-.074,7.046H247.13c.053-2.309.081-4.662.081-7.046q0-1.191-.052-2.3h1.988C249.17,90.353,249.179,91.122,249.179,91.859Z" transform="translate(-212.434 -76.986)" fill="#28aade"/>
  </g>
</svg>
