<svg id="Layer_2" data-name="Layer 2" xmlns="http://www.w3.org/2000/svg" width="52.262" height="50" viewBox="0 0 52.262 50">
  <g id="Layer_1" data-name="Layer 1">
    <path id="Path_88" data-name="Path 88" d="M62.674,7.8H56.719a.8.8,0,0,1-.819-.789,7,7,0,0,1,1.965-4.868A6.833,6.833,0,0,1,62.607,0h.305a3.759,3.759,0,0,1,3.625,3.975A3.819,3.819,0,0,1,62.674,7.8ZM57.538,6.223h5.136a2.233,2.233,0,0,0,2.285-2.278,2.174,2.174,0,0,0-2.144-2.352h-.171A5.464,5.464,0,0,0,57.538,6.223Z" transform="translate(-14.282)" fill="#28aade"/>
    <path id="Path_89" data-name="Path 89" d="M39.689,49.993h-1.31a6.953,6.953,0,0,1-4.325-1.913,6.558,6.558,0,0,1-1.92-4.161H12.549a.789.789,0,0,1-.789-.744V4.072A4.079,4.079,0,0,1,15.839,0H51.465a.789.789,0,1,1,0,1.578h-.074A5.456,5.456,0,0,0,46.18,7.012V43.174a6.766,6.766,0,0,1-2.04,4.92A7.228,7.228,0,0,1,39.734,50Zm-1.221-1.608h1.184a5.211,5.211,0,0,0,4.965-5.211V7.012a7,7,0,0,1,1.965-4.868,7.146,7.146,0,0,1,.6-.566H15.839a2.5,2.5,0,0,0-2.5,2.494V42.363H32.885a.789.789,0,0,1,.789.811A5.054,5.054,0,0,0,38.468,48.385Z" transform="translate(-2.999)" fill="#28aade"/>
    <path id="Path_90" data-name="Path 90" d="M36.473,64.53H10.591a6.491,6.491,0,0,1-4.585-1.772,6.938,6.938,0,0,1-1.928-5.1.782.782,0,0,1,.789-.789H30.92a.782.782,0,0,1,.789.789,5.043,5.043,0,0,0,4.838,5.3.789.789,0,0,1-.074,1.571ZM5.693,58.456a4.69,4.69,0,0,0,4.9,4.466H32.476c-.141-.112-.283-.238-.417-.365a6.565,6.565,0,0,1-1.891-4.1Z" transform="translate(-1.033 -14.537)" fill="#28aade"/>
    <path id="Path_91" data-name="Path 91" d="M24.443,24.04c-.819,0-1.273,0-1.63-.395a1.6,1.6,0,0,1-.29-1.355c0-.194,0-.432,0-.744-.179-.439-1-2.047-1.28-2.59-.1-.194-.171-.335-.208-.417a6.342,6.342,0,0,1-.335-.744,2.471,2.471,0,0,1,0-1.98c.409-.841,1.31-1.139,2.36-1.489l.253-.082.536-.141.5-.156.261-.089h.037l.089-.149.677.4.677.4a1.489,1.489,0,0,1-.983.856l-.223.074-.581.186-.514.164-.268.089c-.655.216-1.325.439-1.444.685a1.206,1.206,0,0,0,.1.744,5.406,5.406,0,0,0,.261.6c.037.074.112.223.208.4C24.1,21.159,24.1,21.249,24.1,21.5v.975h.216l.35-.372c.506-.551.811-.878,1.28-.878h1.027a1.489,1.489,0,0,1,1.489-1.288h2.9a1.243,1.243,0,0,1,.923.521,1.34,1.34,0,0,0,.29.268l.439.216.216.1.357.186a1.087,1.087,0,0,1,.558.685.744.744,0,0,1,.342.052h.082a1.094,1.094,0,0,0,.916-.045,1.131,1.131,0,0,0,.566-.744L36.5,19.5a13.466,13.466,0,0,1,1.027-3.074c.246-.521-.744-2.054-1.943-3.283a1.541,1.541,0,0,1-1.176-.074l-1.37-.67a1.533,1.533,0,0,1-.744-2l.1-.208h-.7c-.231,0-.6.037-.953.045a.483.483,0,0,1-.052.156l-.067.246a.25.25,0,0,1-.06.186c-.179.588-.395,1.318-1.117,1.318a.789.789,0,0,1-.521-1.377c.045-.112.1-.29.127-.387s.052-.171.074-.238,0-.119.052-.186c.164-.543.38-1.288,1.1-1.288A10.291,10.291,0,0,0,31.6,8.609c1.02-.06,1.816-.1,2.233.529a1.876,1.876,0,0,1-.1,1.839l1.3.633a.744.744,0,0,1,.529-.3.8.8,0,0,1,.625.208,16.778,16.778,0,0,1,1.675,1.839c1.176,1.556,1.533,2.769,1.087,3.722a12.126,12.126,0,0,0-.9,2.71v.052L37.6,21.628a2.68,2.68,0,0,1-3.484,1.883,1.489,1.489,0,0,1-1.072-.261,1.094,1.094,0,0,1-.38-.744l-.112-.06-.208-.1-.454-.216a2.717,2.717,0,0,1-.744-.625h-2.62a1.4,1.4,0,0,1-.395,1.012,1.682,1.682,0,0,1-1.3.3H26.2l-.35.365c-.5.551-.8.886-1.273.886h-.134Z" transform="translate(-5.231 -2.192)" fill="#28aade"/>
    <path id="Path_92" data-name="Path 92" d="M48.521,11.04a1.362,1.362,0,0,1-.61-.141l-1.169-.558a1.385,1.385,0,0,1-.662-1.8H45.03v.037a.794.794,0,0,1-.06.2c-.015.06,0,.1-.052.156-.149.5-.35,1.184-1.05,1.184a.789.789,0,0,1-.789-.789.744.744,0,0,1,.246-.566,1,1,0,0,1,.082-.275c.022-.067.045-.149.067-.208a1.012,1.012,0,0,1,.045-.149c.134-.462.335-1.154,1.042-1.154a8.084,8.084,0,0,0,1.072-.045c.886-.052,1.578-.089,1.98.491a1.571,1.571,0,0,1,0,1.526l.819.409A3.03,3.03,0,0,0,48.6,8.71a2.46,2.46,0,0,1,.1-.484.234.234,0,0,1,.037-.149c.06-.305.223-1.1.99-1.1A.789.789,0,0,1,50.3,8.308V8.4l-.045.216c-.037.127-.06.261-.089.4a3.58,3.58,0,0,1-.491,1.377A1.392,1.392,0,0,1,48.521,11.04Z" transform="translate(-11.005 -1.765)" fill="#28aade"/>
    <path id="Path_93" data-name="Path 93" d="M20.2,12.064a.819.819,0,0,1-.35-.074,1.392,1.392,0,0,1-.662-1.809h-.357l-.692.037h0a1.392,1.392,0,0,1-.06.208.269.269,0,0,1-.045.149c-.149.5-.35,1.184-1.05,1.184a.782.782,0,0,1-.789-.789.8.8,0,0,1,.238-.566,1.086,1.086,0,0,1,.089-.275l.06-.2.045-.149c.134-.462.342-1.161,1.042-1.161a9.829,9.829,0,0,0,1.079-.037c.878-.052,1.578-.1,1.98.491a1.556,1.556,0,0,1,0,1.541.782.782,0,0,1-.491,1.4Z" transform="translate(-4.134 -2.186)" fill="#28aade"/>
    <path id="Path_94" data-name="Path 94" d="M45.636,34.858H36.629a.789.789,0,0,1,0-1.578h9.007a.789.789,0,1,1,0,1.578Z" transform="translate(-9.154 -8.507)" fill="#28aade"/>
    <path id="Path_95" data-name="Path 95" d="M45.61,39.389H36.6a.789.789,0,1,1,0-1.571H45.61a.789.789,0,1,1,0,1.571Z" transform="translate(-9.128 -9.666)" fill="#28aade"/>
    <path id="Path_96" data-name="Path 96" d="M41.383,43.928H19.989a.789.789,0,0,1,0-1.578H41.383a.789.789,0,0,1,0,1.578Z" transform="translate(-4.9 -10.826)" fill="#28aade"/>
    <path id="Path_97" data-name="Path 97" d="M41.383,48.458H19.989a.789.789,0,0,1,0-1.578H41.383a.789.789,0,0,1,0,1.578Z" transform="translate(-4.9 -11.983)" fill="#28aade"/>
    <path id="Path_98" data-name="Path 98" d="M41.383,53.008H19.989a.789.789,0,1,1,0-1.578H41.383a.789.789,0,1,1,0,1.578Z" transform="translate(-4.9 -13.147)" fill="#28aade"/>
    <path id="Path_99" data-name="Path 99" d="M66.009,53.358a2.479,2.479,0,1,1,2.479-2.479,2.479,2.479,0,0,1-2.479,2.479Zm0-3.379a.9.9,0,1,0,.9.9A.9.9,0,0,0,66.009,49.978Z" transform="translate(-16.232 -12.372)" fill="#28aade"/>
    <path id="Path_100" data-name="Path 100" d="M5.5,50.3a2.479,2.479,0,1,1,2.479-2.479A2.479,2.479,0,0,1,5.5,50.3Zm0-3.379a.886.886,0,1,1,0,.03Z" transform="translate(-0.765 -11.59)" fill="#28aade"/>
    <path id="Path_101" data-name="Path 101" d="M3.035,16.669a3.045,3.045,0,1,1,3.045-3.045,3.045,3.045,0,0,1-3.045,3.045Zm0-4.5a1.489,1.489,0,1,0,1.489,1.489A1.489,1.489,0,0,0,3.035,12.166Z" transform="translate(0.01 -2.704)" fill="#28aade"/>
  </g>
</svg>
