<svg xmlns="http://www.w3.org/2000/svg" xmlns:xlink="http://www.w3.org/1999/xlink" width="175.206" height="52.088" viewBox="0 0 175.206 52.088">
  <defs>
    <linearGradient id="linear-gradient" x1="0.003" y1="3.616" x2="1.985" y2="3.616" gradientUnits="objectBoundingBox">
      <stop offset="0" stop-color="#8dc63f"/>
      <stop offset="1" stop-color="#27aae1"/>
    </linearGradient>
    <linearGradient id="linear-gradient-2" x1="-4.717" y1="5.032" x2="3.927" y2="5.032" xlink:href="#linear-gradient"/>
    <linearGradient id="linear-gradient-3" x1="-1.537" y1="0.5" x2="5.021" y2="0.5" gradientUnits="objectBoundingBox">
      <stop offset="0" stop-color="#8dc63f"/>
      <stop offset="0.37" stop-color="#27aae1"/>
    </linearGradient>
    <linearGradient id="linear-gradient-4" x1="-7.097" y1="4.988" x2="0.918" y2="4.988" xlink:href="#linear-gradient"/>
    <linearGradient id="linear-gradient-5" x1="-1.09" y1="14.008" x2="1.419" y2="14.008" xlink:href="#linear-gradient"/>
    <linearGradient id="linear-gradient-6" x1="-0.007" y1="14.029" x2="20.659" y2="14.029" xlink:href="#linear-gradient"/>
    <linearGradient id="linear-gradient-7" x1="-1.215" y1="13.731" x2="19.276" y2="13.731" xlink:href="#linear-gradient"/>
    <linearGradient id="linear-gradient-8" x1="-4.888" y1="4.988" x2="2.078" y2="4.988" xlink:href="#linear-gradient"/>
    <linearGradient id="linear-gradient-9" x1="-2.204" y1="14.13" x2="16.532" y2="14.13" xlink:href="#linear-gradient"/>
    <linearGradient id="linear-gradient-10" x1="-1.086" y1="0.498" x2="1.103" y2="0.498" gradientUnits="objectBoundingBox">
      <stop offset="0" stop-color="#8dc63f"/>
      <stop offset="0.85" stop-color="#27aae1"/>
    </linearGradient>
    <linearGradient id="linear-gradient-11" x1="-1.421" y1="0.498" x2="0.727" y2="0.498" xlink:href="#linear-gradient-10"/>
  </defs>
  <g id="Layer_2" data-name="Layer 2" transform="translate(0 0.001)">
    <g id="Layer_1" data-name="Layer 1" transform="translate(0 -0.001)">
      <path id="Path_634" data-name="Path 634" d="M71.291,8.311h2.861v6.3a11.111,11.111,0,0,1-9.4,11.119,10.841,10.841,0,0,1-12.1-9.32,7.93,7.93,0,0,1-.082-1.39V8.393h2.943A1.079,1.079,0,0,0,56.575,7.33V1.362A1.079,1.079,0,0,0,55.512.3H47.827a3.409,3.409,0,0,0-3.352,3.27h0V14.933A18.738,18.738,0,0,0,58.7,33.165a10.882,10.882,0,0,1-11.528,7.276,11.062,11.062,0,0,1-9.565-11.119V12.154A11.726,11.726,0,0,0,26.489.3,11.446,11.446,0,0,0,18.8,3,11.446,11.446,0,0,0,11.119.3,11.669,11.669,0,0,0,0,12.154V33.247A1.079,1.079,0,0,0,1.063,34.31h5.8A1.079,1.079,0,0,0,7.93,33.247V11.908a3.45,3.45,0,0,1,2.861-3.516,3.36,3.36,0,0,1,3.924,2.78c0,.164.082.409.082.572v21.5a1.079,1.079,0,0,0,1.063,1.063h5.8a1.079,1.079,0,0,0,1.063-1.063V11.908A3.45,3.45,0,0,1,25.59,8.393a3.36,3.36,0,0,1,3.924,2.78c0,.164.082.409.082.572V29.159c0,10.056,7.6,18.8,17.659,19.376A18.869,18.869,0,0,0,66.876,33.41,18.755,18.755,0,0,0,82,14.933V3.569A3.27,3.27,0,0,0,78.731.3h-7.6a1.079,1.079,0,0,0-1.063,1.063v5.8A1.243,1.243,0,0,0,71.291,8.311Z" transform="translate(0 -0.053)" fill="url(#linear-gradient)"/>
      <path id="Path_635" data-name="Path 635" d="M115.667.7h-5.8A1.079,1.079,0,0,0,108.8,1.763V26.535a7.358,7.358,0,0,0,7.358,7.358h10.383A1.079,1.079,0,0,0,127.6,32.83h0v-5.8a1.079,1.079,0,0,0-1.063-1.063h-9.729V1.763A1.1,1.1,0,0,0,115.667.7Z" transform="translate(-19.85 -0.127)" fill="url(#linear-gradient-2)"/>
      <path id="Path_636" data-name="Path 636" d="M189.645,46.322v10.4a.368.368,0,0,1-.376.352h-1.938a.36.36,0,0,1-.352-.352v-10.4a.36.36,0,0,1,.352-.352h1.938a.368.368,0,0,1,.376.352Z" transform="translate(-34.113 -8.386)" fill="url(#linear-gradient-3)"/>
      <path id="Path_637" data-name="Path 637" d="M209.775,10.192A10.45,10.45,0,0,0,199.229.3h-8.748a.948.948,0,0,0-.981.981V32.839a.948.948,0,0,0,.981.981h8.748a10.45,10.45,0,0,0,10.547-9.892,10.138,10.138,0,0,0-2.453-6.867,10.138,10.138,0,0,0,2.453-6.868Zm-10.3,16.433h-2.861v-6.05h3.025a3.074,3.074,0,0,1,3.025,3.025,1.038,1.038,0,0,1-.082.491,3.082,3.082,0,0,1-3.107,2.534Zm0-13.163h-2.861V7.413h3.025a3.074,3.074,0,0,1,3.025,3.025,1.038,1.038,0,0,1-.082.491A3.156,3.156,0,0,1,199.474,13.463Z" transform="translate(-34.572 -0.054)" fill="url(#linear-gradient-4)"/>
      <path id="Path_638" data-name="Path 638" d="M181.993,49.2a3.483,3.483,0,0,0-3.516-3.27h-2.911a.319.319,0,0,0-.327.327V56.738a.311.311,0,0,0,.327.327h2.911a3.483,3.483,0,0,0,3.516-3.27,3.352,3.352,0,0,0-.818-2.281A3.385,3.385,0,0,0,181.993,49.2Zm-3.434,5.469h-.948V52.658h1.006a1.014,1.014,0,0,1,1.006,1.006.376.376,0,0,1,0,.164,1.03,1.03,0,0,1-1.063.842Zm0-4.382h-.948V48.276h1.006a1.014,1.014,0,0,1,1.006.981.376.376,0,0,1,0,.164A1.055,1.055,0,0,1,178.559,50.288Z" transform="translate(-31.971 -8.378)" fill="url(#linear-gradient-5)"/>
      <path id="Path_639" data-name="Path 639" d="M.887,49.088H3.994L.478,56.283a.548.548,0,0,0,.245.654c.082,0,.164.082.245.082H3.585a.818.818,0,0,0,.572-.327l3.924-8.257a2.387,2.387,0,0,0,.164-.736V46.391a.531.531,0,0,0-.491-.491H.887a.531.531,0,0,0-.491.491h0V48.6C.315,48.843.56,49.088.887,49.088Z" transform="translate(-0.069 -8.373)" fill="url(#linear-gradient-6)"/>
      <path id="Path_640" data-name="Path 640" d="M20.03,54v2.371a.474.474,0,0,1-.491.491H12.59a.474.474,0,0,1-.491-.491V54.9a.891.891,0,0,1,.327-.736l.981-.981c2.044-1.962,2.943-2.943,2.943-3.843a.63.63,0,0,0-.654-.572,1.635,1.635,0,0,0-1.145.491l-.164.164a.621.621,0,0,1-.327.164.425.425,0,0,1-.327-.164l-1.308-1.8a.621.621,0,0,1-.164-.327c0-.082.082-.245.082-.327l.082-.082.245-.245A5.077,5.077,0,0,1,15.861,45.5,3.646,3.646,0,0,1,19.7,49.178a6.282,6.282,0,0,1-2.126,4.251h1.88C19.867,53.511,20.03,53.756,20.03,54Z" transform="translate(-2.207 -8.299)" fill="url(#linear-gradient-7)"/>
      <path id="Path_641" data-name="Path 641" d="M163.982,0H149.756a1.766,1.766,0,0,0-1.8,1.472l-7.767,30.822a.965.965,0,0,0,.736,1.226h8.339a1.537,1.537,0,0,0,1.308-.9l2.943-8.83a4.627,4.627,0,0,0,.245-1.472V18.231c0-.082-.082-.245-.163-.245h-.654a.18.18,0,0,1-.164-.164v-1.8a.18.18,0,0,1,.163-.164h8.012a.18.18,0,0,1,.163.164h0v1.8a.18.18,0,0,1-.164.164H160.3a.18.18,0,0,0-.164.164h0v4.088a4.628,4.628,0,0,0,.245,1.472l2.943,8.83a1.324,1.324,0,0,0,1.308.9h8.094a.948.948,0,0,0,.981-.981v-.245L165.944,1.39A2.24,2.24,0,0,0,163.982,0Zm-7.6,15.207a.67.67,0,1,1,.491-.818v.245a.7.7,0,0,1-.491.572Zm2.207-.736a1.218,1.218,0,1,1,.9-1.472.7.7,0,0,1,0,.572,1.136,1.136,0,0,1-.9.9Zm-1.308-2.616a3.131,3.131,0,1,1,2.7-3.516v.818a3.041,3.041,0,0,1-2.7,2.7Z" transform="translate(-25.569 0.001)" fill="url(#linear-gradient-8)"/>
      <path id="Path_642" data-name="Path 642" d="M31.957,51.278h-.736V46.291a.531.531,0,0,0-.491-.491H28.605a1.006,1.006,0,0,0-.654.327L23.945,51.85a1.316,1.316,0,0,0-.245.736v1.39a.474.474,0,0,0,.491.491h3.6v1.88a.531.531,0,0,0,.491.491h2.371a.531.531,0,0,0,.491-.491h0v-1.88h.736a.531.531,0,0,0,.491-.491V51.768a.409.409,0,0,0-.409-.491Zm-4.17,0H26.234l1.553-2.126Z" transform="translate(-4.324 -8.355)" fill="url(#linear-gradient-9)"/>
      <path id="Path_643" data-name="Path 643" d="M193.546,56.356a4.6,4.6,0,0,1-1-3.107,4.538,4.538,0,0,1,1-3.066,4.153,4.153,0,0,1,5.829,0,4.537,4.537,0,0,1,1,3.066,4.6,4.6,0,0,1-1,3.107,4.088,4.088,0,0,1-5.829,0Zm4.21-3.107c0-1.684-.433-2.534-1.292-2.534s-1.3.818-1.3,2.534.433,2.592,1.3,2.592,1.292-.875,1.292-2.608Z" transform="translate(-35.128 -8.937)" fill="url(#linear-gradient-10)"/>
      <path id="Path_644" data-name="Path 644" d="M209.853,55.981a2.085,2.085,0,0,1-.621.891,2.314,2.314,0,0,1-1.57.564,2.51,2.51,0,0,1-2.011-.9,4.905,4.905,0,0,1-.924-3.27,5.617,5.617,0,0,1,.76-3.148A2.453,2.453,0,0,1,207.662,49a2.289,2.289,0,0,1,2.248,1.463h.041l.065-1.333H212.4c-.041.76-.057,1.39-.057,1.872v5.453a5.9,5.9,0,0,1-.531,2.739q-.989,1.823-3.712,1.831a10.1,10.1,0,0,1-3.009-.515l.09-2.06a5.666,5.666,0,0,0,2.633.744,1.766,1.766,0,0,0,1.79-.957,5.886,5.886,0,0,0,.294-2.232Zm0-2.722a4.612,4.612,0,0,0-.237-1.578c-.221-.58-.548-.867-1.006-.867-.818,0-1.235.818-1.235,2.453s.4,2.412,1.21,2.412S209.853,54.861,209.853,53.259Z" transform="translate(-37.348 -8.938)" fill="url(#linear-gradient-11)"/>
    </g>
  </g>
</svg>
