<svg id="Layer_2" data-name="Layer 2" xmlns="http://www.w3.org/2000/svg" width="57.671" height="50" viewBox="0 0 57.671 50">
  <g id="Capa_1" data-name="Capa 1" transform="translate(0 0)">
    <path id="Path_1" data-name="Path 1" d="M57.43,25.636,33.85,2.081a7.125,7.125,0,0,0-10.064,0L.239,25.636A.826.826,0,1,0,1.412,26.8l3.641-3.641V42.875A7.133,7.133,0,0,0,12.178,50H45.492a7.133,7.133,0,0,0,7.125-7.125V23.159L56.258,26.8a.826.826,0,0,0,1.172-1.164Zm-20.2,22.713H20.442V31.77a1.924,1.924,0,0,1,1.924-1.924H35.3a1.924,1.924,0,0,1,1.924,1.924Zm13.738-5.474a5.482,5.482,0,0,1-5.474,5.474h-6.6V31.77a3.575,3.575,0,0,0-3.575-3.575H22.366a3.575,3.575,0,0,0-3.575,3.575V48.348h-6.6a5.482,5.482,0,0,1-5.474-5.474V21.507L24.967,3.245a5.49,5.49,0,0,1,7.736,0L50.966,21.507Z" transform="translate(0.001 0)" fill="#28aade"/>
  </g>
</svg>
