<svg id="Layer_2" data-name="Layer 2" xmlns="http://www.w3.org/2000/svg" width="60.87" height="50" viewBox="0 0 60.87 50">
  <g id="Layer_1" data-name="Layer 1">
    <path id="Path_104" data-name="Path 104" d="M63.838,54.191h0a.913.913,0,0,1-.778-.435l-8.412-9.5H36.562A11.163,11.163,0,0,1,33.75,43.9a10.948,10.948,0,0,1-8.13-10.415c0-2.659,0-5.355,0-7.965V21.56a10.7,10.7,0,0,1,.165-1.777,10.55,10.55,0,0,1,2.683-5.4,10.464,10.464,0,0,1,7.879-3.566H59.96a10.826,10.826,0,0,1,4.577,1.023,10.942,10.942,0,0,1,6.249,9.864V33.348a10.25,10.25,0,0,1-.478,3.161,10.826,10.826,0,0,1-5.551,6.611V53.272A.919.919,0,0,1,63.838,54.191Zm0-.919ZM55.874,42.924l7,7.965v-8.13a1.115,1.115,0,0,1,.7-1.1,8.994,8.994,0,0,0,4.9-5.63,8.5,8.5,0,0,0,.4-2.616V21.768A9.1,9.1,0,0,0,63.685,13.6a8.908,8.908,0,0,0-3.792-.852H36.287a8.645,8.645,0,0,0-6.451,2.9A8.718,8.718,0,0,0,27.6,20.12a8.522,8.522,0,0,0-.141,1.464v11.9A9.11,9.11,0,0,0,34.2,42.115a9.386,9.386,0,0,0,2.34.294H54.857A1.317,1.317,0,0,1,55.874,42.924ZM54.832,44.26Z" transform="translate(-9.917 -4.191)" fill="#28aade"/>
    <path id="Path_105" data-name="Path 105" d="M5.939,35.088A.833.833,0,0,1,5.6,35.02a.913.913,0,0,1-.576-.852V25.732A9.19,9.19,0,0,1,.149,19.17a4.135,4.135,0,0,0-.074-.423A2.782,2.782,0,0,0,0,18.435a.852.852,0,0,1,0-.214V8.492a.962.962,0,0,1,.031-.227A3.394,3.394,0,0,0,.1,7.83a2.388,2.388,0,0,1,.08-.466A9.147,9.147,0,0,1,3.341,2.12,9.031,9.031,0,0,1,7.96.1L8.573,0h21.07l.613.055a8.871,8.871,0,0,1,4.662,2.138c.319.282.613.613.864.87l.368.4a.251.251,0,0,1,.055.061l.135.184a.919.919,0,0,1-.772,1.421H26.886a11.16,11.16,0,0,0-1.568.074,11.512,11.512,0,0,0-3.382.87A12.321,12.321,0,0,0,14.7,14.447a11.874,11.874,0,0,0-.392,3.18v8.057a1.311,1.311,0,0,1-.355.919l-7.346,8.2a.931.931,0,0,1-.668.282Zm.919-9.717v6.4L12.445,25.5V17.633a13.632,13.632,0,0,1,.447-3.676,14.153,14.153,0,0,1,8.332-9.576,12.989,12.989,0,0,1,3.89-1,15.188,15.188,0,0,1,1.752-.086h6.5a6.972,6.972,0,0,0-3.3-1.4l-.551-.049H8.775l-.613.08A7.18,7.18,0,0,0,4.487,3.535a7.291,7.291,0,0,0-2.536,4.2,2.476,2.476,0,0,1-.061.361c-.018.123-.049.337-.086.5v9.521a2.4,2.4,0,0,0,.061.355,2.782,2.782,0,0,0,.055.312,7.352,7.352,0,0,0,4.2,5.441A1.164,1.164,0,0,1,6.858,25.371Zm5.588.306Zm.129-.319Z" transform="translate(0.011)" fill="#28aade"/>
  </g>
</svg>
