<svg id="Layer_2" data-name="Layer 2" xmlns="http://www.w3.org/2000/svg" width="21.005" height="50" viewBox="0 0 21.005 50">
  <g id="Layer_1" data-name="Layer 1" transform="translate(0)">
    <g id="Layer_2-2" data-name="Layer 2">
      <g id="Capa_1" data-name="Capa 1">
        <path id="Path_102" data-name="Path 102" d="M6.177,49.991a3.848,3.848,0,0,1-2.762-1.18,4.342,4.342,0,0,1-1.069-3.036c0-3.254,1.826-10.7,5.58-22.753a4.471,4.471,0,0,0,.133-.53,3.384,3.384,0,0,0-.462.242,35.566,35.566,0,0,0-3.968,3.594,1.2,1.2,0,0,1-1.569.092L.452,25.177a1.176,1.176,0,0,1-.145-1.732,29.592,29.592,0,0,1,6.976-6.009A11.972,11.972,0,0,1,13,15.581h.214a3.923,3.923,0,0,1,2.352.785,2.907,2.907,0,0,1,1.069,2.317c0,.342,0,1.261-2.429,9.353-2.993,10.048-3.746,13.8-3.818,15.142a34.324,34.324,0,0,0,4.8-4A1.2,1.2,0,0,1,16,38.853h.026a1.174,1.174,0,0,1,.827.338l1.428,1.39a1.2,1.2,0,0,1,0,1.727,49.434,49.434,0,0,1-7.577,6.221A9.137,9.137,0,0,1,6.331,50Zm2.454-29c.526,0,.817.323.817.909a5.345,5.345,0,0,1-.261,1.546C5.553,35.238,3.7,42.757,3.7,45.782a2.963,2.963,0,0,0,.71,2.138,2.491,2.491,0,0,0,1.787.757H6.32a8.088,8.088,0,0,0,3.66-1.283,47.107,47.107,0,0,0,7.185-5.918l-1.2-1.167C12.761,43.328,10.81,44.8,9.982,44.8a.906.906,0,0,1-.684-.428,1.556,1.556,0,0,1-.282-.973c0-1.8,1.311-7.1,3.88-15.747,1.573-5.266,2.373-8.284,2.373-8.979A1.558,1.558,0,0,0,14.7,17.4a2.565,2.565,0,0,0-1.5-.479h-.344v-.013a10.862,10.862,0,0,0-4.9,1.687A28.277,28.277,0,0,0,1.42,24.177l1.368,1.069a37.947,37.947,0,0,1,4.077-3.651,3.421,3.421,0,0,1,1.755-.616h0ZM16.156,9.131A3.669,3.669,0,0,1,13.5,7.989a3.942,3.942,0,0,1-1.082-2.837,5.131,5.131,0,0,1,1.381-3.6A4.489,4.489,0,0,1,17.189,0h.075a3.7,3.7,0,0,1,2.664,1.142A3.827,3.827,0,0,1,21,3.906,5.276,5.276,0,0,1,19.57,7.517,4.515,4.515,0,0,1,16.2,9.131ZM17.2,1.368a3.188,3.188,0,0,0-2.407,1.1,3.833,3.833,0,0,0-1.022,2.7,2.659,2.659,0,0,0,.7,1.924,2.3,2.3,0,0,0,1.648.7h.062a3.207,3.207,0,0,0,2.394-1.167A3.908,3.908,0,0,0,19.65,3.876a2.465,2.465,0,0,0-.693-1.824,2.352,2.352,0,0,0-1.595-.7Z" transform="translate(0.007)" fill="#28aade"/>
        <path id="Path_103" data-name="Path 103" d="M17.782,1.781a2.48,2.48,0,0,1,1.868.748A2.608,2.608,0,0,1,20.4,4.453a4.077,4.077,0,0,1-1.114,2.841,3.359,3.359,0,0,1-2.514,1.225,2.452,2.452,0,0,1-1.832-.748,2.826,2.826,0,0,1-.746-2.018,4.023,4.023,0,0,1,1.069-2.8A3.354,3.354,0,0,1,17.782,1.8M13.594,17.374a2.751,2.751,0,0,1,1.787.509,1.71,1.71,0,0,1,.629,1.392q0,1.069-2.379,9.02Q9.767,41.307,9.767,44a1.4,1.4,0,0,0,.261.855.748.748,0,0,0,.547.351q1.174,0,5.986-4.547l1.415,1.4a47.785,47.785,0,0,1-7.331,6.05,8.224,8.224,0,0,1-3.739,1.317,2.653,2.653,0,0,1-2.042-.808,3.128,3.128,0,0,1-.748-2.245q0-4.581,5.5-22.392a5.157,5.157,0,0,0,.254-1.5c0-.494-.214-.748-.656-.748a3.235,3.235,0,0,0-1.67.584,37.261,37.261,0,0,0-4.158,3.739L1.77,24.8a28.468,28.468,0,0,1,6.685-5.742,11.038,11.038,0,0,1,5.131-1.7M17.782.748a4.318,4.318,0,0,0-3.284,1.5,4.994,4.994,0,0,0-1.338,3.5A3.82,3.82,0,0,0,14.2,8.468a3.489,3.489,0,0,0,2.58,1.1A4.359,4.359,0,0,0,20.029,8a5.131,5.131,0,0,0,1.383-3.508,3.651,3.651,0,0,0-1.02-2.647A3.519,3.519,0,0,0,17.782.748ZM13.594,16.327a11.79,11.79,0,0,0-5.648,1.834A29.43,29.43,0,0,0,1,24.143a1,1,0,0,0-.269.748,1.022,1.022,0,0,0,.4.748L2.74,26.883A1.035,1.035,0,0,0,4.1,26.808a35.231,35.231,0,0,1,3.994-3.624,3.42,3.42,0,0,1,.748-.351,4.917,4.917,0,0,1-.18.823C4.9,35.736,3.084,43.154,3.084,46.37A4.179,4.179,0,0,0,4.11,49.288,3.66,3.66,0,0,0,6.9,50.417a8.96,8.96,0,0,0,4.308-1.452,47.248,47.248,0,0,0,7.532-6.2,1.052,1.052,0,0,0,.321-.748,1.069,1.069,0,0,0-.314-.748l-1.428-1.392a1.026,1.026,0,0,0-.748-.291,1.037,1.037,0,0,0-.71.276c-3.207,2.993-4.547,3.9-5.071,4.167v-.075c0-1.159.665-4.763,3.829-15.393,2.418-8.06,2.418-8.966,2.418-9.3a2.724,2.724,0,0,0-1-2.185,3.756,3.756,0,0,0-2.441-.748Z" transform="translate(-0.573 -0.588)" fill="#28aade"/>
      </g>
    </g>
  </g>
</svg>
