<svg id="Layer_2" data-name="Layer 2" xmlns="http://www.w3.org/2000/svg" width="50.056" height="50" viewBox="0 0 50.056 50">
  <g id="Layer_1" data-name="Layer 1">
    <path id="Path_196" data-name="Path 196" d="M25.051,0A25,25,0,1,0,41.531,43.748l.1-.09A24.964,24.964,0,0,0,25.051,0Zm0,47.882a22.75,22.75,0,0,1-13.8-4.692c8-3.414,9.479-5.07,9.839-6.233a.918.918,0,0,0,.048-.312v-2.1a1.008,1.008,0,0,0-.3-.738A12.233,12.233,0,0,1,18,28.546a1.044,1.044,0,0,0-.408-.6,2.352,2.352,0,0,1-.534-3.276l.09-.12a1.044,1.044,0,0,0,.24-.666V19.2c0-4.59,2.778-7.109,7.8-7.109s7.8,2.46,7.8,7.109v4.7a1.116,1.116,0,0,0,.24.666,2.34,2.34,0,0,1-.312,3.3,1.1,1.1,0,0,1-.132.1,1.1,1.1,0,0,0-.408.6A12.107,12.107,0,0,1,29.5,33.825a1.062,1.062,0,0,0-.3.738v2.1a1.35,1.35,0,0,0,.048.312c.216.7.726,2.292,9.7,6.179A22.714,22.714,0,0,1,25.051,47.882Zm15.7-6.275c-7.757-3.282-9.185-4.8-9.431-5.2V34.959a14.279,14.279,0,0,0,3-5.514,4.44,4.44,0,0,0,.792-5.9V19.2c0-5.862-3.6-9.227-9.929-9.227-6.227,0-9.941,3.45-9.941,9.227v4.35a4.44,4.44,0,0,0-.732,3.114,4.494,4.494,0,0,0,1.518,2.784,14.519,14.519,0,0,0,3,5.514v1.47c-.258.438-1.692,1.932-9.6,5.232a22.882,22.882,0,1,1,32.343-1.068c-.324.348-.66.684-1.014,1.014Z" transform="translate(0.008 0)" fill="#28aade"/>
  </g>
</svg>
