<?xml version="1.0" encoding="utf-8"?>
<!-- Generator: Adobe Illustrator 25.4.1, SVG Export Plug-In . SVG Version: 6.00 Build 0)  -->
<svg version="1.1" id="_22_Icons_Line_Cart" xmlns="http://www.w3.org/2000/svg" xmlns:xlink="http://www.w3.org/1999/xlink"
	 x="0px" y="0px" viewBox="0 0 20 20" style="enable-background:new 0 0 20 20;" xml:space="preserve">
<style type="text/css">
	.st0{fill:#28AADE;}
	.st1{fill:#FFFFFF;}
</style>
<g id="Shape" transform="translate(0 0.001)">
	<path class="st0" d="M16,19.8c-0.7,0-1.3-0.7-1.3-1.5c0-0.8,0.6-1.5,1.3-1.5c0.7,0,1.3,0.7,1.3,1.5C17.4,19.1,16.7,19.8,16,19.8z
		 M5.7,19.8c-0.7,0-1.3-0.7-1.3-1.5c0-0.8,0.6-1.5,1.3-1.5c0.7,0,1.3,0.7,1.3,1.5C7,19.1,6.4,19.8,5.7,19.8z M6.2,14.2
		c-0.4,0-0.7-0.3-0.8-0.7L2.5,2.2l0-0.2H2.3H1C0.6,2,0.2,1.6,0.2,1.1c0-0.5,0.4-0.9,0.8-0.9h2.1h0l0,0c0,0,0,0,0,0
		c0.4,0,0.7,0.3,0.8,0.7l0.6,2.5l0,0.2h0.2h13.2c0.6,0,1.3,0.4,1.6,1l0,0l0,0c0.3,0.6,0.4,1.3,0.1,1.9l-3.4,7.3
		c-0.1,0.3-0.4,0.5-0.7,0.5L6.2,14.2L6.2,14.2L6.2,14.2C6.2,14.2,6.2,14.2,6.2,14.2L6.2,14.2z M5,5.3l0.1,0.3l1.7,6.7l0,0.2H7h7.9
		H15l0.1-0.1l3.1-6.7l0.1-0.3h-0.3H5.3H5z"/>
	<path class="st1" d="M16,19.6c0.6,0,1.1-0.6,1.1-1.3c0-0.7-0.5-1.3-1.1-1.3c-0.6,0-1.1,0.6-1.1,1.3C14.9,19,15.4,19.6,16,19.6
		 M5.7,19.6c0.6,0,1.1-0.6,1.1-1.3c0-0.7-0.5-1.3-1.1-1.3c-0.6,0-1.1,0.6-1.1,1.3C4.5,19,5.1,19.6,5.7,19.6 M6.2,14L6.2,14
		C6.2,14,6.2,14,6.2,14L6.2,14L6.2,14l9.3,0c0.2,0,0.4-0.1,0.5-0.4l3.4-7.3c0.2-0.6,0.2-1.2-0.1-1.7l0,0l0,0
		c-0.3-0.5-0.8-0.9-1.4-0.9H4.7H4.4L4.3,3.4L3.7,0.9C3.7,0.6,3.4,0.4,3.1,0.4c0,0,0,0,0,0l0,0h0H1c-0.3,0-0.6,0.3-0.6,0.7
		c0,0.4,0.3,0.7,0.6,0.7h1.3h0.3l0.1,0.3l2.9,11.4C5.6,13.8,5.9,14,6.2,14 M4.8,5.1h0.5h12.7h0.6l-0.3,0.6l-3.1,6.7l-0.1,0.2h-0.3H7
		H6.7l-0.1-0.3L4.9,5.7L4.8,5.1 M16,20c-0.9,0-1.5-0.7-1.5-1.7c0-0.9,0.7-1.7,1.5-1.7c0.9,0,1.5,0.7,1.5,1.7
		C17.6,19.3,16.9,20,16,20z M5.7,20c-0.9,0-1.5-0.7-1.5-1.7c0-0.9,0.7-1.7,1.5-1.7c0.9,0,1.5,0.7,1.5,1.7C7.2,19.3,6.5,20,5.7,20z
		 M6.2,14.4c-0.5,0-0.9-0.3-1-0.8L2.3,2.2H1c-0.6,0-1-0.5-1-1.1C0,0.5,0.5,0,1,0h2.1c0,0,0,0,0,0c0.5,0,0.9,0.3,1,0.8l0.6,2.5h13.2
		c0.7,0,1.4,0.4,1.8,1.1c0.4,0.6,0.4,1.4,0.1,2.1l-3.4,7.3c-0.2,0.4-0.5,0.6-0.9,0.6L6.2,14.4C6.2,14.4,6.2,14.4,6.2,14.4z M5.3,5.6
		L7,12.2h7.9l3.1-6.7H5.3z"/>
</g>
</svg>
