<svg id="Layer_2" data-name="Layer 2" xmlns="http://www.w3.org/2000/svg" xmlns:xlink="http://www.w3.org/1999/xlink" width="118.579" height="38.788" viewBox="0 0 118.579 38.788">
  <defs>
    <clipPath id="clip-path">
      <path id="Path_60" data-name="Path 60" d="M55.163,43.171l-5.346-3.088L39.505,34.127c-.573-.329-1.145-.13-1.145.561V58.949c0,.519.408.742.906.464L49.817,53.32l5.346-3.086L60.3,47.258c.6-.348.545-.825.037-1.1S55.163,43.171,55.163,43.171Z" transform="translate(-38.36 -33.972)" fill="none"/>
    </clipPath>
    <linearGradient id="linear-gradient" x1="0.5" y1="0.932" x2="0.5" y2="-0.068" gradientUnits="objectBoundingBox">
      <stop offset="0" stop-color="#2079b0"/>
      <stop offset="0.32" stop-color="#4a98b5"/>
      <stop offset="0.78" stop-color="#81bfbc"/>
      <stop offset="1" stop-color="#97cfbf"/>
    </linearGradient>
    <linearGradient id="linear-gradient-2" y1="1.365" x2="1" y2="1.365" gradientUnits="objectBoundingBox">
      <stop offset="0" stop-color="#5abcab"/>
      <stop offset="1" stop-color="#e6e99a"/>
    </linearGradient>
    <linearGradient id="linear-gradient-3" x1="0.5" y1="-0.135" x2="0.5" y2="-1.135" gradientUnits="objectBoundingBox">
      <stop offset="0" stop-color="#e53432"/>
      <stop offset="0.18" stop-color="#d43745"/>
      <stop offset="0.73" stop-color="#a33e7c"/>
      <stop offset="1" stop-color="#904192"/>
    </linearGradient>
    <linearGradient id="linear-gradient-4" x1="0.5" y1="0.746" x2="0.5" y2="-0.254" gradientUnits="objectBoundingBox">
      <stop offset="0" stop-color="#f18779"/>
      <stop offset="0.64" stop-color="#f9b574"/>
      <stop offset="1" stop-color="#fdcb72"/>
    </linearGradient>
  </defs>
  <g id="Layer_1" data-name="Layer 1">
    <path id="Path_55" data-name="Path 55" d="M118.579,33.547a5.242,5.242,0,0,1-5.242,5.242H5.242A5.242,5.242,0,0,1,0,33.547V5.242A5.242,5.242,0,0,1,5.242,0h108.1a5.242,5.242,0,0,1,5.242,5.242Z" fill="#1d1d1b"/>
    <g id="PLAY" transform="translate(8.893 7.876)">
      <g id="Group_1" data-name="Group 1" clip-path="url(#clip-path)">
        <path id="Path_56" data-name="Path 56" d="M38.37,32.21V58.477L51.615,45.343Z" transform="translate(-38.368 -32.618)" fill="url(#linear-gradient)"/>
        <path id="Path_57" data-name="Path 57" d="M55.171,41.5l-5.346-3.088L38.37,31.8v.1L51.615,45.029Z" transform="translate(-38.368 -32.304)" fill="url(#linear-gradient-2)"/>
        <path id="Path_58" data-name="Path 58" d="M38.37,101.993v.1l11.455-6.617,5.346-3.086L51.615,88.86Z" transform="translate(-38.368 -76.135)" fill="url(#linear-gradient-3)"/>
        <path id="Path_59" data-name="Path 59" d="M99.056,73.65,95.5,77.176,99.056,80.7l6.111-3.529Z" transform="translate(-82.253 -64.451)" fill="url(#linear-gradient-4)"/>
      </g>
    </g>
    <path id="Path_61" data-name="Path 61" d="M386.276,84.773a3.283,3.283,0,0,1-1.363-.276,2.569,2.569,0,0,1-1.034-.846h-.086a10.081,10.081,0,0,1,.086,1.268v3.146H382.72V77h.927l.162,1.046h.056a2.669,2.669,0,0,1,1.039-.906,3.151,3.151,0,0,1,1.358-.278,2.823,2.823,0,0,1,2.346,1.039,5.534,5.534,0,0,1-.014,5.838A2.833,2.833,0,0,1,386.276,84.773Zm-.167-6.934a2.056,2.056,0,0,0-1.695.647,3.323,3.323,0,0,0-.536,2.063v.26a3.8,3.8,0,0,0,.536,2.3,2.035,2.035,0,0,0,1.722.7,1.794,1.794,0,0,0,1.551-.8,3.814,3.814,0,0,0,.561-2.212,3.662,3.662,0,0,0-.561-2.191,1.855,1.855,0,0,0-1.579-.765Z" transform="translate(-293.992 -59.039)" fill="#f9f9f9"/>
    <path id="Path_62" data-name="Path 62" d="M419.449,74.475H418.29V63.63h1.159Z" transform="translate(-321.315 -48.878)" fill="#f9f9f9"/>
    <path id="Path_63" data-name="Path 63" d="M434.54,84.684l-.232-1.087h-.056a3.176,3.176,0,0,1-1.138.971,3.461,3.461,0,0,1-1.419.255,2.549,2.549,0,0,1-1.781-.584,2.134,2.134,0,0,1-.645-1.667q0-2.318,3.709-2.425l1.3-.042v-.464a1.924,1.924,0,0,0-.387-1.326,1.623,1.623,0,0,0-1.247-.45,5.028,5.028,0,0,0-2.161.584l-.345-.876a5.5,5.5,0,0,1,1.238-.48,5.309,5.309,0,0,1,1.349-.174,2.912,2.912,0,0,1,2.024.605,2.529,2.529,0,0,1,.658,1.945v5.214Zm-2.615-.816a2.351,2.351,0,0,0,1.7-.591,2.2,2.2,0,0,0,.617-1.66v-.7l-1.159.046a4.181,4.181,0,0,0-1.989.431,1.291,1.291,0,0,0-.61,1.18,1.187,1.187,0,0,0,.38.955,1.581,1.581,0,0,0,1.062.334Z" transform="translate(-329.75 -59.087)" fill="#f9f9f9"/>
    <path id="Path_64" data-name="Path 64" d="M458.58,77.46h1.24l1.674,4.356a16.709,16.709,0,0,1,.682,2.154h.056c.063-.232.188-.642.38-1.217s.825-2.337,1.892-5.293h1.243l-3.283,8.7a4.349,4.349,0,0,1-1.141,1.829,2.411,2.411,0,0,1-1.6.54,4.665,4.665,0,0,1-1.046-.118v-.927a4.107,4.107,0,0,0,.858.083,1.762,1.762,0,0,0,1.7-1.338l.427-1.087Z" transform="translate(-352.265 -59.502)" fill="#f9f9f9"/>
    <path id="Path_65" data-name="Path 65" d="M285.86,78.623a2.6,2.6,0,0,1-.209,4.426,1.122,1.122,0,0,0-.448.784.879.879,0,0,0,.415.7l.577.447a2.8,2.8,0,0,1,1.34,2.237c0,1.5-1.454,3.014-4.2,3.014-2.318,0-3.436-1.1-3.436-2.286a2.3,2.3,0,0,1,1.231-1.95,6.751,6.751,0,0,1,3.051-.735,1.637,1.637,0,0,1-.48-1.085,1.457,1.457,0,0,1,.16-.624c-.176.016-.35.03-.512.03a2.524,2.524,0,0,1-2.65-2.506,2.877,2.877,0,0,1,1.022-2.142,4.349,4.349,0,0,1,2.861-.879h3.29l-1.022.575Zm-1.136,7.094a2.757,2.757,0,0,0-.366-.016,6.428,6.428,0,0,0-1.678.257,1.8,1.8,0,0,0-1.373,1.646c0,1.136,1.1,1.95,2.812,1.95,1.532,0,2.349-.737,2.349-1.727C286.468,87.01,285.951,86.582,284.725,85.717Zm.464-3.035a1.623,1.623,0,0,0,.4-1.159c0-1.159-.7-2.94-2.012-2.94a1.5,1.5,0,0,0-1.117.529,1.855,1.855,0,0,0-.352,1.182c0,1.071.624,2.845,2,2.845a1.623,1.623,0,0,0,1.085-.464Z" transform="translate(-215.009 -59.955)" fill="#f9f9f9"/>
    <path id="Path_66" data-name="Path 66" d="M249.33,84.679a3.765,3.765,0,0,1-3.89-3.635v-.13a3.955,3.955,0,0,1,4.134-3.876,3.732,3.732,0,0,1,3.809,3.649v.121A3.894,3.894,0,0,1,249.33,84.679Zm1.994-1.291a2.894,2.894,0,0,0,.48-1.771c0-1.4-.67-4.085-2.65-4.085a2.221,2.221,0,0,0-1.435.545,2.413,2.413,0,0,0-.735,1.945c0,1.579.784,4.173,2.715,4.173a2.033,2.033,0,0,0,1.623-.8Z" transform="translate(-188.538 -59.177)" fill="#f9f9f9"/>
    <path id="Path_67" data-name="Path 67" d="M212.025,84.678a3.758,3.758,0,0,1-3.895-3.765,3.957,3.957,0,0,1,4.134-3.876,3.733,3.733,0,0,1,3.811,3.649v.121A3.893,3.893,0,0,1,212.025,84.678Zm1.994-1.291a2.893,2.893,0,0,0,.478-1.771c0-1.4-.67-4.085-2.648-4.085a2.214,2.214,0,0,0-1.43.549,2.406,2.406,0,0,0-.735,1.945c0,1.579.781,4.173,2.712,4.173a2.038,2.038,0,0,0,1.623-.807Z" transform="translate(-159.878 -59.177)" fill="#f9f9f9"/>
    <path id="Path_68" data-name="Path 68" d="M166.262,72.491l-2.3.529a16.889,16.889,0,0,1-2.645.274,5.7,5.7,0,0,1-6.111-5.807c0-3.111,2.39-6,6.48-6a9.249,9.249,0,0,1,2.455.336,6.245,6.245,0,0,1,2.117.995l-1.333,1.266-.561.128.4-.642a4.582,4.582,0,0,0-3.431-1.507A4.43,4.43,0,0,0,156.9,66.8a5.672,5.672,0,0,0,5.675,5.854,4.813,4.813,0,0,0,2.038-.4v-2.58l-2.42.127,1.282-.7h3.4l-.417.4a.362.362,0,0,0-.16.255c-.018.146-.032.612-.032.772Z" transform="translate(-119.227 -47.234)" fill="#f9f9f9"/>
    <path id="Path_69" data-name="Path 69" d="M316.209,70.827c-.529-.049-.64-.144-.64-.77v-9.2c.065-.561.232-.658.723-.948h-2.279l-1.2.58h1.226v9.9c0,.32-.062.369-.431.849h2.838l.584-.343C316.756,70.862,316.482,70.848,316.209,70.827Z" transform="translate(-240.289 -46.021)" fill="#f9f9f9"/>
    <path id="Path_70" data-name="Path 70" d="M336.362,84.152c-.174.1-.35.206-.524.285a3.692,3.692,0,0,1-1.546.3,3.4,3.4,0,0,1-2.119-.621,4.127,4.127,0,0,1-1.623-3.362,3.61,3.61,0,0,1,3.647-3.679,3.079,3.079,0,0,1,1.641.445,2.627,2.627,0,0,1,1.113,1.574L333.2,80.614l-1.226.1c.4,2.022,1.769,3.2,3.283,3.2a4.122,4.122,0,0,0,1.943-.556Zm-1.5-4.748c.3-.111.464-.206.464-.429a1.58,1.58,0,0,0-1.577-1.37,1.961,1.961,0,0,0-1.831,2.214c0,.269.03.556.046.844Z" transform="translate(-253.917 -59.209)" fill="#f9f9f9"/>
    <path id="Path_71" data-name="Path 71" d="M360.678,77.189v1.053h-.13V77.189H360.2V77.08h.823v.109Z" transform="translate(-276.693 -59.21)" fill="#f9f9f9"/>
    <path id="Path_72" data-name="Path 72" d="M365.534,78.249V77.187h0l-.332,1.062h-.1l-.327-1.062h0v1.062h-.116V77.09h.2l.3.927h0l.29-.927h.2v1.159Z" transform="translate(-280.119 -59.218)" fill="#f9f9f9"/>
    <path id="Path_73" data-name="Path 73" d="M158.5,37.246h-.8a5.33,5.33,0,0,0-.232-.927h-1.159a4.758,4.758,0,0,0-.232.927h-.751c0-.063.195-.6.582-1.593A12.707,12.707,0,0,0,156.494,34h.941a13.654,13.654,0,0,0,.526,1.623,13.713,13.713,0,0,1,.538,1.623Zm-1.159-1.391c-.283-.858-.427-1.321-.427-1.391h-.037c-.123.464-.271.927-.44,1.391Z" transform="translate(-119.319 -26.118)" fill="#fcfcfd"/>
    <path id="Path_74" data-name="Path 74" d="M173.915,37.238H173.3a6.066,6.066,0,0,0-.7-1.078,6.326,6.326,0,0,1-.818-1.407h-.039a8.79,8.79,0,0,1,.063.988c0,.41.012.911.035,1.5h-.612c.026-.515.037-1.078.037-1.695s0-1.122-.037-1.546h.74a4.678,4.678,0,0,0,.614,1.053,6.11,6.11,0,0,1,.754,1.328h.037a9.554,9.554,0,0,1-.06-1q0-.675-.035-1.391h.624c-.026.41-.035.927-.035,1.546S173.889,36.735,173.915,37.238Z" transform="translate(-131.533 -26.11)" fill="#fcfcfd"/>
    <path id="Path_75" data-name="Path 75" d="M189.27,35.539a1.855,1.855,0,0,1-.464,1.236,1.59,1.59,0,0,1-1.27.526c-.246,0-.584,0-1.015-.03.021-.5.03-1.066.032-1.695s0-1.12-.032-1.546h1.039a1.676,1.676,0,0,1,1.3.45A1.56,1.56,0,0,1,189.27,35.539Zm-.682.107a1.2,1.2,0,0,0-.278-.807,1.057,1.057,0,0,0-.851-.327,2.517,2.517,0,0,0-.294.023c.016.332.026.679.026,1.041s0,.791.023,1.18a1.693,1.693,0,0,0,.325.032.944.944,0,0,0,.793-.332,1.28,1.28,0,0,0,.257-.811Z" transform="translate(-143.278 -26.141)" fill="#fcfcfd"/>
    <path id="Path_76" data-name="Path 76" d="M204.027,37.253h-.737a4.982,4.982,0,0,0-.443-1.087.584.584,0,0,0-.5-.206h-.276c0,.427,0,.858.023,1.291h-.7q.032-.751.032-1.695,0-.906-.032-1.546h1.182c.763,0,1.145.262,1.143.784a.876.876,0,0,1-.651.862V35.7a.772.772,0,0,1,.44.392A8.556,8.556,0,0,1,204.027,37.253Zm-.927-2.291c0-.329-.211-.5-.638-.5a2.054,2.054,0,0,0-.413.035c.019.257.028.593.028,1.006h.232c.519,0,.784-.176.784-.542Z" transform="translate(-154.708 -26.125)" fill="#fcfcfd"/>
    <path id="Path_77" data-name="Path 77" d="M217.633,35.336a1.776,1.776,0,0,1-.464,1.268,1.514,1.514,0,0,1-1.159.5,1.465,1.465,0,0,1-1.1-.464,1.623,1.623,0,0,1-.443-1.175,1.783,1.783,0,0,1,.464-1.266,1.514,1.514,0,0,1,1.159-.5,1.477,1.477,0,0,1,1.1.464A1.623,1.623,0,0,1,217.633,35.336Zm-.7.074a1.308,1.308,0,0,0-.262-.846.825.825,0,0,0-.654-.332.763.763,0,0,0-.617.325,1.3,1.3,0,0,0-.255.825,1.278,1.278,0,0,0,.269.844.818.818,0,0,0,.656.325.753.753,0,0,0,.617-.329,1.291,1.291,0,0,0,.255-.811Z" transform="translate(-164.744 -25.886)" fill="#fcfcfd"/>
    <path id="Path_78" data-name="Path 78" d="M231.9,37.261h-.7c.023-.515.032-1.078.032-1.695s0-1.122-.032-1.546h.7c-.021.417-.033.927-.033,1.546S231.875,36.76,231.9,37.261Z" transform="translate(-177.6 -26.133)" fill="#fcfcfd"/>
    <path id="Path_79" data-name="Path 79" d="M240.66,35.539a1.855,1.855,0,0,1-.464,1.236,1.59,1.59,0,0,1-1.27.526c-.246,0-.584,0-1.015-.03q.032-.751.032-1.695,0-.906-.032-1.546h1.032a1.644,1.644,0,0,1,1.308.457A1.558,1.558,0,0,1,240.66,35.539Zm-.679.107a1.2,1.2,0,0,0-.278-.807,1.06,1.06,0,0,0-.844-.327,2.476,2.476,0,0,0-.292.023c.016.332.023.679.023,1.041s0,.791.025,1.18a1.691,1.691,0,0,0,.325.032.944.944,0,0,0,.793-.332A1.289,1.289,0,0,0,239.98,35.646Z" transform="translate(-182.754 -26.14)" fill="#fcfcfd"/>
    <path id="Path_80" data-name="Path 80" d="M259.937,37.261h-.8a5.121,5.121,0,0,0-.232-.927h-1.159a4.939,4.939,0,0,0-.232.927h-.749c0-.063.192-.6.582-1.593a12.514,12.514,0,0,0,.58-1.648h.944a13.665,13.665,0,0,0,.526,1.623A14.206,14.206,0,0,1,259.937,37.261Zm-1.159-1.4a13.947,13.947,0,0,1-.427-1.391h-.039c0,.065-.148.529-.44,1.391Z" transform="translate(-197.242 -26.133)" fill="#fcfcfd"/>
    <path id="Path_81" data-name="Path 81" d="M275.172,34.891a.967.967,0,0,1-.443.879,1.957,1.957,0,0,1-1.083.285h-.167c0,.311,0,.723.025,1.233h-.7c.021-.478.033-1.043.03-1.695q0-.9-.03-1.546h1.25a1.41,1.41,0,0,1,.8.216A.719.719,0,0,1,275.172,34.891Zm-.642.137c0-.355-.232-.533-.707-.533a2.235,2.235,0,0,0-.373.037c.019.315.025.67.025,1.066h.146c.6,0,.9-.185.9-.57Z" transform="translate(-209.563 -26.153)" fill="#fcfcfd"/>
    <path id="Path_82" data-name="Path 82" d="M288.02,34.853a.972.972,0,0,1-.441.879,1.963,1.963,0,0,1-1.085.285h-.167c0,.311,0,.723.028,1.233h-.7q.03-.716.032-1.695,0-.9-.032-1.546h.434l.341-.012h.464a1.41,1.41,0,0,1,.8.216A.721.721,0,0,1,288.02,34.853Zm-.642.137c0-.355-.232-.533-.707-.533a2.238,2.238,0,0,0-.373.037c.019.315.028.67.028,1.066h.144C287.077,35.564,287.378,35.374,287.378,34.989Z" transform="translate(-219.434 -26.115)" fill="#fcfcfd"/>
    <path id="Path_83" data-name="Path 83" d="M306.413,35.336a1.776,1.776,0,0,1-.464,1.268,1.514,1.514,0,0,1-1.159.5,1.46,1.46,0,0,1-1.1-.464,1.623,1.623,0,0,1-.445-1.175,1.8,1.8,0,0,1,.464-1.266,1.521,1.521,0,0,1,1.159-.5,1.477,1.477,0,0,1,1.1.464,1.623,1.623,0,0,1,.443,1.173Zm-.7.074a1.294,1.294,0,0,0-.267-.846.816.816,0,0,0-.64-.332.765.765,0,0,0-.619.325,1.3,1.3,0,0,0-.262.835,1.29,1.29,0,0,0,.267.844.826.826,0,0,0,.656.325.758.758,0,0,0,.619-.329,1.3,1.3,0,0,0,.253-.821Z" transform="translate(-232.942 -25.886)" fill="#fcfcfd"/>
    <path id="Path_84" data-name="Path 84" d="M322.582,37.246h-.614a6.062,6.062,0,0,0-.7-1.078,6.183,6.183,0,0,1-.816-1.407h-.039a8.785,8.785,0,0,1,.06.988c0,.41.012.911.037,1.5H319.9c.025-.515.037-1.078.037-1.695s-.014-1.122-.037-1.551h.74a4.674,4.674,0,0,0,.617,1.053,6.13,6.13,0,0,1,.754,1.335h.037a9.537,9.537,0,0,1-.06-1q0-.675-.035-1.391h.624c-.023.41-.035.927-.035,1.546S322.559,36.743,322.582,37.246Z" transform="translate(-245.736 -26.118)" fill="#fcfcfd"/>
  </g>
</svg>
