<svg id="Layer_2" data-name="Layer 2" xmlns="http://www.w3.org/2000/svg" xmlns:xlink="http://www.w3.org/1999/xlink" width="118.628" height="38.788" viewBox="0 0 118.628 38.788">
  <defs>
    <linearGradient id="linear-gradient" x1="0.5" y1="4.821" x2="0.5" y2="3.85" gradientUnits="objectBoundingBox">
      <stop offset="0" stop-color="#98d807"/>
      <stop offset="1" stop-color="#109b52"/>
    </linearGradient>
  </defs>
  <g id="Layer_1" data-name="Layer 1" transform="translate(0 0)">
    <path id="Path_40" data-name="Path 40" d="M118.789,33.547a5.242,5.242,0,0,1-5.242,5.242H5.452A5.242,5.242,0,0,1,.21,33.547V5.242A5.242,5.242,0,0,1,5.452,0h108.1a5.242,5.242,0,0,1,5.242,5.242Z" transform="translate(-0.161 0)" fill="#1d1d1b"/>
    <path id="Path_41" data-name="Path 41" d="M114.012,38.788H4.616A4.808,4.808,0,0,1,0,33.816V4.973A4.806,4.806,0,0,1,4.616,0h109.4a4.808,4.808,0,0,1,4.616,4.973V33.816A4.811,4.811,0,0,1,114.012,38.788ZM4.616,1.2a3.643,3.643,0,0,0-3.5,3.772V33.816a3.641,3.641,0,0,0,3.5,3.77h109.4a3.644,3.644,0,0,0,3.5-3.77V4.973a3.643,3.643,0,0,0-3.5-3.772Z" transform="translate(0 0)" fill="#a5a9a6"/>
    <path id="Path_42" data-name="Path 42" d="M263.866,58.653a1.825,1.825,0,0,1-1.825,1.827h-5.7a1.825,1.825,0,0,1-1.829-1.822V49.479a1.83,1.83,0,1,1,3.658-.072v7.419h3.874a1.829,1.829,0,0,1,1.829,1.829Z" transform="translate(-195.504 -36.575)" fill="#fff"/>
    <path id="Path_43" data-name="Path 43" d="M216.359,72.486v6.522a2.838,2.838,0,0,1-2.835,2.838h-4.637A1.88,1.88,0,0,1,207,80.011a1.829,1.829,0,0,1,1.829-1.829H212.7V72.539a1.855,1.855,0,0,1,1.692-1.876,1.829,1.829,0,0,1,1.959,1.7V72.5Z" transform="translate(-159.01 -54.277)" fill="#fff"/>
    <path id="Path_44" data-name="Path 44" d="M168.931,56.707V63.2a2.865,2.865,0,0,1-2.866,2.863H161.4a1.829,1.829,0,0,1-.074-3.656h3.941V56.763A1.878,1.878,0,0,1,167.1,54.88,1.829,1.829,0,0,1,168.931,56.707Z" transform="translate(-122.592 -42.157)" fill="#fff"/>
    <path id="Path_45" data-name="Path 45" d="M210.676,41.925V51.1a1.829,1.829,0,0,1-3.656,0V41.925a1.829,1.829,0,0,1,3.656,0Z" transform="translate(-159.025 -30.85)" fill="#fff"/>
    <circle id="Ellipse_1" data-name="Ellipse 1" cx="1.848" cy="1.848" r="1.848" transform="translate(53.677 11.077)" fill="#fff"/>
    <circle id="Ellipse_2" data-name="Ellipse 2" cx="1.848" cy="1.848" r="1.848" transform="translate(58.986 25.715)" fill="#fff"/>
    <path id="Path_46" data-name="Path 46" d="M323.792,66.018a2.5,2.5,0,0,1-.626,1.709,2.1,2.1,0,0,1-1.637.744h-1.2l-.148-.927H321.2a1.987,1.987,0,0,0,1.129-.313,1.136,1.136,0,0,0,.54-.992V63.326h.927Zm-.035-5.158a.626.626,0,0,1-.183.452.6.6,0,0,1-.445.183c-.464,0-.7-.211-.7-.635q0-.549.668-.549C323.549,60.31,323.767,60.493,323.757,60.859Z" transform="translate(-245.951 -46.328)" fill="#fff"/>
    <path id="Path_47" data-name="Path 47" d="M342.118,66.337h-.888V60.52h.888Z" transform="translate(-262.121 -46.489)" fill="#fff"/>
    <path id="Path_48" data-name="Path 48" d="M364.964,69.486a2.118,2.118,0,0,1-1.442-.355,1.473,1.473,0,0,1-.879.355h-4.78a1.171,1.171,0,0,1-.941-.464,1.558,1.558,0,0,1-.352-1.015v-1.37h.906v1.247a.779.779,0,0,0,.148.545.73.73,0,0,0,.529.153h4.222a.7.7,0,0,0,.519-.153.8.8,0,0,0,.144-.545V66.637h.927v1.245q0,.7,1,.7Zm-4.943-4.363a.489.489,0,0,1-.167.383.589.589,0,0,1-.4.151q-.647,0-.647-.536,0-.5.584-.5C359.812,64.622,360.021,64.789,360.021,65.123Zm1.75,0a.484.484,0,0,1-.169.383.591.591,0,0,1-.406.151c-.429,0-.645-.178-.645-.536s.2-.5.594-.5.624.169.624.5Z" transform="translate(-273.903 -49.639)" fill="#fff"/>
    <path id="Path_49" data-name="Path 49" d="M395.592,64.036a1.259,1.259,0,0,1-.427,1.018,1.479,1.479,0,0,1-1.041.413H391.4v-.9h2.733c.334,0,.5-.232.5-.679q-.7,0-1.6-.086a1.172,1.172,0,0,1-.751-1.236A1.423,1.423,0,0,1,392.7,61.5a1.47,1.47,0,0,1,1.076-.406,1.8,1.8,0,0,1,.988.294,1.774,1.774,0,0,1,.777,1.523Zm-1.013-1.011q-.035-1-.851-1c-.4,0-.6.16-.6.482,0,.255.074.415.232.464a2.249,2.249,0,0,0,.563.044Zm-.13-3.1a.6.6,0,0,1-.19.445.624.624,0,0,1-.464.185c-.445,0-.668-.211-.668-.631,0-.359.213-.54.64-.54s.67.181.67.54Z" transform="translate(-300.659 -45.621)" fill="#fff"/>
    <path id="Path_50" data-name="Path 50" d="M415.4,66.8a2.355,2.355,0,0,1-1.623-.447,1.224,1.224,0,0,1-.313-.941V61.12h.909v3.893c0,.42.07.677.211.77a2.2,2.2,0,0,0,.812.107Z" transform="translate(-317.602 -46.95)" fill="#fff"/>
    <path id="Path_51" data-name="Path 51" d="M423.439,74.69a1.568,1.568,0,0,1-.35,1.02,1.173,1.173,0,0,1-.948.464H420.2v-.9h1.66a.712.712,0,0,0,.524-.153.8.8,0,0,0,.148-.545V73.32h.909Zm-1.894,3.218a.491.491,0,0,1-.169.383.6.6,0,0,1-.406.151.71.71,0,0,1-.434-.137.476.476,0,0,1-.2-.4c0-.336.19-.5.575-.5C421.334,77.4,421.545,77.572,421.545,77.908Zm1.739,0a.485.485,0,0,1-.169.383.591.591,0,0,1-.406.151.71.71,0,0,1-.434-.137.482.482,0,0,1-.2-.4c0-.336.192-.5.575-.5C423.072,77.4,423.283,77.572,423.283,77.908Z" transform="translate(-322.783 -56.322)" fill="#fff"/>
    <path id="Path_52" data-name="Path 52" d="M439.168,76.012a2.515,2.515,0,0,1-.624,1.716,2.105,2.105,0,0,1-1.646.735h-1.21l-.148-.927h1.034a1.971,1.971,0,0,0,1.124-.313,1.131,1.131,0,0,0,.545-.992V73.32h.927Z" transform="translate(-334.566 -56.322)" fill="#fff"/>
    <path id="Path_53" data-name="Path 53" d="M458.622,69.92a1.078,1.078,0,0,1-.42.879,1.442,1.442,0,0,1-.927.308h-2.81l-.125-.9h2.88c.336,0,.5-.118.5-.355a.478.478,0,0,0-.134-.332l-2.045-2.172.612-.614,2.047,2.149A1.479,1.479,0,0,1,458.622,69.92Z" transform="translate(-349.008 -51.26)" fill="#fff"/>
    <path id="Path_54" data-name="Path 54" d="M58.5,33.114c-.879-.837-3.524-1.375-6.763-1.641h0a15.643,15.643,0,0,0-1.073-3.058C49.3,25.587,47.649,25,46.508,25s-2.782.584-4.194,3.362a15.68,15.68,0,0,0-1.127,3.014.9.9,0,0,1-.023.13c-3.459.274-6.2.849-6.76,1.678-.216.524.183,2.186.791,6.125,1.073,5.719,4.581,10.729,11.2,10.729,5.986,0,10.085-3.561,11.413-10.757C58.341,35.618,58.951,33.346,58.5,33.114ZM43.4,31.35a13.175,13.175,0,0,1,.809-2.038c.415-.816,1.268-2.2,2.3-2.2,1.391,0,2.52,2.55,3.014,4.226C47.51,31.26,45.393,31.26,43.4,31.35Z" transform="translate(-26.382 -19.204)" fill="url(#linear-gradient)"/>
  </g>
</svg>
