<svg id="Layer_2" data-name="Layer 2" xmlns="http://www.w3.org/2000/svg" width="118.579" height="38.788" viewBox="0 0 118.579 38.788">
  <g id="Layer_1" data-name="Layer 1">
    <path id="Path_16" data-name="Path 16" d="M118.579,33.547a5.242,5.242,0,0,1-5.242,5.242H5.242A5.242,5.242,0,0,1,0,33.547V5.242A5.242,5.242,0,0,1,5.242,0h108.1a5.242,5.242,0,0,1,5.242,5.242Z" fill="#1d1d1b"/>
    <path id="Path_17" data-name="Path 17" d="M50.336,62.554a4.834,4.834,0,0,1,2.3-4.05,4.931,4.931,0,0,0-3.89-2.1c-1.639-.174-3.225.981-4.059.981s-2.135-.964-3.519-.927A5.172,5.172,0,0,0,36.8,59.111c-1.885,3.267-.48,8.063,1.326,10.7.9,1.294,1.961,2.736,3.343,2.685s1.855-.862,3.478-.862,2.087.862,3.5.83c1.451-.023,2.365-1.3,3.246-2.6a10.7,10.7,0,0,0,1.481-3.014A4.662,4.662,0,0,1,50.336,62.554Z" transform="translate(-27.583 -43.311)" fill="#fff"/>
    <path id="Path_18" data-name="Path 18" d="M76.163,37.723a4.74,4.74,0,0,0,1.087-3.4,4.819,4.819,0,0,0-3.127,1.623,4.522,4.522,0,0,0-1.115,3.278A4.056,4.056,0,0,0,76.163,37.723Z" transform="translate(-56.063 -26.363)" fill="#fff"/>
    <path id="Path_19" data-name="Path 19" d="M175.63,88.4H173.74L172.7,85.151h-3.6l-.988,3.246H166.28l3.566-11.077h2.2Zm-3.246-4.618-.927-2.891c-.1-.3-.285-.992-.559-2.087h-.033c-.109.464-.283,1.159-.526,2.087l-.927,2.891Z" transform="translate(-127.73 -59.394)" fill="#fff"/>
    <path id="Path_20" data-name="Path 20" d="M220.68,94a4.528,4.528,0,0,1-1.1,3.22,3.222,3.222,0,0,1-2.448,1.055,2.445,2.445,0,0,1-2.267-1.134h-.035v4.208h-1.774v-8.61c0-.855-.023-1.732-.065-2.631h1.565l.1,1.266h.035a3.159,3.159,0,0,1,5.052-.313A4.394,4.394,0,0,1,220.68,94Zm-1.808.065a3.3,3.3,0,0,0-.526-1.922,1.815,1.815,0,0,0-1.544-.788,1.866,1.866,0,0,0-1.192.436,2.017,2.017,0,0,0-.7,1.143,2.379,2.379,0,0,0-.083.54v1.331a2.117,2.117,0,0,0,.536,1.472,1.767,1.767,0,0,0,1.391.6,1.811,1.811,0,0,0,1.56-.772A3.394,3.394,0,0,0,218.872,94.069Z" transform="translate(-163.611 -69.096)" fill="#fff"/>
    <path id="Path_21" data-name="Path 21" d="M260.26,94a4.528,4.528,0,0,1-1.1,3.22,3.223,3.223,0,0,1-2.448,1.055,2.445,2.445,0,0,1-2.267-1.134h-.033v4.208h-1.776v-8.61c0-.853-.021-1.732-.065-2.631h1.56l.1,1.266h.032a3.178,3.178,0,0,1,5.07-.313A4.436,4.436,0,0,1,260.26,94Zm-1.808.065a3.292,3.292,0,0,0-.51-1.922,1.815,1.815,0,0,0-1.544-.788,1.866,1.866,0,0,0-1.192.436,2.029,2.029,0,0,0-.7,1.143,2.4,2.4,0,0,0-.081.54v1.331a2.128,2.128,0,0,0,.531,1.472,1.771,1.771,0,0,0,1.391.6,1.81,1.81,0,0,0,1.56-.772,3.407,3.407,0,0,0,.55-2.04Z" transform="translate(-194.015 -69.095)" fill="#fff"/>
    <path id="Path_22" data-name="Path 22" d="M307.327,84.769a2.944,2.944,0,0,1-.983,2.3,4.366,4.366,0,0,1-3.014.969,5.246,5.246,0,0,1-2.87-.7l.413-1.477a4.848,4.848,0,0,0,2.564.7A2.432,2.432,0,0,0,305,86.1a1.486,1.486,0,0,0,.556-1.21,1.553,1.553,0,0,0-.464-1.138,4.341,4.341,0,0,0-1.528-.856q-2.909-1.076-2.909-3.176a2.812,2.812,0,0,1,1.02-2.237,4.092,4.092,0,0,1,2.713-.844,5.441,5.441,0,0,1,2.513.526l-.445,1.447a4.381,4.381,0,0,0-2.119-.51,2.165,2.165,0,0,0-1.463.464,1.319,1.319,0,0,0-.433,1,1.342,1.342,0,0,0,.51,1.083,5.6,5.6,0,0,0,1.609.855,5.519,5.519,0,0,1,2.105,1.347A2.838,2.838,0,0,1,307.327,84.769Z" transform="translate(-230.803 -58.871)" fill="#fff"/>
    <path id="Path_23" data-name="Path 23" d="M339.295,85.4h-1.943v3.876c0,.99.345,1.479,1.036,1.479a3.11,3.11,0,0,0,.788-.081l.03,1.359a3.941,3.941,0,0,1-1.391.2,2.114,2.114,0,0,1-1.623-.661,3.148,3.148,0,0,1-.594-2.154V85.4H334.44V84.067H335.6V82.606l1.743-.526v1.987H339.3Z" transform="translate(-256.905 -63.051)" fill="#fff"/>
    <path id="Path_24" data-name="Path 24" d="M367.546,94.019a4.311,4.311,0,0,1-1.053,3.014,3.743,3.743,0,0,1-2.926,1.215,3.586,3.586,0,0,1-2.8-1.159,4.242,4.242,0,0,1-1.036-2.937,4.348,4.348,0,0,1,1.076-3.039,3.729,3.729,0,0,1,2.9-1.182,3.661,3.661,0,0,1,2.826,1.159A4.234,4.234,0,0,1,367.546,94.019Zm-1.841.058a3.586,3.586,0,0,0-.478-1.9,1.751,1.751,0,0,0-1.593-.955,1.778,1.778,0,0,0-1.623.955,3.656,3.656,0,0,0-.475,1.929A3.6,3.6,0,0,0,362.012,96a1.811,1.811,0,0,0,3.2-.016A3.585,3.585,0,0,0,365.7,94.077Z" transform="translate(-276.33 -69.078)" fill="#fff"/>
    <path id="Path_25" data-name="Path 25" d="M404.15,91.712a2.65,2.65,0,0,0-.559-.051,1.671,1.671,0,0,0-1.447.7,2.651,2.651,0,0,0-.45,1.59v4.189h-1.774l.016-5.471q0-1.391-.067-2.515h1.546l.065,1.528h.042a2.742,2.742,0,0,1,.888-1.264A2.135,2.135,0,0,1,403.7,90a2.379,2.379,0,0,1,.445.032Z" transform="translate(-307.166 -69.133)" fill="#fff"/>
    <path id="Path_26" data-name="Path 26" d="M429.029,93.674a4.044,4.044,0,0,1-.065.8h-5.332a2.314,2.314,0,0,0,.772,1.808,2.643,2.643,0,0,0,1.741.561,5.991,5.991,0,0,0,2.154-.378l.285,1.24a6.615,6.615,0,0,1-2.675.494,3.887,3.887,0,0,1-2.919-1.092,4.084,4.084,0,0,1-1.06-2.935,4.592,4.592,0,0,1,.988-3.014,3.41,3.41,0,0,1,2.782-1.28,2.971,2.971,0,0,1,2.615,1.28A4.329,4.329,0,0,1,429.029,93.674Zm-1.692-.464a2.4,2.4,0,0,0-.353-1.359,1.553,1.553,0,0,0-1.414-.742,1.681,1.681,0,0,0-1.412.726,2.632,2.632,0,0,0-.524,1.377Z" transform="translate(-324.109 -69.044)" fill="#fff"/>
    <path id="Path_27" data-name="Path 27" d="M175.284,39.2a2.732,2.732,0,0,1-.881,2.212,3.467,3.467,0,0,1-2.318.7,10.666,10.666,0,0,1-1.275-.065V36.684a9.867,9.867,0,0,1,1.5-.114,3.231,3.231,0,0,1,2.156.624A2.5,2.5,0,0,1,175.284,39.2Zm-.927.023a1.773,1.773,0,0,0-1.978-1.971,3.675,3.675,0,0,0-.7.058v4.069a4.532,4.532,0,0,0,.589.023,2.063,2.063,0,0,0,1.546-.556,2.226,2.226,0,0,0,.545-1.623Z" transform="translate(-131.21 -28.092)" fill="#fff"/>
    <path id="Path_28" data-name="Path 28" d="M198.375,45a2.151,2.151,0,0,1-.517,1.486,1.836,1.836,0,0,1-1.43.6,1.746,1.746,0,0,1-1.391-.584,2.086,2.086,0,0,1-.512-1.444,2.133,2.133,0,0,1,.529-1.5,1.834,1.834,0,0,1,1.435-.568,1.8,1.8,0,0,1,1.391.573A2.087,2.087,0,0,1,198.375,45Zm-.9.028a1.786,1.786,0,0,0-.232-.927.906.906,0,0,0-1.581,0,1.794,1.794,0,0,0-.232.948,1.747,1.747,0,0,0,.232.927.89.89,0,0,0,1.208.366.872.872,0,0,0,.366-.366,1.781,1.781,0,0,0,.232-.955Z" transform="translate(-149.425 -33.021)" fill="#fff"/>
    <path id="Path_29" data-name="Path 29" d="M220.507,43.252l-1.229,3.925h-.8l-.51-1.7c-.125-.417-.232-.842-.315-1.27h-.012a9.5,9.5,0,0,1-.315,1.27l-.542,1.7h-.807l-1.159-3.925h.911l.443,1.855c.107.441.2.86.267,1.259h.016q.1-.487.322-1.252l.559-1.873h.712l.533,1.834c.13.447.232.876.315,1.291h.023a13.022,13.022,0,0,1,.267-1.291l.478-1.834Z" transform="translate(-165.017 -33.215)" fill="#fff"/>
    <path id="Path_30" data-name="Path 30" d="M247.52,46.991h-.872V44.744q0-1.039-.791-1.036a.786.786,0,0,0-.621.283,1.02,1.02,0,0,0-.232.675v2.318h-.874V44.2c0-.348,0-.719-.03-1.124h.765l.042.612h.023a1.276,1.276,0,0,1,.464-.464,1.486,1.486,0,0,1,.77-.227,1.261,1.261,0,0,1,.913.355,1.73,1.73,0,0,1,.464,1.3Z" transform="translate(-187.509 -33.029)" fill="#fff"/>
    <path id="Path_31" data-name="Path 31" d="M266.342,41.254h-.872V35.53h.872Z" transform="translate(-203.925 -27.293)" fill="#fff"/>
    <path id="Path_32" data-name="Path 32" d="M278.63,44.991a2.164,2.164,0,0,1-.517,1.486,1.855,1.855,0,0,1-1.437.6A1.757,1.757,0,0,1,275.3,46.5a2.086,2.086,0,0,1-.512-1.444,2.137,2.137,0,0,1,.529-1.5,1.825,1.825,0,0,1,1.423-.58,1.783,1.783,0,0,1,1.391.573A2.073,2.073,0,0,1,278.63,44.991Zm-.907.028a1.785,1.785,0,0,0-.232-.927.906.906,0,0,0-1.581,0,1.8,1.8,0,0,0-.232.948,1.749,1.749,0,0,0,.232.927.89.89,0,0,0,1.208.366.872.872,0,0,0,.366-.366,1.74,1.74,0,0,0,.232-.955Z" transform="translate(-211.078 -33.016)" fill="#fff"/>
    <path id="Path_33" data-name="Path 33" d="M298.938,46.951h-.781l-.067-.464h-.023a1.34,1.34,0,0,1-1.145.563,1.175,1.175,0,0,1-.9-.355,1.117,1.117,0,0,1-.294-.8,1.222,1.222,0,0,1,.6-1.1,3.158,3.158,0,0,1,1.692-.373V44.35c0-.515-.271-.774-.814-.774a1.855,1.855,0,0,0-1.022.29L296,43.292a2.528,2.528,0,0,1,1.345-.345q1.537,0,1.539,1.623v1.444A6.021,6.021,0,0,0,298.938,46.951Zm-.9-1.349V45c-.962-.016-1.442.248-1.444.791a.582.582,0,0,0,.169.464.6.6,0,0,0,.424.153.858.858,0,0,0,.533-.181.735.735,0,0,0,.318-.617Z" transform="translate(-227.166 -32.99)" fill="#fff"/>
    <path id="Path_34" data-name="Path 34" d="M318.6,41.254h-.772l-.042-.631h-.025a1.3,1.3,0,0,1-1.259.719,1.467,1.467,0,0,1-1.178-.556,2.148,2.148,0,0,1-.464-1.444,2.284,2.284,0,0,1,.494-1.542,1.577,1.577,0,0,1,1.217-.538,1.17,1.17,0,0,1,1.1.533h.016V35.53h.874v4.665A10.159,10.159,0,0,0,318.6,41.254Zm-.9-1.655v-.654a1.216,1.216,0,0,0-.023-.274,1.02,1.02,0,0,0-.315-.531.855.855,0,0,0-.584-.211.89.89,0,0,0-.774.385,1.684,1.684,0,0,0-.278.995,1.552,1.552,0,0,0,.278.944.9.9,0,0,0,.747.387.83.83,0,0,0,.7-.322,1.062,1.062,0,0,0,.246-.719Z" transform="translate(-241.862 -27.293)" fill="#fff"/>
    <path id="Path_35" data-name="Path 35" d="M350.375,45a2.152,2.152,0,0,1-.517,1.486,1.855,1.855,0,0,1-1.43.6,1.753,1.753,0,0,1-1.391-.584,2.086,2.086,0,0,1-.512-1.444,2.145,2.145,0,0,1,.529-1.5,1.834,1.834,0,0,1,1.435-.568,1.8,1.8,0,0,1,1.391.573A2.069,2.069,0,0,1,350.375,45Zm-.9.028a1.787,1.787,0,0,0-.232-.927.863.863,0,0,0-.784-.464.874.874,0,0,0-.8.464,1.815,1.815,0,0,0-.232.948,1.774,1.774,0,0,0,.232.927.89.89,0,0,0,1.577,0,1.78,1.78,0,0,0,.232-.955Z" transform="translate(-266.187 -33.021)" fill="#fff"/>
    <path id="Path_36" data-name="Path 36" d="M372.009,47.014h-.872V44.768q0-1.039-.79-1.036a.786.786,0,0,0-.631.283,1.02,1.02,0,0,0-.232.675v2.318h-.874V44.225c0-.348,0-.719-.03-1.124h.765l.042.612h.023a1.292,1.292,0,0,1,.452-.464,1.493,1.493,0,0,1,.793-.22,1.268,1.268,0,0,1,.911.355,1.727,1.727,0,0,1,.464,1.3Z" transform="translate(-283.13 -33.053)" fill="#fff"/>
    <path id="Path_37" data-name="Path 37" d="M400.782,40.71h-.974v1.906c0,.485.172.728.51.728a1.368,1.368,0,0,0,.387-.042l.023.663a1.855,1.855,0,0,1-.677.1,1.036,1.036,0,0,1-.807-.315,1.542,1.542,0,0,1-.29-1.057V40.71h-.575v-.654h.575V39.34l.853-.26v.976h.974Z" transform="translate(-306.021 -30.02)" fill="#fff"/>
    <path id="Path_38" data-name="Path 38" d="M417.318,41.254h-.874V39.035c0-.7-.262-1.055-.79-1.055a.839.839,0,0,0-.832.591,1.1,1.1,0,0,0-.039.313v2.369h-.872V35.53h.872v2.365h.016a1.322,1.322,0,0,1,1.178-.633,1.224,1.224,0,0,1,.909.357,1.785,1.785,0,0,1,.445,1.317Z" transform="translate(-317.951 -27.293)" fill="#fff"/>
    <path id="Path_39" data-name="Path 39" d="M437.6,44.818a2.066,2.066,0,0,1-.032.394H434.95a1.159,1.159,0,0,0,.378.888,1.312,1.312,0,0,0,.858.276,2.988,2.988,0,0,0,1.057-.185l.137.605a3.366,3.366,0,0,1-1.317.232,1.913,1.913,0,0,1-1.431-.536,1.972,1.972,0,0,1-.522-1.442,2.263,2.263,0,0,1,.482-1.465,1.683,1.683,0,0,1,1.372-.631,1.468,1.468,0,0,1,1.282.631A2.117,2.117,0,0,1,437.6,44.818Zm-.832-.232a1.158,1.158,0,0,0-.169-.67.758.758,0,0,0-.7-.364.825.825,0,0,0-.7.357,1.309,1.309,0,0,0-.253.677Z" transform="translate(-333.467 -32.994)" fill="#fff"/>
  </g>
</svg>
