<svg id="_22_Icons_Line_Search" data-name="22) Icons/Line/Search" xmlns="http://www.w3.org/2000/svg" xmlns:xlink="http://www.w3.org/1999/xlink" width="40.848" height="40.848" viewBox="0 0 40.848 40.848">
  <defs>
    <clipPath id="clip-path">
      <path id="Mask" d="M28.792,30.848a2.045,2.045,0,0,1-1.456-.6l-4.319-4.319a14.393,14.393,0,1,1,2.909-2.909l4.319,4.319a2.057,2.057,0,0,1-1.454,3.512ZM14.4,4.113A10.282,10.282,0,1,0,24.677,14.395,10.294,10.294,0,0,0,14.4,4.113Z" fill="#222b45"/>
    </clipPath>
  </defs>
  <g id="Group_68" data-name="Group 68" transform="translate(5 5)">
    <path id="Mask-2" data-name="Mask" d="M28.792,30.848a2.045,2.045,0,0,1-1.456-.6l-4.319-4.319a14.393,14.393,0,1,1,2.909-2.909l4.319,4.319a2.057,2.057,0,0,1-1.454,3.512ZM14.4,4.113A10.282,10.282,0,1,0,24.677,14.395,10.294,10.294,0,0,0,14.4,4.113Z" fill="#222b45"/>
  </g>
</svg>
