<svg id="Layer_2" data-name="Layer 2" xmlns="http://www.w3.org/2000/svg" width="45.245" height="45.245" viewBox="0 0 45.245 45.245">
  <g id="Layer_1" data-name="Layer 1">
    <path id="Path_197" data-name="Path 197" d="M22.652,0A22.622,22.622,0,1,0,45.275,22.624,22.622,22.622,0,0,0,22.652,0ZM35.671,27.436a4.623,4.623,0,0,1-4.7,4.623H14.3a4.588,4.588,0,0,1-2.623-.757,4.524,4.524,0,0,1-2.04-3.4,4.692,4.692,0,0,1,0-.5V18.393a4.594,4.594,0,0,1,4.681-4.623H30.979a4.582,4.582,0,0,1,2.433.63,4.519,4.519,0,0,1,2.23,3.438,4.749,4.749,0,0,1,.035.578C35.677,21.409,35.689,24.42,35.671,27.436Z" transform="translate(-0.03)" fill="#fff"/>
    <path id="Path_198" data-name="Path 198" d="M41.013,37.085c0,.116-.139.133-.225.179l-2.051,1.1c-.5.266-.994.532-1.5.792-.676.358-1.352.711-2.022,1.075-.173.092-.347.191-.526.272s-.168,0-.173-.1,0-.191,0-.335c.075-.982,0-2.017.035-3.051s0-2.057,0-3.08v-.1c0-.116.064-.139.173-.087L36.737,34.8l1.092.549c.618.324,1.237.659,1.861.982l1.086.578C40.869,36.935,41.007,36.969,41.013,37.085Z" transform="translate(-14.588 -14.237)" fill="#fff"/>
  </g>
</svg>
