<svg id="Layer_2" data-name="Layer 2" xmlns="http://www.w3.org/2000/svg" width="45.251" height="45.245" viewBox="0 0 45.251 45.245">
  <g id="Layer_1" data-name="Layer 1" transform="translate(0 0)">
    <path id="Path_190" data-name="Path 190" d="M45.244,11.514v-.262c-.123-.5-.061-1.019-.184-1.52a12.508,12.508,0,0,0-3.826-6.516A11.812,11.812,0,0,0,33.11,0H12.326A11.277,11.277,0,0,0,9.1.393a12.524,12.524,0,0,0-6.421,4.3A12.146,12.146,0,0,0,0,12.622c.045,6.738,0,13.471,0,20.232a11.7,11.7,0,0,0,.8,4.522,12.53,12.53,0,0,0,6.566,6.861,11.026,11.026,0,0,0,3.809,1h.356c.067-.078.161-.039.245-.05a.216.216,0,0,1,.195.05H33.243c.05-.061.123-.045.189-.05h.15a.252.252,0,0,1,.189.05h.195a.161.161,0,0,1,.117-.05,10.475,10.475,0,0,0,4.9-1.5,11.951,11.951,0,0,0,3.135-2.534A12.252,12.252,0,0,0,44.2,38a11.661,11.661,0,0,0,1.036-3.9v-.356c-.139-.05-.067-.161-.067-.256s0-.145.067-.178V11.96c-.084-.033-.084-.106-.067-.184S45.1,11.57,45.244,11.514Zm-4,11.138v9.84a8.459,8.459,0,0,1-1.576,5.174A8.353,8.353,0,0,1,32.6,41.208H12.7a8.431,8.431,0,0,1-8.186-5.742,8.688,8.688,0,0,1-.451-2.946q0-9.89,0-19.77A8.454,8.454,0,0,1,9.843,4.492a8.827,8.827,0,0,1,2.963-.44H32.525A8.442,8.442,0,0,1,40.784,9.81a9.066,9.066,0,0,1,.457,3.035c.006,3.263,0,6.532,0,9.8Z" transform="translate(0.007 0.005)" fill="#fff"/>
    <path id="Path_191" data-name="Path 191" d="M59.7,81.166c.033-.084.106-.089.178-.072s.033.033,0,.05h0Z" transform="translate(-26.45 -35.927)" fill="#fff"/>
    <path id="Path_192" data-name="Path 192" d="M60,81.172V81.1h.178s.033.033,0,.05a.028.028,0,0,1-.028,0Z" transform="translate(-26.583 -35.933)" fill="#fff"/>
    <path id="Path_193" data-name="Path 193" d="M60.33,81.161v-.072c0-.022.15-.033.173.072Z" transform="translate(-26.729 -35.922)" fill="#fff"/>
    <path id="Path_194" data-name="Path 194" d="M31.406,19.74A11.65,11.65,0,1,0,43.1,31.368,11.65,11.65,0,0,0,31.406,19.74Zm.045,19.28a7.629,7.629,0,1,1,7.607-7.641A7.629,7.629,0,0,1,31.45,39.02Z" transform="translate(-8.77 -8.744)" fill="#fff"/>
    <path id="Path_195" data-name="Path 195" d="M63.062,16.656a2.946,2.946,0,1,1-2.935-2.946A2.946,2.946,0,0,1,63.062,16.656Z" transform="translate(-25.329 -6.072)" fill="#fff"/>
  </g>
</svg>
