<svg id="Layer_2" data-name="Layer 2" xmlns="http://www.w3.org/2000/svg" width="44.742" height="44.582" viewBox="0 0 44.742 44.582">
  <g id="Layer_1" data-name="Layer 1" transform="translate(0 0)">
    <path id="Path_189" data-name="Path 189" d="M44.29,18A22.254,22.254,0,0,0,18.935.24C6.561,1.961-2.194,14.513.485,26.686c2.111,9.6,9.161,16.15,18.934,17.731.713.111.813-.045.8-.679V29.515c0-2.6,0-2.6-2.6-2.6-2.868,0-2.846,0-2.74-2.835,0-.585.184-.78.774-.763,1.281.039,2.562,0,3.837.028.59,0,.763-.156.746-.752q-.061-2.6,0-5.2c.095-3.386,1.776-5.714,4.628-6.41a14.719,14.719,0,0,1,5.274-.134c.317.039.518.095.59.5.362,2.15.095,2.5-2.033,2.506a3.827,3.827,0,0,0-4.193,3.4c-.412,1.86-.123,3.748-.212,5.619,0,.557.345.468.674.468H29.7c.557,0,.841.089.707.735-.156.735-.262,1.481-.345,2.228-.05.557-.29.663-.807.646-1.353-.033-2.706.033-4.06-.028-.741-.033-.93.184-.924.924.039,4.667,0,9.328.028,13.995,0,.9-.4,2.161.178,2.578s1.671-.134,2.578-.3C38.732,41.851,46.779,29.649,44.29,18Zm-17,23.946c-.852.217-1,0-.991-.8q.05-5.647,0-11.283c0-.741.184-.963.924-.93,1.242.067,2.484,0,3.726,0,.462,0,.752-.033.83-.618.278-2.122.557-4.244.963-6.343.134-.741-.184-.7-.679-.7-1.671,0-3.313-.028-4.967,0-.663,0-.835-.206-.791-.824A12.448,12.448,0,0,1,26.57,17.2a1.749,1.749,0,0,1,1.893-1.4c1.2.045,2.411,0,3.614,0,.5,0,.635-.15.629-.64V9.634c0-.362,0-.613-.5-.668-2.734-.306-5.474-.652-8.175.123-3.341.952-5.012,3.341-5.608,6.683a20.243,20.243,0,0,0-.206,4.494c0,.763-.128,1.069-.963,1.014-1.2-.078-2.411,0-3.614-.033-.523,0-.73.117-.718.685q.039,3.158,0,6.315c0,.557.2.685.718.674,1.275-.039,2.556,0,3.837,0,.39,0,.73-.045.73.557v12.6a20.285,20.285,0,0,1,1.325-39.94,20.3,20.3,0,0,1,7.752,39.812Z" transform="translate(-0.001 -0.001)" fill="#fff"/>
  </g>
</svg>
