<svg id="_22_Icons_Line_Cart" data-name="22) Icons/Line/Cart" xmlns="http://www.w3.org/2000/svg" width="53.114" height="53.114" viewBox="0 0 53.114 53.114">
  <path id="Shape" d="M28.343,35.409a2.959,2.959,0,1,1,2.743-2.952A2.856,2.856,0,0,1,28.343,35.409Zm-18.287,0a2.959,2.959,0,0,1,0-5.9,2.959,2.959,0,0,1,0,5.9Zm.854-9.834a1.861,1.861,0,0,1-1.768-1.457L4.1,3.935H1.828A1.9,1.9,0,0,1,0,1.967,1.9,1.9,0,0,1,1.828,0H5.55A1.858,1.858,0,0,1,7.314,1.455L8.375,5.9H31.781a3.643,3.643,0,0,1,3.107,1.968,4.187,4.187,0,0,1,.165,3.719l-6,12.9a1.812,1.812,0,0,1-1.627,1.084H10.91ZM9.381,9.837l2.98,11.8H26.294l5.487-11.8Z" transform="translate(8.852 8.853)" fill="#28aade"/>
</svg>
