<svg id="Layer_2" data-name="Layer 2" xmlns="http://www.w3.org/2000/svg" width="32.086" height="32.077" viewBox="0 0 32.086 32.077">
  <g id="Layer_1" data-name="Layer 1" transform="translate(0 0)">
    <path id="Path_449" data-name="Path 449" d="M27.458,32.076a4.566,4.566,0,0,1-4.513-5.244.347.347,0,0,0-.232-.446Q15.483,22.8,8.265,19.156a.316.316,0,0,0-.446.08,4.549,4.549,0,0,1-5.137.989,4.522,4.522,0,0,1-2.7-4.491,4.362,4.362,0,0,1,2.936-3.956,4.375,4.375,0,0,1,4.825,1,.446.446,0,0,0,.619.094L22.619,5.742a.446.446,0,0,0,.294-.566,4.588,4.588,0,1,1,6.317,3.644,4.531,4.531,0,0,1-4.958-.958.446.446,0,0,0-.624-.089L9.392,14.9c-.267.134-.361.272-.294.57a3.119,3.119,0,0,1,0,1.279.3.3,0,0,0,.2.383q7.257,3.613,14.51,7.257c.209.107.285,0,.41-.1a4.576,4.576,0,1,1,3.239,7.787Z" transform="translate(0.03 0.001)" fill="#95c11f"/>
  </g>
</svg>
