<svg id="_22_Icons" data-name="22) Icons" xmlns="http://www.w3.org/2000/svg" width="37.696" height="35.554" viewBox="0 0 37.696 35.554">
  <path id="_Icon_Color" data-name="🎨 Icon Color" d="M24.442,28.081a1.65,1.65,0,0,1-.727-.167l-8.009-3.947L7.7,27.913A1.653,1.653,0,0,1,6.046,27.8a1.44,1.44,0,0,1-.622-1.449L6.949,18.01l-6.471-5.9a1.426,1.426,0,0,1-.4-1.521A1.545,1.545,0,0,1,1.345,9.576L10.3,8.349l4-7.594a1.687,1.687,0,0,1,2.813,0l4,7.594,8.953,1.227a1.545,1.545,0,0,1,1.269,1.009,1.426,1.426,0,0,1-.4,1.521l-6.471,5.9,1.525,8.338a1.443,1.443,0,0,1-.622,1.449,1.622,1.622,0,0,1-.925.284" transform="translate(3.142 3.031)" fill="none" stroke="#95c11f" stroke-miterlimit="10" stroke-width="1"/>
</svg>
