<svg id="Layer_2" data-name="Layer 2" xmlns="http://www.w3.org/2000/svg" width="32.559" height="32.554" viewBox="0 0 32.559 32.554">
  <g id="Layer_1" data-name="Layer 1" transform="translate(0 0)">
    <path id="Path_190" data-name="Path 190" d="M32.552,8.283V8.095c-.088-.361-.044-.733-.132-1.094a9,9,0,0,0-2.753-4.688A8.5,8.5,0,0,0,23.821,0H8.867a8.114,8.114,0,0,0-2.32.284,9.012,9.012,0,0,0-4.62,3.093A8.739,8.739,0,0,0,0,9.081c.032,4.848,0,9.693,0,14.557a8.415,8.415,0,0,0,.577,3.254A9.016,9.016,0,0,0,5.3,31.828a7.934,7.934,0,0,0,2.741.721h.256c.048-.056.116-.028.176-.036a.155.155,0,0,1,.14.036H23.917c.036-.044.088-.032.136-.036h.108a.182.182,0,0,1,.136.036h.14a.116.116,0,0,1,.084-.036,7.537,7.537,0,0,0,3.522-1.082A8.6,8.6,0,0,0,30.3,29.608a8.815,8.815,0,0,0,1.5-2.268,8.39,8.39,0,0,0,.745-2.8v-.256c-.1-.036-.048-.116-.048-.184s0-.1.048-.128V8.6c-.06-.024-.06-.076-.048-.132S32.452,8.323,32.552,8.283ZM29.671,16.3v7.08A6.086,6.086,0,0,1,28.537,27.1a6.01,6.01,0,0,1-5.085,2.548H9.136a6.066,6.066,0,0,1-5.89-4.131,6.251,6.251,0,0,1-.325-2.12q0-7.116,0-14.225A6.082,6.082,0,0,1,7.08,3.231a6.351,6.351,0,0,1,2.132-.317H23.4a6.074,6.074,0,0,1,5.942,4.143,6.523,6.523,0,0,1,.329,2.184c0,2.348,0,4.7,0,7.048Z" transform="translate(0.007 0.005)" fill="#95c11f"/>
    <path id="Path_191" data-name="Path 191" d="M59.7,81.144c.024-.06.076-.064.128-.052s.024.024,0,.036h0Z" transform="translate(-35.776 -48.594)" fill="#95c11f"/>
    <path id="Path_192" data-name="Path 192" d="M60,81.152V81.1h.128s.024.024,0,.036a.02.02,0,0,1-.02,0Z" transform="translate(-35.956 -48.602)" fill="#95c11f"/>
    <path id="Path_193" data-name="Path 193" d="M60.33,81.136v-.052c0-.016.108-.024.124.052Z" transform="translate(-36.153 -48.586)" fill="#95c11f"/>
    <path id="Path_194" data-name="Path 194" d="M28.15,19.74a8.382,8.382,0,1,0,8.415,8.366A8.382,8.382,0,0,0,28.15,19.74Zm.032,13.872a5.489,5.489,0,1,1,5.473-5.5A5.489,5.489,0,0,1,28.182,33.612Z" transform="translate(-11.863 -11.828)" fill="#95c11f"/>
    <path id="Path_195" data-name="Path 195" d="M61.409,15.83A2.12,2.12,0,1,1,59.3,13.71,2.12,2.12,0,0,1,61.409,15.83Z" transform="translate(-34.26 -8.214)" fill="#95c11f"/>
  </g>
</svg>
