<svg xmlns="http://www.w3.org/2000/svg" width="32.554" height="32.554" viewBox="0 0 32.554 32.554">
  <g id="Layer_2" data-name="Layer 2" transform="translate(0)">
    <g id="Layer_1" data-name="Layer 1">
      <path id="Path_197" data-name="Path 197" d="M16.307,0A16.277,16.277,0,1,0,32.584,16.279,16.277,16.277,0,0,0,16.307,0Zm9.367,19.741a3.326,3.326,0,0,1-3.38,3.326h-12a3.3,3.3,0,0,1-1.888-.545A3.255,3.255,0,0,1,6.94,20.077a3.376,3.376,0,0,1,0-.358V13.234a3.305,3.305,0,0,1,3.368-3.326H22.3a3.3,3.3,0,0,1,1.75.453,3.251,3.251,0,0,1,1.6,2.474,3.417,3.417,0,0,1,.025.416C25.679,15.4,25.687,17.57,25.674,19.741Z" transform="translate(-0.03)" fill="#95c11f"/>
      <path id="Path_198" data-name="Path 198" d="M39.191,36.142c0,.083-.1.1-.162.129l-1.476.79c-.358.191-.715.383-1.077.57-.486.258-.973.511-1.455.773-.125.067-.249.137-.378.2s-.121,0-.125-.071,0-.137,0-.241c.054-.707,0-1.451.025-2.2s0-1.48,0-2.216v-.071c0-.083.046-.1.125-.062l1.447.757.786.395c.445.233.89.474,1.339.707l.782.416C39.087,36.034,39.186,36.059,39.191,36.142Z" transform="translate(-20.178 -19.703)" fill="#95c11f"/>
    </g>
  </g>
</svg>
