<svg id="Layer_2" data-name="Layer 2" xmlns="http://www.w3.org/2000/svg" width="32.193" height="32.077" viewBox="0 0 32.193 32.077">
  <g id="Layer_1" data-name="Layer 1" transform="translate(0 0)">
    <path id="Path_189" data-name="Path 189" d="M31.867,12.951A16.066,16.066,0,1,0,13.973,31.959c.513.08.585-.032.577-.489V21.237c0-1.871,0-1.871-1.871-1.871-2.064,0-2.048,0-1.971-2.04,0-.421.132-.561.557-.549.922.028,1.843,0,2.761.02.425,0,.549-.112.537-.541q-.044-1.867,0-3.738c.068-2.436,1.278-4.111,3.33-4.612a10.59,10.59,0,0,1,3.795-.1c.228.028.373.068.425.361.26,1.547.068,1.8-1.463,1.8a2.753,2.753,0,0,0-3.017,2.448,23.508,23.508,0,0,0-.152,4.043c0,.4.248.337.485.337h3.41c.4,0,.605.064.509.529-.112.529-.188,1.066-.248,1.6-.036.4-.208.477-.581.465-.974-.024-1.947.024-2.921-.02-.533-.024-.669.132-.665.665.028,3.358,0,6.712.02,10.069,0,.645-.288,1.555.128,1.855s1.2-.1,1.855-.216A16.126,16.126,0,0,0,31.867,12.951ZM19.634,30.18c-.613.156-.721,0-.713-.577q.036-4.063,0-8.118c0-.533.132-.693.665-.669.894.048,1.787,0,2.681,0,.333,0,.541-.024.6-.445.2-1.527.4-3.053.693-4.564.1-.533-.132-.5-.489-.5-1.2,0-2.384-.02-3.574,0-.477,0-.6-.148-.569-.593a8.957,8.957,0,0,1,.192-2.332,1.258,1.258,0,0,1,1.362-1.006c.865.032,1.735,0,2.6,0,.361,0,.457-.108.453-.461V6.932c0-.26,0-.441-.357-.481a14.981,14.981,0,0,0-5.882.088,5.507,5.507,0,0,0-4.035,4.808,14.565,14.565,0,0,0-.148,3.234c0,.549-.092.769-.693.729-.865-.056-1.735,0-2.6-.024-.377,0-.525.084-.517.493q.028,2.272,0,4.544c0,.4.144.493.517.485.918-.028,1.839,0,2.761,0,.28,0,.525-.032.525.4v9.064a14.6,14.6,0,0,1,.954-28.738A14.609,14.609,0,0,1,19.634,30.18Z" transform="translate(-0.001 -0.001)" fill="#95c11f"/>
  </g>
</svg>
