<svg id="Group_79" data-name="Group 79" xmlns="http://www.w3.org/2000/svg" width="115.148" height="106.927" viewBox="0 0 115.148 106.927">
  <path id="Path_428" data-name="Path 428" d="M109.928,123.136H31.188c-7.678,0-13.5-2.731-16.387-7.627s-2.422-11.337,1.34-17.984L56.026,26.618c3.762-6.7,8.915-10.409,14.48-10.409h0c5.565,0,10.719,3.71,14.48,10.409l39.885,70.907c3.762,6.7,4.226,13.089,1.34,17.984C123.429,120.4,117.606,123.136,109.928,123.136ZM70.558,19.867c-4.174,0-8.193,3.04-11.234,8.5L19.439,99.277c-3.092,5.462-3.556,10.564-1.391,14.326s6.854,5.823,13.14,5.823h78.74c6.287,0,10.976-2.061,13.141-5.823s1.7-8.812-1.391-14.326L81.791,28.37C78.7,22.908,74.732,19.867,70.558,19.867Zm0,89.3a8.4,8.4,0,1,1,8.4-8.4A8.4,8.4,0,0,1,70.558,109.171Zm0-13.089a4.689,4.689,0,1,0,4.689,4.689A4.689,4.689,0,0,0,70.558,96.082Zm0-5A5.73,5.73,0,0,1,65.2,87.476h-.258l-.155-1.7L62,52.177h.258a8.379,8.379,0,0,1,8.3-7.06,8.467,8.467,0,0,1,8.3,7.06h.206l-.155,2.01L76.175,87.476h-.309a5.612,5.612,0,0,1-5.308,3.607Zm-2.216-7.214.155,1.6a2.061,2.061,0,0,0,2.01,1.907,1.994,1.994,0,0,0,2.01-1.907l2.577-31.589a.654.654,0,0,1,.052-.309,4.638,4.638,0,0,0-4.638-4.741,4.7,4.7,0,0,0-4.689,4.689,1.36,1.36,0,0,1,.052.361l.155,2.01h-.052Z" transform="translate(-12.932 -16.209)" fill="#fff"/>
</svg>
