<svg xmlns="http://www.w3.org/2000/svg" width="32.05" height="38.085" viewBox="0 0 32.05 38.085">
  <g id="Group_81" data-name="Group 81" transform="translate(-837.15 -1824.367)">
    <path id="Path_447" data-name="Path 447" d="M99.55,57.7V75.282c0,6.429-10.378,17.416-15.525,17.416S68.5,81.711,68.5,75.282V57.7a59.861,59.861,0,0,1,31.05,0Zm-30.441.462v17.1c0,6.113,10.1,16.807,14.895,16.807S98.9,81.4,98.9,75.261v-17.1a59.615,59.615,0,0,0-29.79,0Z" transform="translate(769.15 1769.253)" fill="#28aade" stroke="#28aade" stroke-width="1"/>
    <path id="Path_448" data-name="Path 448" d="M115.468,109.534l-6.786,6.786c-1.534-1.534-3.067-3.046-4.58-4.58a1.367,1.367,0,0,0-1.933,1.933l5.588,5.588a1.387,1.387,0,0,0,1.87,0l7.794-7.794A1.374,1.374,0,0,0,115.468,109.534Zm2.374,2.374-7.752,7.752a1.992,1.992,0,0,1-2.815,0l-5.546-5.546a1.991,1.991,0,0,1,2.815-2.815l4.139,4.139,6.365-6.365A1.991,1.991,0,0,1,117.842,111.908Z" transform="translate(743.379 1727.523)" fill="#28aade" stroke="#28aade" stroke-width="1"/>
  </g>
</svg>
