<svg xmlns="http://www.w3.org/2000/svg" width="78.163" height="92.965" viewBox="0 0 78.163 92.965">
  <g id="Group_80" data-name="Group 80" transform="translate(-67.399 1.09)">
    <path id="Path_429" data-name="Path 429" d="M103.782,27.462V70.594c0,15.769-25.456,42.719-38.082,42.719S27.619,86.363,27.619,70.594V27.462a146.833,146.833,0,0,1,76.163,0ZM29.113,28.6V70.542c0,15,24.787,41.225,36.536,41.225s36.536-26.178,36.536-41.225V28.6a146.23,146.23,0,0,0-73.071,0Z" transform="translate(40.78 -22.438)" fill="#fff" stroke="#fff" stroke-width="2"/>
    <path id="Path_430" data-name="Path 430" d="M59.487,73.6a5.565,5.565,0,0,1-4.019-1.649l-13.6-13.6a5.349,5.349,0,0,1-1.288-6.029,6.1,6.1,0,0,1,5.462-3.762,5.668,5.668,0,0,1,3.916,1.7l9.585,9.585,15-15a5.437,5.437,0,0,1,3.916-1.7A6.029,6.029,0,0,1,83.861,46.9a5.349,5.349,0,0,1-1.288,6.029L63.558,71.948A6,6,0,0,1,59.487,73.6ZM45.934,51.7a2.767,2.767,0,0,0-2.422,1.752,2.314,2.314,0,0,0,.567,2.628L57.786,69.732a2.613,2.613,0,0,0,1.7.67,2.643,2.643,0,0,0,1.752-.67L80.305,50.666a2.226,2.226,0,0,0,.567-2.628,2.855,2.855,0,0,0-2.422-1.752,2.365,2.365,0,0,0-1.7.773L59.487,64.322,47.634,52.469a2.365,2.365,0,0,0-1.7-.773Z" transform="translate(44.263 -16.681)" fill="#fff" stroke="#fff" stroke-width="2"/>
  </g>
</svg>
