<svg id="Group_78" data-name="Group 78" xmlns="http://www.w3.org/2000/svg" width="125.556" height="76.627" viewBox="0 0 125.556 76.627">
  <path id="Path_425" data-name="Path 425" d="M132.949,59.231C116.614,37.587,94.868,25.684,71.679,25.684s-44.935,11.9-61.271,33.547a8.291,8.291,0,0,0,0,9.533h0c16.335,21.643,38.082,33.547,61.271,33.547h0c23.189,0,44.935-11.9,61.271-33.547a8.291,8.291,0,0,0,0-9.533Zm-2.628,7.575C114.6,87.624,93.786,99.064,71.627,99.064S28.65,87.624,12.933,66.806h0a5.066,5.066,0,0,1,0-5.617C28.65,40.37,49.469,28.93,71.627,28.93S114.6,40.37,130.321,61.189a5.066,5.066,0,0,1,0,5.617Z" transform="translate(-8.901 -25.684)" fill="#fff"/>
  <path id="Path_426" data-name="Path 426" d="M63.653,35.239a26.077,26.077,0,1,1-.005,0ZM81.431,49.1a5.514,5.514,0,1,1-5.514-5.514h0A5.519,5.519,0,0,1,81.431,49.1ZM63.653,84.194a22.828,22.828,0,0,1-.1-45.657,23.5,23.5,0,0,1,9.894,2.216A8.76,8.76,0,1,0,84.265,51.575a22.849,22.849,0,0,1-10.719,30.4A23.328,23.328,0,0,1,63.653,84.194Z" transform="translate(-0.927 -23.027)" fill="#fff"/>
  <path id="Path_427" data-name="Path 427" d="M59.224,51.206a5.668,5.668,0,1,0,4.06,1.66,5.72,5.72,0,0,0-4.06-1.66Zm0,8.142a2.422,2.422,0,1,1,2.422-2.422h0a2.355,2.355,0,0,1-2.422,2.422Z" transform="translate(3.502 -18.587)" fill="#fff"/>
</svg>
