<svg xmlns="http://www.w3.org/2000/svg" width="76.202" height="76.058" viewBox="0 0 76.202 76.058">
  <g id="Layer_2" data-name="Layer 2" transform="translate(0.001 0.008)">
    <g id="Layer_1" data-name="Layer 1">
      <path id="Path_424" data-name="Path 424" d="M76.2,38.1A38,38,0,0,1,67,63h0c-.45.51-.91,1-1.37,1.5s-1,1-1.45,1.43-1,.91-1.52,1.35c-.36.3-.72.6-1.09.88A38.11,38.11,0,0,1,42.7,75.93V52.11c0-.27.1-.52.55-.89a6.81,6.81,0,0,1,1.95-1,12.29,12.29,0,0,1,1.8-.41A7.54,7.54,0,0,0,48,51c.4.47.45.4.35.89v.18a3.43,3.43,0,0,0-.62.27,6,6,0,0,0-2.47,3.19,5.44,5.44,0,0,0-.1,3.64,8.26,8.26,0,0,0,1.78,2.92,10,10,0,0,0,7.47,3.36A9.86,9.86,0,0,0,60.92,63l.1-.18a22.34,22.34,0,0,0-.1-30.05,1,1,0,0,0-.17-.18.76.76,0,0,0-.18-.09A14.84,14.84,0,0,0,57.73,30h0a10.61,10.61,0,0,0-5.81-1.73h-.74a9.4,9.4,0,0,0-6.46,3.19c-2.8,3.19-3.46,7.4-1.06,11.08a4.37,4.37,0,0,0,2.12,1.86,3.72,3.72,0,0,0,1.12.17,5.741,5.741,0,0,0,1-.1l.52-.1a1.36,1.36,0,0,1-.27.45,10.25,10.25,0,0,0-1,1.33c-.07.13-.1.3-.17.45-1.44,0-3.22-1-4.35-3.64a1.53,1.53,0,0,0-1.36-.94,1.88,1.88,0,0,0-.33,0,1.48,1.48,0,0,0-1,2.06,9.39,9.39,0,0,0,3.36,3.9,7.42,7.42,0,0,0-1.85,1,4,4,0,0,0-1.59,3V76c-.58,0-1.16.05-1.74.05L37,76V52.08a4.11,4.11,0,0,0-1.58-3,7.31,7.31,0,0,0-1.86-1,9.44,9.44,0,0,0,3.37-3.91,1.52,1.52,0,0,0-1.34-2.08.83.83,0,0,0-.27,0A1.51,1.51,0,0,0,34.2,43c-1.13,2.6-2.91,3.64-4.35,3.64-.07-.15-.1-.33-.17-.45a12.271,12.271,0,0,0-1-1.34,2.17,2.17,0,0,1-.27-.44c.17,0,.25.05.55.07a5.79,5.79,0,0,0,1,.1,3.53,3.53,0,0,0,1.09-.17,4.39,4.39,0,0,0,2.13-1.86c2.4-3.68,1.73-7.89-1.06-11.08a9.41,9.41,0,0,0-6.48-3.19,5.62,5.62,0,0,1-.72,0A11.19,11.19,0,0,0,19.16,30h-.05a14.9,14.9,0,0,0-2.92,2.47,1,1,0,0,0-.18.17c0,.05-.05.05-.1.1a22.38,22.38,0,0,0-.09,30.06.46.46,0,0,0,.09.17,9.94,9.94,0,0,0,14-.89,9,9,0,0,0,1.78-2.92,5.41,5.41,0,0,0-.1-3.63,6,6,0,0,0-2.47-3.2c-.37-.19-.59-.24-.62-.27s0,0,0-.06a.54.54,0,0,0,0-.11c-.07-.5,0-.42.35-.89a5.94,5.94,0,0,0,1-1.24,13.781,13.781,0,0,1,1.86.45,7.69,7.69,0,0,1,1.95,1c.45.37.52.6.52.89V75.99A38.1,38.1,0,1,1,76.2,38.1Z" fill="#28aade"/>
    </g>
  </g>
</svg>
