<svg id="Layer_2" data-name="Layer 2" xmlns="http://www.w3.org/2000/svg" width="82.853" height="82.555" viewBox="0 0 82.853 82.555">
  <g id="Layer_1" data-name="Layer 1" transform="translate(0 0)">
    <path id="Path_189" data-name="Path 189" d="M82.015,33.33C77.219,11.086,57.543-2.692,35.062.443,12.148,3.63-4.063,26.874.9,49.417,4.806,67.186,17.861,79.323,35.959,82.252c1.32.206,1.506-.083,1.485-1.258V54.656c0-4.816,0-4.816-4.816-4.816-5.311,0-5.27,0-5.074-5.249,0-1.083.34-1.444,1.433-1.413,2.372.072,4.744,0,7.105.052,1.093,0,1.413-.289,1.382-1.392q-.113-4.806,0-9.622c.175-6.27,3.29-10.581,8.57-11.87a27.256,27.256,0,0,1,9.766-.247c.588.072.959.175,1.093.928.67,3.981.175,4.63-3.764,4.641-4.362.01-6.868,2.011-7.765,6.3-.763,3.444-.227,6.94-.392,10.405,0,1.031.639.866,1.248.866h8.776c1.031,0,1.557.165,1.31,1.361-.289,1.361-.485,2.743-.639,4.125-.093,1.031-.536,1.227-1.5,1.2-2.506-.062-5.012.062-7.518-.052-1.372-.062-1.722.34-1.712,1.712.072,8.642,0,17.273.052,25.915,0,1.66-.742,4,.33,4.775s3.094-.247,4.775-.557C71.723,77.5,86.624,54.9,82.015,33.33ZM50.531,77.673c-1.578.4-1.856,0-1.836-1.485q.093-10.457,0-20.893c0-1.372.34-1.784,1.712-1.722,2.3.124,4.6,0,6.9,0,.856,0,1.392-.062,1.537-1.145.516-3.929,1.031-7.858,1.784-11.746.248-1.372-.34-1.3-1.258-1.3-3.094,0-6.136-.052-9.2,0-1.227,0-1.547-.382-1.464-1.526.134-2-.165-4.032.495-6a3.238,3.238,0,0,1,3.506-2.588c2.227.083,4.465,0,6.693,0,.928,0,1.176-.278,1.165-1.186V17.84c0-.67,0-1.134-.918-1.237-5.063-.567-10.137-1.207-15.139.227-6.187,1.763-9.281,6.187-10.385,12.375a37.485,37.485,0,0,0-.382,8.322c0,1.413-.237,1.98-1.784,1.877-2.227-.144-4.465,0-6.693-.062-.969,0-1.351.217-1.33,1.268q.072,5.847,0,11.694c0,1.031.371,1.268,1.33,1.248,2.362-.072,4.733,0,7.105,0,.722,0,1.351-.082,1.351,1.031V77.91c-10.807-2.588-19.13-8.25-24.678-17.717C-4.589,37.125,9.621,7.806,36.176,3.95A37.6,37.6,0,0,1,50.531,77.673Z" transform="translate(-0.001 -0.001)" fill="#95c11f"/>
  </g>
</svg>
