<svg xmlns="http://www.w3.org/2000/svg" width="38.118" height="38.039" viewBox="0 0 38.118 38.039">
  <g id="Layer_2" data-name="Layer 2" transform="translate(0 0)">
    <g id="Layer_1" data-name="Layer 1" transform="translate(0 0)">
      <path id="Path_614" data-name="Path 614" d="M38.118,19.02A19.02,19.02,0,0,1,19.1,38.039H0V19.1A19.087,19.087,0,0,1,13.891.72c.3-.083.6-.162.913-.233.4-.095.826-.178,1.25-.245A19.328,19.328,0,0,1,19.1,0a18.585,18.585,0,0,1,2.626.182,1.761,1.761,0,0,1,.285.04l.2.032C22.606.32,23,.4,23.4.486c.3.071.609.15.909.233a19.031,19.031,0,0,1,13.812,18.3Z" transform="translate(0 0)" fill="#95c11f" fill-rule="evenodd"/>
      <path id="Path_615" data-name="Path 615" d="M23.751,35.4a2.993,2.993,0,0,1,2.883-1.847H40.078a3.041,3.041,0,0,1,2.89,1.756.538.538,0,0,1-.123.751.562.562,0,0,1-.162.079l-8.913,4.67a.747.747,0,0,1-.739,0L24,36.1a.471.471,0,0,1-.312-.589A.542.542,0,0,1,23.751,35.4Z" transform="translate(-14.309 -20.285)" fill="#fff"/>
      <path id="Path_616" data-name="Path 616" d="M24.04,44.712l8.414,4.4a1.214,1.214,0,0,0,1.246,0q4.184-2.2,8.395-4.35a.988.988,0,0,1,.261-.1.471.471,0,0,1,.6.293.553.553,0,0,1,.024.2V50.73a8.846,8.846,0,0,1-.051,1.447A3.013,3.013,0,0,1,39.9,54.724H26.326A3.053,3.053,0,0,1,23.3,52.45a3.132,3.132,0,0,1-.115-.791V45.2C23.19,44.66,23.538,44.455,24.04,44.712Z" transform="translate(-14.02 -26.966)" fill="#fff"/>
    </g>
  </g>
</svg>
