<svg xmlns="http://www.w3.org/2000/svg" width="38.118" height="38.039" viewBox="0 0 38.118 38.039">
  <g id="Layer_2" data-name="Layer 2" transform="translate(0 0)">
    <g id="Layer_1" data-name="Layer 1" transform="translate(0 0)">
      <path id="Path_617" data-name="Path 617" d="M38.118,19.02A19.02,19.02,0,0,1,19.1,38.039H0V19.1A19.087,19.087,0,0,1,13.891.72c.3-.083.6-.162.913-.233.4-.095.826-.178,1.25-.245A19.328,19.328,0,0,1,19.1,0a18.585,18.585,0,0,1,2.626.182,1.761,1.761,0,0,1,.285.04l.2.032C22.606.32,23,.4,23.4.486c.3.071.609.15.909.233a19.031,19.031,0,0,1,13.812,18.3Z" transform="translate(0 0)" fill="#95c11f" fill-rule="evenodd"/>
      <path id="Path_618" data-name="Path 618" d="M43.339,40.457l-1.582,1.582-.909.909a1.582,1.582,0,0,1-1.226.514h-.2a7.118,7.118,0,0,1-2.412-.514,17.557,17.557,0,0,1-4.033-2.254,21.317,21.317,0,0,1-2.768-2.57,17.877,17.877,0,0,1-2.57-3.4,11.708,11.708,0,0,1-1.424-3.4,5.821,5.821,0,0,1-.158-1.423,1.657,1.657,0,0,1,.4-1.107c0-.04.04-.04.04-.079l2.531-2.531a.7.7,0,0,1,.87-.2,1,1,0,0,1,.49.435c.633,1.226,1.3,2.452,1.938,3.677a1.111,1.111,0,0,1-.2,1.3l-.886.87a.4.4,0,0,0-.119.4,4.642,4.642,0,0,0,.593,1.265,10.04,10.04,0,0,0,1.439,1.779A13.159,13.159,0,0,0,34.7,37.136,8.244,8.244,0,0,0,36.4,38.2a2.559,2.559,0,0,0,.514.158.36.36,0,0,0,.277-.119c.356-.356.672-.672.989-1.028a1.186,1.186,0,0,1,1.424-.158l3.44,2.017a1,1,0,0,1,.514.554.846.846,0,0,1-.214.83Z" transform="translate(-15.755 -15.665)" fill="#fff"/>
    </g>
  </g>
</svg>
