<svg xmlns="http://www.w3.org/2000/svg" width="38.118" height="38.039" viewBox="0 0 38.118 38.039">
  <g id="Layer_2" data-name="Layer 2" transform="translate(0 0)">
    <g id="Layer_1" data-name="Layer 1" transform="translate(0 0)">
      <path id="Path_619" data-name="Path 619" d="M38.118,19.02A19.02,19.02,0,0,1,19.1,38.039H0V19.1A19.087,19.087,0,0,1,13.891.72c.3-.083.6-.162.913-.233.4-.095.826-.178,1.25-.245A19.328,19.328,0,0,1,19.1,0a18.585,18.585,0,0,1,2.626.182,1.761,1.761,0,0,1,.285.04l.2.032C22.606.32,23,.4,23.4.486c.3.071.609.15.909.233a19.031,19.031,0,0,1,13.812,18.3Z" transform="translate(0 0)" fill="#95c11f" fill-rule="evenodd"/>
      <path id="Path_620" data-name="Path 620" d="M42.8,22.633h-.356l-.142.328c-.182.4-.4.815-.6,1.186a7.153,7.153,0,0,0,2.23-1.02,3.4,3.4,0,0,0,.732-2.048,1.858,1.858,0,0,0-.352-1.159c.4-2.42.024-4.35-1.1-5.682A6.916,6.916,0,0,0,38,12.15a6.923,6.923,0,0,0-5.22,2.092c-1.127,1.348-1.495,3.262-1.1,5.682a1.858,1.858,0,0,0-.352,1.159,2.784,2.784,0,0,0,1.487,2.586,13.223,13.223,0,0,0,1.787,2.91A4.075,4.075,0,0,0,38,28.01a4.081,4.081,0,0,0,3.4-1.431c.111-.127.241-.289.4-.482a11.2,11.2,0,0,1-1.748.265,3.223,3.223,0,0,1-2.032.554,2.97,2.97,0,0,1-2.578-1.06A12.816,12.816,0,0,1,33.7,22.961l-.146-.328h-.384c-.285,0-.771-.767-.771-1.55,0-.4.146-.522.194-.561h0c.419,1.139,1.392,1.605,1.068.708a3.44,3.44,0,0,1-.028-2.021,17.445,17.445,0,0,0,6.722-3.219c.965.174,2.325,2.325,1.977,5.33-.107.917.633-.095,1.072-.759a.747.747,0,0,1,.146.522C43.574,21.865,43.088,22.633,42.8,22.633Z" transform="translate(-18.94 -7.346)" fill="#fff"/>
      <path id="Path_621" data-name="Path 621" d="M42.917,17.029a1.74,1.74,0,0,0-.822-.467c-.178-3.3-1.269-8.462-8.047-8.462S26.175,13.264,26,16.562a1.74,1.74,0,0,0-.822.467c-.613.617-.419,1.186.036,3.622.376,2.025,2.709.617,2.709.617a5.18,5.18,0,0,1-.791-4.4,1.119,1.119,0,0,0-.3-.217c.225-4.037,1.55-7.73,7.22-7.73s6.995,3.693,7.22,7.73a1.06,1.06,0,0,0-.3.217,5.223,5.223,0,0,1-.72,4.29,8.553,8.553,0,0,1-4.35,1.4.751.751,0,0,0-.668-.4h-1.36a.755.755,0,1,0,0,1.51h1.36a.751.751,0,0,0,.585-.281,9.265,9.265,0,0,0,5.176-1.768c.712.217,1.661.253,1.886-.973C43.336,18.215,43.529,17.645,42.917,17.029Z" transform="translate(-14.988 -4.897)" fill="#fff"/>
      <path id="Path_622" data-name="Path 622" d="M43.588,55.692a1.25,1.25,0,0,0,.478.229l-.221.739,2.677,1.087-.55-1.819a1.249,1.249,0,0,0,.478-.229c.53-.451.933-1.123.467-1.582a2.491,2.491,0,0,0-1.9-.459,2.671,2.671,0,0,0-1.894.459C42.707,54.522,43.054,55.242,43.588,55.692Z" transform="translate(-25.961 -32.442)" fill="#fff"/>
      <path id="Path_623" data-name="Path 623" d="M47.293,64.363l-.17-.558L44.082,62.58,43.6,64.162l3.163,1.273C46.941,65.119,47.115,64.723,47.293,64.363Z" transform="translate(-26.36 -37.835)" fill="#95c11f"/>
      <path id="Path_624" data-name="Path 624" d="M44,68.3c.573,1.186,1.186,2.282,1.645,3.112.332-.565.728-1.253,1.123-2.013Z" transform="translate(-26.602 -41.293)" fill="#95c11f"/>
      <path id="Path_625" data-name="Path 625" d="M41.573,61.066c-.21-2.665-.617-4.377-2.119-5.536s-5.484-3.416-5.484-3.416c.253,3.163-4.239,10.593-4.239,10.593s-4.5-7.43-4.239-10.6c0,0-3.982,2.258-5.484,3.416s-1.914,2.871-2.115,5.536-.241,3.278-.241,3.278H41.81S41.774,63.731,41.573,61.066Z" transform="translate(-10.671 -31.505)" fill="#fff"/>
    </g>
  </g>
</svg>
