<svg id="Layer_2" data-name="Layer 2" xmlns="http://www.w3.org/2000/svg" width="83.796" height="83.784" viewBox="0 0 83.796 83.784">
  <g id="Layer_1" data-name="Layer 1" transform="translate(0 0)">
    <path id="Path_190" data-name="Path 190" d="M83.789,21.326v-.485c-.227-.928-.113-1.887-.34-2.815A23.162,23.162,0,0,0,76.364,5.961,21.873,21.873,0,0,0,61.318,0H22.832a20.883,20.883,0,0,0-5.971.732A23.193,23.193,0,0,0,4.971,8.694,22.491,22.491,0,0,0,0,23.378C.083,35.857,0,48.324,0,60.844a21.656,21.656,0,0,0,1.485,8.374,23.2,23.2,0,0,0,12.158,12.7A20.419,20.419,0,0,0,20.7,83.778h.66c.124-.144.3-.072.454-.093a.4.4,0,0,1,.361.093H61.565c.093-.113.227-.083.351-.093h.278a.467.467,0,0,1,.351.093h.361a.3.3,0,0,1,.217-.093A19.4,19.4,0,0,0,72.187,80.9a22.131,22.131,0,0,0,5.806-4.692,22.687,22.687,0,0,0,3.857-5.837,21.594,21.594,0,0,0,1.918-7.219v-.66c-.258-.093-.124-.3-.124-.474s0-.268.124-.33V22.151c-.155-.062-.155-.2-.124-.34S83.531,21.429,83.789,21.326ZM76.374,41.951V60.173a15.665,15.665,0,0,1-2.918,9.58,15.469,15.469,0,0,1-13.086,6.559H23.523A15.613,15.613,0,0,1,8.364,65.68a16.087,16.087,0,0,1-.835-5.455q0-18.315,0-36.609a15.654,15.654,0,0,1,10.7-15.293,16.345,16.345,0,0,1,5.486-.815H60.235A15.634,15.634,0,0,1,75.528,18.171a16.788,16.788,0,0,1,.846,5.62c.01,6.043,0,12.1,0,18.14Z" transform="translate(0.007 0.005)" fill="#95c11f"/>
    <path id="Path_191" data-name="Path 191" d="M59.7,81.234c.062-.155.2-.165.33-.134s.062.062,0,.093h0Z" transform="translate(1.872 2.539)" fill="#95c11f"/>
    <path id="Path_192" data-name="Path 192" d="M60,81.234V81.1h.33s.062.062,0,.093a.052.052,0,0,1-.052,0Z" transform="translate(1.882 2.539)" fill="#95c11f"/>
    <path id="Path_193" data-name="Path 193" d="M60.33,81.235V81.1c0-.041.278-.062.32.134Z" transform="translate(1.892 2.538)" fill="#95c11f"/>
    <path id="Path_194" data-name="Path 194" d="M41.291,19.74A21.574,21.574,0,1,0,62.947,41.272,21.574,21.574,0,0,0,41.291,19.74Zm.082,35.7A14.128,14.128,0,1,1,55.46,41.293,14.128,14.128,0,0,1,41.374,55.442Z" transform="translate(0.626 0.622)" fill="#95c11f"/>
    <path id="Path_195" data-name="Path 195" d="M68.081,19.165a5.455,5.455,0,1,1-5.435-5.455A5.455,5.455,0,0,1,68.081,19.165Z" transform="translate(1.793 0.434)" fill="#95c11f"/>
  </g>
</svg>
