<svg xmlns="http://www.w3.org/2000/svg" xmlns:xlink="http://www.w3.org/1999/xlink" width="187.823" height="209.137" viewBox="0 0 187.823 209.137">
  <defs>
    <clipPath id="clip-path">
      <rect id="Rectangle_347" data-name="Rectangle 347" width="187.823" height="209.137" rx="14" fill="#fff" stroke="#707070" stroke-width="1"/>
    </clipPath>
    <linearGradient id="linear-gradient" x1="-7.363" y1="1.47" x2="-7.363" y2="1.472" gradientUnits="objectBoundingBox">
      <stop offset="0" stop-color="#f2ffcc"/>
      <stop offset="1" stop-color="#95c11f"/>
    </linearGradient>
    <radialGradient id="radial-gradient" cx="-9.083" cy="1.193" r="0.001" gradientTransform="translate(-0.372) scale(1.744 1)" gradientUnits="objectBoundingBox">
      <stop offset="0" stop-color="#95c11f"/>
      <stop offset="1" stop-color="#95c11f" stop-opacity="0"/>
    </radialGradient>
    <linearGradient id="linear-gradient-2" x1="-14.842" y1="1.765" x2="-14.842" y2="1.768" gradientUnits="objectBoundingBox">
      <stop offset="0" stop-color="#95c11f"/>
      <stop offset="1" stop-color="#f2ffcc"/>
    </linearGradient>
  </defs>
  <g id="Mask_Group_124" data-name="Mask Group 124" clip-path="url(#clip-path)">
    <g id="Layer_2" data-name="Layer 2" transform="translate(21.769)">
      <g id="Layer_1" data-name="Layer 1">
        <g id="Group_275" data-name="Group 275">
          <rect id="Rectangle_202" data-name="Rectangle 202" width="144.285" height="144.285" rx="6.561" transform="translate(0 36.536)" opacity="0.5" fill="url(#linear-gradient)"/>
          <path id="Path_260" data-name="Path 260" d="M67.453,66.645V45.5a7.548,7.548,0,0,0,1.387-.088A78.691,78.691,0,0,1,86.085,44.36c5.184.39,16.009,1.75,26.109,3.237s13.584-1.6,19.694-7.487c2.463-2.369,8.458-7.981,8.458-7.981L129.084,16.839s-13.907,1.684-22.509-.184c-3.031-.659-5.323-1.094-7.2-1.4-1.8-.993-7.188-3.949-11.588-6.158C82.8,6.6,72.656.51,72.656.51a43.492,43.492,0,0,0-5.4,1.481,30.286,30.286,0,0,0-4,.136,74.246,74.246,0,0,0-9.285,2.695h0l-.043.013c-2.607.886-4.982,1.745-6.156,2.175l-.766.267H46.99s.475,3.076,3.127,3.925c1,.323,3.383.205,5.937-.144-.8,1.39-1.6,2.882-2.305,4.317h0s-1.166,2.135-1.766,3.562c-.462,1.094-1.243,2.986-1.462,3.511l-.061.147s3.53,2,6.177-.045,5.411-7.532,6.185-8.461,4.952-3.4,4.952-3.4l2.481,1.249a5.336,5.336,0,0,0-2.324.675c-3.253,2.012-6.137,17.589-7.007,22.1-.072.374-.147.758-.219,1.142h0c-.712,3.736-1.449,7.845-1.449,7.845a5.961,5.961,0,0,0,3.362-.6v27.43c-5.579-1.235-11.148-2.513-16.7-3.888-5.336,24.815-10.5,49.629-16.049,74.4a6.94,6.94,0,0,0-.592-.488,8.987,8.987,0,0,0-6.876-1.676,3.487,3.487,0,0,0-1.222.312c-.112.04-.173.067-.173.067h0a53.324,53.324,0,0,0,3.712,6.937c.843,1.617,1.78,3.439,2.762,5.4-.422,1.841-.838,3.685-1.265,5.523a1.585,1.585,0,0,0,1.185,1.9h.043q2.015.424,4.032.84c1.833,3.957,3.581,8,4.92,11.655.838,2.284,3.928,3.645,7.5,6.209.331,2.423,1.246,5.953,5.521,7.2,1.969,4.357,5.585,4.677,11.708,6.3,4.269,1.134,20.583,5.659,26.73,7.674,6.4,2.1,14.641,5.825,26.245,9.76l6.489-21.541c-9.478-2.087-22.7-7.391-23.825-7.821-2.3-.875-3.413-10.006-8.272-14.862-1.4-1.379-3.93-3.808-6.841-6.628,5.67-26.565,11.239-53.141,17.4-79.6l-4.688-.979v-.024l-.213-.045v.024c-8.9-1.854-17.808-3.672-26.682-5.6V66.645Zm6.671-44.207c4.349,2.135,12.314,5.787,17.738,6.617a14.778,14.778,0,0,1-.139,2.706c-4.477,1.019-8.981,1.985-10.486,1.868-6.977-.5-11.428,1.844-14.224,4.389a39.291,39.291,0,0,0,2.876-7.754,24.418,24.418,0,0,0,4.245-7.826Z" opacity="0.5" fill="url(#radial-gradient)"/>
          <g id="Group_289" data-name="Group 289" transform="translate(14.969)">
            <g id="Group_276" data-name="Group 276" transform="translate(0 138.261)">
              <path id="Path_261" data-name="Path 261" d="M37.518,155.775s-3.41-6.481-6.089-9.39-7.612-2.239-7.612-2.239L31.891,160Z" transform="translate(-14.969 -138.261)" fill="#95c11f"/>
              <g id="Group_275-2" data-name="Group 275-2">
                <path id="Path_262" data-name="Path 262" d="M115.244,187.137c-9.478-2.087-22.7-7.391-23.825-7.818-2.3-.878-3.413-10.009-8.272-14.865s-23.315-22.146-24.393-24.788c-2.057.312-5.03,1.788-3.221,7.151.846,2.508,4.691,6.092,7.484,8.963,1.708,1.753,5.387,6.137,5.387,6.137l-11.1,1.913L34.626,157.6s-6.4-13.963-10.673-17.031a8.74,8.74,0,0,0-8.272-1.3s10.449,18.811,15.388,32.267c.838,2.284,3.928,3.645,7.5,6.212.331,2.423,1.246,5.953,5.521,7.2,1.969,4.357,5.585,4.675,11.708,6.294,4.269,1.134,20.583,5.659,26.73,7.677,6.4,2.1,14.641,5.825,26.245,9.758" transform="translate(-14.969 -138.261)" fill="#eaf3d2"/>
                <path id="Path_263" data-name="Path 263" d="M108.6,209.137c-6.4-2.169-11.7-4.245-16.378-6.078-3.757-1.47-7-2.74-9.872-3.679-6.116-2.007-22.413-6.532-26.7-7.669-.8-.213-1.566-.4-2.284-.582-4.7-1.174-7.829-1.958-9.651-5.782-4.627-1.478-5.387-5.67-5.622-7.335-.9-.64-1.758-1.2-2.588-1.74-2.372-1.542-4.245-2.764-4.91-4.576-4.87-13.266-15.252-32.019-15.356-32.2l-.267-.462.483-.213a9.169,9.169,0,0,1,8.749,1.334c4.106,2.935,9.9,15.209,10.742,17.018l22.365,6.137,10.166-1.745c-1.089-1.281-3.533-4.141-4.816-5.459-.424-.435-.873-.886-1.334-1.35-2.586-2.607-5.515-5.561-6.268-7.8-.8-2.372-.779-4.269.061-5.657a4.985,4.985,0,0,1,3.543-2.135l.376-.056.144.352c.774,1.886,11.956,12.682,18.64,19.134,2.383,2.3,4.443,4.291,5.649,5.5,2.748,2.751,4.3,6.772,5.55,10.006.881,2.279,1.713,4.432,2.543,4.749l.494.192c12.047,4.7,19.3,6.735,23.262,7.607l-.208.945a171.3,171.3,0,0,1-23.406-7.65l-.486-.189c-1.233-.47-2.017-2.5-3.1-5.3-1.217-3.146-2.73-7.063-5.336-9.67-1.2-1.2-3.255-3.186-5.638-5.486-8.992-8.682-17.17-16.663-18.678-19.107a3.8,3.8,0,0,0-2.532,1.6c-.686,1.126-.675,2.756.029,4.846.683,2.02,3.527,4.891,6.038,7.423.459.464.91.918,1.334,1.358,1.7,1.745,5.262,5.977,5.411,6.156l.534.646-12.044,2.065-23.008-6.316-.1-.205c-.061-.139-6.385-13.875-10.521-16.839a8.377,8.377,0,0,0-7.29-1.422c1.692,3.087,10.7,19.718,15.142,31.832.555,1.51,2.308,2.652,4.536,4.1.848.552,1.812,1.179,2.791,1.886l.171.12.027.205c.323,2.364,1.211,5.643,5.176,6.809l.213.064.091.2c1.614,3.57,4.429,4.269,9.1,5.441.723.181,1.489.374,2.295.587,4.293,1.137,20.623,5.67,26.757,7.685,2.89.947,6.137,2.22,9.915,3.7,4.669,1.828,9.961,3.9,16.335,6.06Z" transform="translate(-14.969 -138.261)" fill="#95c11f"/>
              </g>
              <path id="Path_264" data-name="Path 264" d="M55.619,163.176l-5.457,10.1a10.026,10.026,0,0,0,9.768,3.821c1.633-.248,13.216-1.969,16.885-1.259,4.381.848,8.154,5.79,8.154,5.79s-2.916-6.911-7.594-8-18.208-1.438-18.208-1.438l.366-8.747Z" transform="translate(-14.969 -138.261)" fill="#95c11f"/>
              <path id="Path_265" data-name="Path 265" d="M48,161.26l-5.038,7.164-1.31-8.9Z" transform="translate(-14.969 -138.261)" fill="#95c11f"/>
              <path id="Path_266" data-name="Path 266" d="M34.153,155.062A14.912,14.912,0,0,0,31.9,160c-.544,2.6,1.161,7.909,1.161,7.909s-3.06-3.1-2.831-6.294A8.7,8.7,0,0,1,34.153,155.062Z" transform="translate(-14.969 -138.261)" fill="#95c11f"/>
              <path id="Path_267" data-name="Path 267" d="M86.1,194.923a55.4,55.4,0,0,0,1.908-6.78,4.971,4.971,0,0,1,1.163-2.668,9.888,9.888,0,0,1,.053,3.317A10.3,10.3,0,0,1,86.1,194.923Z" transform="translate(-14.969 -138.261)" fill="#95c11f"/>
              <path id="Path_268" data-name="Path 268" d="M15.668,139.264c1.625-.776,2.8-.454,4.077,1.227a33.811,33.811,0,0,1,2.567,4.218,8.14,8.14,0,0,1-2.935,1.5A54.567,54.567,0,0,1,15.668,139.264Z" transform="translate(-14.969 -138.261)" fill="#d0e49c"/>
            </g>
            <g id="Group_277" data-name="Group 277" transform="translate(42.308 39.783)">
              <rect id="Rectangle_203" data-name="Rectangle 203" width="4.848" height="73.251" fill="#95c11f"/>
              <rect id="Rectangle_204" data-name="Rectangle 204" width="4.848" height="4.848" transform="translate(0 15.097)" fill="#aed13f"/>
              <rect id="Rectangle_205" data-name="Rectangle 205" width="4.848" height="4.848" transform="translate(0 20.978)" fill="#cadd7a"/>
              <rect id="Rectangle_206" data-name="Rectangle 206" width="4.848" height="4.848" transform="translate(0 26.861)" fill="#bfd852"/>
            </g>
            <g id="Group_280" data-name="Group 280" transform="translate(5.378 66.055)">
              <path id="Path_269" data-name="Path 269" d="M72.088,169.871c-16.543-4.16-33.308-7.319-49.984-10.838a1.582,1.582,0,0,1-1.235-1.868v-.043c6.985-30.071,13.2-60.3,19.708-90.48,17.61,4.36,35.4,7.829,53.135,11.567C86.718,108.264,80.482,138.482,74,168.633a1.574,1.574,0,0,1-1.849,1.241Z" transform="translate(-20.347 -66.055)" fill="#fff"/>
              <g id="Group_279" data-name="Group 279">
                <g id="Group_278" data-name="Group 278">
                  <path id="Path_270" data-name="Path 270" d="M72.088,169.871c-16.543-4.16-33.308-7.319-49.984-10.838a1.582,1.582,0,0,1-1.235-1.868v-.043c6.985-30.071,13.2-60.3,19.708-90.48,17.61,4.36,35.4,7.829,53.135,11.567C86.718,108.264,80.482,138.482,74,168.633a1.574,1.574,0,0,1-1.849,1.241Z" transform="translate(-20.347 -66.055)" opacity="0.5" fill="url(#linear-gradient-2)"/>
                  <path id="Path_271" data-name="Path 271" d="M72.461,170.4a2.166,2.166,0,0,1-.491-.059h0c-12.132-3.052-24.6-5.6-36.662-8.079-4.357-.894-8.875-1.82-13.307-2.754a2.084,2.084,0,0,1-1.334-.926,2.036,2.036,0,0,1-.267-1.566c5.088-21.9,9.846-44.263,14.449-65.887q2.618-12.3,5.256-24.588l.107-.486.483.12c13.512,3.349,27.373,6.217,40.779,8.995q6.172,1.275,12.341,2.57l.483.1-.112.483c-5.3,22.733-10.235,45.939-15.014,68.382q-2.345,11.017-4.7,22.04a2.1,2.1,0,0,1-.942,1.347A2.017,2.017,0,0,1,72.461,170.4Zm-.267-1a1.051,1.051,0,0,0,.8-.131,1.137,1.137,0,0,0,.507-.731q2.369-11.017,4.707-22.037c4.744-22.288,9.648-45.331,14.9-67.92q-5.923-1.246-11.855-2.468C68.04,73.377,54.328,70.535,40.949,67.24q-2.594,12.044-5.15,24.1c-4.6,21.613-9.363,43.991-14.451,65.906a1.067,1.067,0,0,0,.139.824,1.115,1.115,0,0,0,.718.5c4.427.934,8.936,1.868,13.3,2.751,12.068,2.473,24.548,5.032,36.7,8.09Z" transform="translate(-20.347 -66.055)" fill="#95c11f"/>
                  <path id="Path_272" data-name="Path 272" d="M89.037,77.206C84.727,94.68,81.115,112.2,77.672,129.861,75.842,138.6,73.846,148,71.73,157.909c-.312,1.486-.472,2.236-.8,3.736-.08.376-.123.563-.205.942a2.873,2.873,0,0,1-.347,1.017,1.777,1.777,0,0,1-1.769.889c-2.655-.8-3.976-1.155-6.615-1.838a125.2,125.2,0,0,0-13.376-2.5c-4.507-.7-9.072-1.31-13.8-2.06-1.422-.219-2.135-.334-3.565-.568l-1.79-.3-.9-.157-.451-.08-.224-.037c-.091-.021-.227-.048-.334-.083a2.4,2.4,0,0,1-1.705-1.98A2.836,2.836,0,0,1,26,153.7c.088-.334.133-.5.224-.835.358-1.334.534-2,.878-3.325,2.295-8.827,4.269-17.344,6.022-26.1,3.765-18.63,7.572-37.211,12.034-55.689l.205.048c-3.469,18.8-6.5,37.654-9.739,56.489a247.786,247.786,0,0,1-6.337,25.666c-.387,1.313-.584,1.975-.987,3.3a7.845,7.845,0,0,0-.366,1.334.606.606,0,0,0,.416.515c2.855.563,4.269.8,7.068,1.286,4.752.782,9.184,1.6,13.608,2.433s8.845,1.716,13.181,2.935c2.583.736,3.877,1.123,6.481,1.975a1.142,1.142,0,0,0,1.174-.576,8.157,8.157,0,0,0,.448-1.748c.318-1.524.472-2.279.774-3.784,1.985-10.043,3.383-19.833,4.8-28.638A371.723,371.723,0,0,1,88.8,77.155Z" transform="translate(-20.347 -66.055)" fill="#95c11f"/>
                </g>
              </g>
            </g>
            <g id="Group_284" data-name="Group 284" transform="translate(26.154)">
              <g id="Group_281" data-name="Group 281" transform="translate(0 1.503)">
                <path id="Path_273" data-name="Path 273" d="M69.185,12.007s-8.368-3.274-12.717-2.06c-3.72,1.041-9.894,1.868-11.684,1.289-2.65-.849-3.125-3.925-3.125-3.925S53.709,2.818,57.936,2.14a56.658,56.658,0,0,1,6.636-.088Z" transform="translate(-41.123 -1.503)" fill="#eaf3d2"/>
                <path id="Path_274" data-name="Path 274" d="M70.129,12.882l-1.121-.438c-.083-.032-8.272-3.2-12.41-2.044-3.866,1.067-10.062,1.892-11.962,1.283-2.9-.931-3.434-4.176-3.455-4.315l-.059-.39.368-.136c.494-.173,12.141-4.517,16.354-5.2a57.539,57.539,0,0,1,6.753-.08h.3Zm-11.367-3.7a32.7,32.7,0,0,1,9.491,1.958l-4-8.616a52.35,52.35,0,0,0-6.268.08c-3.677.6-13.64,4.221-15.759,5a4.446,4.446,0,0,0,2.706,3.159C46.6,11.3,52.7,10.5,56.337,9.47a9.072,9.072,0,0,1,2.425-.288Z" transform="translate(-41.123 -1.503)" fill="#95c11f"/>
              </g>
              <g id="Group_282" data-name="Group 282" transform="translate(3.397)">
                <path id="Path_275" data-name="Path 275" d="M94.656,15.6s-6.847-3.81-12.207-6.505C77.478,6.6,67.33.51,67.33.51S57.794,2.321,53.885,6.54s-8.754,16.076-8.754,16.076,3.53,2,6.177-.045,5.411-7.532,6.185-8.461,4.944-3.418,4.944-3.418l16.717,8.4Z" transform="translate(-44.52)" fill="#eaf3d2"/>
                <path id="Path_276" data-name="Path 276" d="M48.482,23.979a8.042,8.042,0,0,1-3.591-.942l-.371-.211.16-.395c.2-.486,4.923-11.988,8.848-16.223C57.5,1.924,66.842.109,67.24.035L67.421,0l.157.1c.1.059,10.19,6.1,15.086,8.565,5.31,2.668,12.159,6.476,12.229,6.513l1.1.616L79.084,19.6l-16.631-8.36a31.719,31.719,0,0,0-4.592,3.175c-.192.229-.582.873-1.03,1.614-1.294,2.135-3.253,5.39-5.23,6.919a5,5,0,0,1-3.119,1.027Zm-2.732-1.6c.934.411,3.383,1.254,5.259-.195S54.822,17.49,56,15.532A18.785,18.785,0,0,1,57.119,13.8c.8-.966,4.632-3.266,5.07-3.522l.229-.136,16.81,8.442,14.1-3.178c-2.161-1.187-7.063-3.861-11.079-5.87-4.6-2.311-13.672-7.722-15.006-8.512-1.315.267-9.536,2.105-13,5.846-3.394,3.661-7.588,13.376-8.488,15.513Z" transform="translate(-44.52)" fill="#95c11f"/>
              </g>
              <g id="Group_283" data-name="Group 283" transform="translate(12.231 11.401)">
                <path id="Path_277" data-name="Path 277" d="M123.758,16.842s-13.91,1.684-22.509-.187c-10.66-2.313-12.367-1.94-18.518-2.521-8.56-.8-16.89-3.53-20.14-1.518s-6.137,17.589-7,22.1c-.774,3.978-1.673,8.995-1.673,8.995s4.781.889,7.647-5.382a40.76,40.76,0,0,0,3.01-8.053,24.8,24.8,0,0,0,4.235-7.837c4.349,2.135,12.314,5.787,17.738,6.617a14.805,14.805,0,0,1-.139,2.708c-4.477,1.019-8.981,1.983-10.486,1.868-8.987-.643-13.795,3.431-16.255,6.572s-.3,5.835,3.848,5.2A78.706,78.706,0,0,1,80.76,44.352c5.187.39,16.009,1.75,26.106,3.237s13.584-1.6,19.694-7.487c2.463-2.372,8.458-7.981,8.458-7.981" transform="translate(-53.354 -11.401)" fill="#eaf3d2"/>
                <path id="Path_278" data-name="Path 278" d="M111.516,48.458a32.483,32.483,0,0,1-4.72-.384c-10.606-1.561-21.079-2.86-26.074-3.234a77.613,77.613,0,0,0-17.135,1.049c-2.345.363-4.237-.267-5.056-1.657a2.868,2.868,0,0,1-.366-1.067,6.785,6.785,0,0,1-4.339,1.022l-.472-.088.083-.472c0-.051.907-5.07,1.676-9l.123-.635c1.772-9.192,4.181-19.977,7.1-21.784,2.319-1.433,6.649-.694,12.13.243,2.684.459,5.462.934,8.312,1.2,1.462.139,2.668.221,3.816.3a85.89,85.89,0,0,1,14.758,2.231c8.424,1.83,22.21.195,22.349.179l.115.961c-.571.069-14.088,1.67-22.68-.195a83.781,83.781,0,0,0-14.622-2.209c-1.163-.08-2.364-.165-3.837-.3-2.887-.267-5.683-.752-8.384-1.214-5.07-.867-9.451-1.617-11.457-.374C59.9,14.841,57.1,29.391,56.164,34.172l-.123.635c-.619,3.183-1.334,7.079-1.577,8.466a6.036,6.036,0,0,0,3.752-1.3,5.39,5.39,0,0,1,1.049-2.055,17.982,17.982,0,0,1,2.017-2.185,38.055,38.055,0,0,0,2.8-7.556l.027-.131.093-.1a24.327,24.327,0,0,0,4.128-7.658l.173-.534L69,22c4.269,2.1,12.215,5.747,17.6,6.572l.286.045.1.267c.045.131.155.432-.112,2.935l-.035.344-.339.077c-5.315,1.209-9.152,1.991-10.628,1.886-5.635-.4-10.254,1-13.776,4.17-.037.077-.072.157-.109.237a10.892,10.892,0,0,1-2.871,3.944,1.969,1.969,0,0,0,.237,1.27c.6,1.027,2.161,1.481,4.072,1.19a78.869,78.869,0,0,1,17.357-1.067c5.008.374,15.516,1.676,26.149,3.239,9.678,1.425,13.09-1.382,19.289-7.354,2.436-2.348,8.4-7.93,8.464-7.986l.662.707c-.059.056-6.022,5.633-8.453,7.975C121.578,45.579,118.238,48.458,111.516,48.458Zm-46.5-17.952a32.588,32.588,0,0,1-2.057,5.87,19.569,19.569,0,0,1,13-3.234c1.4.1,5.8-.835,10.006-1.788.1-.987.128-1.58.133-1.894-5.288-.913-12.7-4.256-17.01-6.358A25.179,25.179,0,0,1,65.017,30.506Z" transform="translate(-53.354 -11.401)" fill="#95c11f"/>
              </g>
              <path id="Path_279" data-name="Path 279" d="M60.083,44.173c-1.414-1.868,1.334-4.248,4.106-5.014a30.684,30.684,0,0,1,3.973-.91s1.025,4.483.552,5.3C66.316,44.319,61.183,45.627,60.083,44.173Z" transform="translate(-41.123)" fill="#d0e49c"/>
              <path id="Path_280" data-name="Path 280" d="M53.914,43.708s2.135-.71,2.844-4.122l.72-3.413-2.113-.318Z" transform="translate(-41.123)" fill="#d0e49c"/>
              <path id="Path_281" data-name="Path 281" d="M45.128,22.616s2.215-.163,3.69-3.325l1.476-3.162L48.426,15.4S47.26,17.53,46.66,18.958C46.11,20.233,45.128,22.616,45.128,22.616Z" transform="translate(-41.123)" fill="#d0e49c"/>
              <path id="Path_282" data-name="Path 282" d="M41.67,7.282S42.719,8.835,46.107,8a13.006,13.006,0,0,0,3.306-1.091l-.779-2.1Z" transform="translate(-41.123)" fill="#d0e49c"/>
              <path id="Path_283" data-name="Path 283" d="M68.806,22.437s-.678-1.251-1.473-2.9a13.848,13.848,0,0,1-1.067-3.1,3.774,3.774,0,0,1,2.759,2.439A5.144,5.144,0,0,1,68.806,22.437Z" transform="translate(-41.123)" fill="#95c11f"/>
              <path id="Path_284" data-name="Path 284" d="M64.571,30.274c-.656-.352-1.291-.739-1.91-1.155a6.556,6.556,0,0,1-2.036-1.75,11.6,11.6,0,0,1,2.241.907,3.832,3.832,0,0,1,1.705,2Z" transform="translate(-41.123)" fill="#95c11f"/>
            </g>
            <g id="Group_288" data-name="Group 288" transform="translate(15.663 139.504)">
              <g id="Group_286" data-name="Group 286" transform="translate(12.682 10.748)">
                <g id="Group_285" data-name="Group 285">
                  <path id="Path_285" data-name="Path 285" d="M50.163,173.276s5.414-9.923,7.223-13.848c2.3-4.995-1.934-8.485-1.934-8.485s-4.99,6.513-5.8,7.877c-.491.832-4.384,6.044-6.34,8.538" transform="translate(-43.314 -150.251)" fill="#eaf3d2"/>
                  <path id="Path_286" data-name="Path 286" d="M50.163,173.276c.39-.971.8-1.932,1.241-2.876l.651-1.422.7-1.411c.891-1.868,1.868-3.714,2.778-5.582.456-.929.907-1.868,1.334-2.8a6.826,6.826,0,0,0,.632-2.775,6.671,6.671,0,0,0-.643-2.764,7.861,7.861,0,0,0-1.694-2.34h0l.691-.08-3.159,4c-1.035,1.353-2.095,2.668-3.028,4.093-1.009,1.39-2.055,2.727-3.1,4.072q-.8,1-1.566,2.02l-1.558,2.025-.112-.088a22.407,22.407,0,0,1,2.7-4.357c1.011-1.369,2-2.762,2.935-4.149.2-.31.446-.731.7-1.067l.747-1.051,1.521-2.06q1.545-2.041,3.159-4.024l.32-.39.374.312h0a8.27,8.27,0,0,1,1.155,1.211,8.694,8.694,0,0,1,.9,1.393,7.081,7.081,0,0,1,.8,3.242,7.97,7.97,0,0,1-.723,3.266c-.448.955-.934,1.868-1.414,2.807-.977,1.844-1.934,3.7-2.994,5.491l-.784,1.353-.824,1.334Q51.083,171.992,50.163,173.276Z" transform="translate(-43.314 -150.251)" fill="#95c11f"/>
                </g>
                <path id="Path_287" data-name="Path 287" d="M55.435,150.932c1.462,1.067,1.74,2.244.881,4.168a24.259,24.259,0,0,1-2.236,3.792,10.232,10.232,0,0,1-3.106-2.057C52.519,154.987,54.88,151.556,55.435,150.932Z" transform="translate(-43.314 -150.251)" fill="#d0e49c"/>
              </g>
              <g id="Group_287" data-name="Group 287">
                <path id="Path_288" data-name="Path 288" d="M42.86,167.672c-.16-2.295-2.476-6.516-2.476-6.516a82.751,82.751,0,0,0,7.559-12.007c2.874-6.078-1.556-8.973-1.556-8.973s-5.192,6.959-8.034,9.987-8.146,8.093-7.276,10.876" transform="translate(-30.631 -139.504)" fill="#eaf3d2"/>
                <path id="Path_289" data-name="Path 289" d="M42.86,167.672A8.116,8.116,0,0,0,42.374,166c-.208-.534-.454-1.067-.712-1.6-.518-1.035-1.1-2.052-1.708-3.02h0l-.155-.267.195-.267q1.8-2.4,3.45-4.91c1.1-1.67,2.153-3.373,3.1-5.128.232-.438.47-.875.683-1.334a14.608,14.608,0,0,0,.606-1.334,8.234,8.234,0,0,0,.59-2.772,5.825,5.825,0,0,0-1.318-3.874,5.459,5.459,0,0,0-.982-.939l.656-.115q-2.108,2.81-4.293,5.558c-1.457,1.82-2.967,3.658-4.589,5.336a45.429,45.429,0,0,0-4.373,5.377,17.057,17.057,0,0,0-1.646,2.988,4.873,4.873,0,0,0-.395,3.162l-.651.219a4.269,4.269,0,0,1-.157-1.894,7.89,7.89,0,0,1,.464-1.777,17.045,17.045,0,0,1,1.681-3.146,46.14,46.14,0,0,1,4.381-5.545c.8-.878,1.574-1.7,2.321-2.6s1.484-1.788,2.209-2.7q2.177-2.735,4.269-5.534l.286-.379.371.267a6.045,6.045,0,0,1,1.2,1.134,6.769,6.769,0,0,1,1.537,4.515,9.09,9.09,0,0,1-.654,3.1,14.981,14.981,0,0,1-.64,1.414c-.219.462-.462.907-.7,1.358-.963,1.788-2.033,3.509-3.141,5.2s-2.268,3.333-3.49,4.96l.04-.534h0a34.132,34.132,0,0,1,1.3,3.306c.189.56.36,1.126.494,1.7a8.055,8.055,0,0,1,.253,1.745Z" transform="translate(-30.631 -139.504)" fill="#95c11f"/>
                <path id="Path_290" data-name="Path 290" d="M46.337,140.157c1.462,1.067,1.74,2.241.881,4.165a24.259,24.259,0,0,1-2.236,3.792,10.231,10.231,0,0,1-3.106-2.057C43.42,144.21,45.782,140.771,46.337,140.157Z" transform="translate(-30.631 -139.504)" fill="#d0e49c"/>
              </g>
            </g>
          </g>
        </g>
      </g>
    </g>
  </g>
</svg>
