<svg xmlns="http://www.w3.org/2000/svg" xmlns:xlink="http://www.w3.org/1999/xlink" width="187.823" height="209.137" viewBox="0 0 187.823 209.137">
  <defs>
    <clipPath id="clip-path">
      <rect id="Rectangle_344" data-name="Rectangle 344" width="187.823" height="209.137" rx="14" fill="#fff" stroke="#707070" stroke-width="1"/>
    </clipPath>
    <linearGradient id="linear-gradient" x1="-9.405" y1="1.446" x2="-9.405" y2="1.447" gradientUnits="objectBoundingBox">
      <stop offset="0" stop-color="#f2ffcc"/>
      <stop offset="1" stop-color="#95c11f"/>
    </linearGradient>
    <radialGradient id="radial-gradient" cx="-14.403" cy="1.198" r="0.001" gradientTransform="translate(-0.565) scale(2.13 1)" gradientUnits="objectBoundingBox">
      <stop offset="0" stop-color="#95c11f"/>
      <stop offset="1" stop-color="#95c11f" stop-opacity="0"/>
    </radialGradient>
    <linearGradient id="linear-gradient-2" x1="-50.753" y1="2.557" x2="-50.743" y2="2.557" xlink:href="#linear-gradient"/>
    <linearGradient id="linear-gradient-3" x1="-50.748" y1="28.299" x2="-50.738" y2="28.299" gradientUnits="objectBoundingBox">
      <stop offset="0" stop-color="#95c11f"/>
      <stop offset="1" stop-color="#f2ffcc"/>
    </linearGradient>
  </defs>
  <g id="Mask_Group_121" data-name="Mask Group 121" clip-path="url(#clip-path)">
    <g id="Layer_2" data-name="Layer 2" transform="translate(21.369)">
      <g id="Layer_1" data-name="Layer 1">
        <g id="Group_290" data-name="Group 290">
          <rect id="Rectangle_207" data-name="Rectangle 207" width="145.086" height="145.086" rx="6.605" transform="translate(0 39.913)" opacity="0.5" fill="url(#linear-gradient)"/>
          <path id="Path_291" data-name="Path 291" d="M64.175,56.165V45.153a5.476,5.476,0,0,0,3.631.5,79.175,79.175,0,0,1,17.34-1.058c5.213.389,16.116,1.759,26.252,3.255s13.661-1.612,19.8-7.521c2.476-2.385,8.506-8.026,8.506-8.026L128.387,16.935s-13.986,1.692-22.634-.188c-3.049-.661-5.353-1.1-7.252-1.41-1.808-1-7.236-3.972-11.657-6.2C81.848,6.621,71.642.5,71.642.5A44.049,44.049,0,0,0,66.216,1.99a30.525,30.525,0,0,0-4.029.137,75.061,75.061,0,0,0-9.339,2.71h0l-.04.013c-2.619.889-5,1.754-6.178,2.186l-.774.269h-.019s.475,3.091,3.143,3.948c1.007.322,3.4.2,5.971-.145-.806,1.4-1.612,2.9-2.318,4.34h0S51.46,17.6,50.855,19.03c-.465,1.1-1.249,3-1.467,3.532l-.062.148s3.548,2.009,6.21-.048,5.434-7.542,6.213-8.474,4.969-3.443,4.969-3.443L69.216,12a5.407,5.407,0,0,0-2.337.677C63.611,14.7,60.715,30.364,59.834,34.9c-.073.373-.148.76-.22,1.147h0v.016c-.717,3.76-1.458,7.88-1.458,7.88a4.684,4.684,0,0,0,1.147.019V61.121c-6.538.247-11.533,1.539-11.533,3.1v65.416a9.965,9.965,0,0,0-2.149-.446,2.4,2.4,0,0,0-1.053-.021c-.089.763-.462,4.346-.631,6.564h.07c-.693,4.751-1.5,10.62-1.5,12.369,0,3.083-1.184,11.012.086,13.161.927,1.566,5.372,7.684,7.7,10.875.83,2.484,1.743,4.754,2.955,5.764,7.789,6.462,26.663,18.3,32.768,23.115s8.388,6.6,16.008,6.6c6.336,0,24.2,1.026,24.2,1.026V184.77s-27.45,1.254-32.175-6.36c-2.514-4.05-.15-12.981-6.245-18.78S80.7,149,80.443,145.142c-.148-2.28-2.031-8.077-3.046-14.321a5,5,0,0,0-2.1-3.634V64.231c0-1.531-4.789-2.807-11.128-3.089Zm8.955-33.6c4.375,2.149,12.382,5.818,17.835,6.653a15.081,15.081,0,0,1-.137,2.724c-4.5,1.023-9.033,1.993-10.545,1.88-7.016-.5-11.493,1.856-14.305,4.413a39.6,39.6,0,0,0,2.893-7.789A24.947,24.947,0,0,0,73.13,22.562ZM66.573,160.393c-.427-.185-.924-.411-1.469-.671-1.757-1.92-3.895-4.3-4.467-5.17-1.015-1.523,0-3.776,0-8.864v-1.88h.9a52.871,52.871,0,0,0,7.11-.457c.349,3.032.838,6.446.881,8.291.075,3.059-.161,6.1-.285,8.488a2.6,2.6,0,0,1-2.667.269Z" opacity="0.5" fill="url(#radial-gradient)"/>
          <g id="Group_299" data-name="Group 299" transform="translate(36.172)">
            <path id="Path_292" data-name="Path 292" d="M66.05,161.268c-.223.556-2.243.6-2.221,0,.089-2.511.424-6.062.338-9.637-.078-3.245-1.526-11.3-1.184-13.669a52.646,52.646,0,0,0-.078-7.789s4.894-2.372,6.041,7.11C69.888,145.069,68,156.4,66.05,161.268Z" transform="translate(-36.172)" fill="#95c11f"/>
            <path id="Path_293" data-name="Path 293" d="M62.241,162.423s-5.947-6.35-6.962-7.872,0-3.776,0-8.864,0-8.649-1.526-10.808a6.06,6.06,0,0,0-3.58-2.506s-4.622,15.7-4.2,19.959S62.241,162.423,62.241,162.423Z" transform="translate(-36.172)" fill="#95c11f"/>
            <g id="Group_291" data-name="Group 291" transform="translate(5.75 40.985)">
              <path id="Path_294" data-name="Path 294" d="M42.408,64.231v76.415c0,1.74,6.178,3.148,13.768,3.148s13.765-1.407,13.765-3.148V64.231" transform="translate(-41.922 -40.985)" fill="#eaf3d2"/>
              <path id="Path_295" data-name="Path 295" d="M42.408,75.689v64.959c0,1.738,6.178,3.148,13.768,3.148s13.765-1.41,13.765-3.148V75.689" transform="translate(-41.922 -40.985)" opacity="0.5" fill="url(#linear-gradient-2)"/>
              <ellipse id="Ellipse_25" data-name="Ellipse 25" cx="13.768" cy="3.148" rx="13.768" ry="3.148" transform="translate(0.486 31.557)" fill="#fff"/>
              <ellipse id="Ellipse_26" data-name="Ellipse 26" cx="13.768" cy="3.148" rx="13.768" ry="3.148" transform="translate(0.486 31.557)" opacity="0.7" fill="url(#linear-gradient-3)"/>
              <path id="Path_296" data-name="Path 296" d="M56.176,144.282c-7.083,0-14.254-1.249-14.254-3.634V64.234h.972v76.415c0,1.074,5.176,2.662,13.282,2.662s13.279-1.577,13.279-2.662V64.234h.975v76.415C70.43,143.033,63.259,144.282,56.176,144.282Z" transform="translate(-41.922 -40.985)" fill="#95c11f"/>
              <ellipse id="Ellipse_27" data-name="Ellipse 27" cx="13.768" cy="3.148" rx="13.768" ry="3.148" transform="translate(0.486 20.101)" fill="#fff"/>
              <ellipse id="Ellipse_28" data-name="Ellipse 28" cx="13.768" cy="3.148" rx="13.768" ry="3.148" transform="translate(0.486 20.101)" fill="#eaf3d2"/>
              <path id="Path_297" data-name="Path 297" d="M70.43,64.234h-.975c0-1.074-5.173-2.662-13.279-2.662s-13.282,1.577-13.282,2.662h-.972c0-2.388,7.171-3.637,14.254-3.637S70.43,61.846,70.43,64.234Z" transform="translate(-41.922 -40.985)" fill="#95c11f"/>
              <g id="Group_290-2" data-name="Group 290-2" transform="translate(12.02)">
                <rect id="Rectangle_208" data-name="Rectangle 208" width="4.875" height="74.4" fill="#95c11f"/>
                <rect id="Rectangle_209" data-name="Rectangle 209" width="4.875" height="4.875" transform="translate(0 15.181)" fill="#aed13f"/>
                <rect id="Rectangle_210" data-name="Rectangle 210" width="4.875" height="4.875" transform="translate(0 21.095)" fill="#cadd7a"/>
                <rect id="Rectangle_211" data-name="Rectangle 211" width="4.875" height="4.875" transform="translate(0 27.01)" fill="#bfd852"/>
                <rect id="Rectangle_212" data-name="Rectangle 212" width="4.875" height="4.875" transform="translate(0 32.924)" fill="#cadd7a"/>
                <rect id="Rectangle_213" data-name="Rectangle 213" width="4.875" height="4.875" transform="translate(0 38.838)" fill="#bfd852"/>
                <rect id="Rectangle_214" data-name="Rectangle 214" width="4.875" height="4.875" transform="translate(0 44.753)" fill="#cadd7a"/>
                <rect id="Rectangle_215" data-name="Rectangle 215" width="4.875" height="4.875" transform="translate(0 50.667)" fill="#bfd852"/>
                <rect id="Rectangle_216" data-name="Rectangle 216" width="4.875" height="4.875" transform="translate(0 56.582)" fill="#cadd7a"/>
                <rect id="Rectangle_217" data-name="Rectangle 217" width="4.875" height="4.875" transform="translate(0 62.496)" fill="#bfd852"/>
                <rect id="Rectangle_218" data-name="Rectangle 218" width="4.875" height="4.875" transform="translate(0 68.41)" fill="#cadd7a"/>
              </g>
              <path id="Path_298" data-name="Path 298" d="M42.408,140.648a1.171,1.171,0,0,1,.376-.833,3.671,3.671,0,0,1,.752-.564,9.548,9.548,0,0,1,1.7-.76,23.219,23.219,0,0,1,3.591-.886,46.026,46.026,0,0,1,14.695,0,23.021,23.021,0,0,1,3.594.886,9.418,9.418,0,0,1,1.7.76,3.671,3.671,0,0,1,.752.564,1.171,1.171,0,0,1,.376.833,1.112,1.112,0,0,0-.475-.725,3.734,3.734,0,0,0-.776-.435,10.291,10.291,0,0,0-1.711-.537,30.212,30.212,0,0,0-3.567-.594,71.473,71.473,0,0,0-14.48,0,29.191,29.191,0,0,0-3.564.594,10.045,10.045,0,0,0-1.711.537,3.668,3.668,0,0,0-.776.435,1.1,1.1,0,0,0-.473.725Z" transform="translate(-41.922 -40.985)" fill="#95c11f" opacity="0.5"/>
              <path id="Path_299" data-name="Path 299" d="M56.176,67.868c-7.083,0-14.254-1.249-14.254-3.637h.972c0,1.074,5.176,2.662,13.282,2.662s13.279-1.577,13.279-2.662h.975C70.43,66.611,63.259,67.868,56.176,67.868Z" transform="translate(-41.922 -40.985)" fill="#95c11f"/>
            </g>
            <g id="Group_294" data-name="Group 294" transform="translate(0 126.206)">
              <g id="Group_292" data-name="Group 292" transform="translate(0 2.463)">
                <path id="Path_300" data-name="Path 300" d="M46.389,174.1s-7.87-10.693-9.132-12.836-.086-10.067-.086-13.161,2.487-18.96,2.487-18.96,6.739,0,6.739,5.713Z" transform="translate(-36.172 -128.669)" fill="#eaf3d2"/>
                <path id="Path_301" data-name="Path 301" d="M46.877,175.587,46,174.394c-.322-.438-7.9-10.744-9.167-12.879-.983-1.66-.65-5.992-.36-9.814.11-1.456.207-2.713.207-3.583,0-3.086,2.39-18.385,2.493-19.035l.064-.414h.416c.073,0,7.225.073,7.225,6.2Zm-6.812-45.929c-.4,2.557-2.417,15.729-2.417,18.458,0,.908-.1,2.181-.212,3.656-.252,3.314-.6,7.851.228,9.248.991,1.673,6.148,8.748,8.235,11.6V134.871c0-4.443-4.429-5.111-5.834-5.211Z" transform="translate(-36.172 -128.669)" fill="#95c11f"/>
              </g>
              <path id="Path_302" data-name="Path 302" d="M39.214,129.174c1.515-.269,2.253.537,2.64,2.439a13.688,13.688,0,0,1,.048,4.112,9.911,9.911,0,0,1-3.32.013C38.758,133.52,39.131,129.937,39.214,129.174Z" transform="translate(-36.172 -126.206)" fill="#d0e49c"/>
              <g id="Group_293" data-name="Group 293" transform="translate(2.978)">
                <path id="Path_303" data-name="Path 303" d="M120.867,184.77s-27.447,1.254-32.175-6.358c-2.514-4.05-.15-12.981-6.245-18.783S75.337,149,75.082,145.142c-.148-2.28-2.031-8.077-3.046-14.321s-7.872-5.133-7.789,1.469c.089,7.118,2.7,14.026,2.487,21.109-.107,3.492-2.278,8.4-5.528,6.983s-10.609-5.1-12.028-9.4.878-12.293,1.061-17.27c.207-5.64-5.345-6.409-5.345-6.409s-3.68,11.431-4.483,16.314S38.648,158.2,42.07,164.185c1.988,3.473,3.2,11.52,5.839,13.7,7.789,6.462,26.666,18.3,32.768,23.115s8.377,6.623,15.995,6.623c6.336,0,24.2,1.026,24.2,1.026" transform="translate(-39.15 -126.206)" fill="#eaf3d2"/>
                <path id="Path_304" data-name="Path 304" d="M120.842,209.137c-.18,0-17.92-1.026-24.173-1.026-7.808,0-10.292-1.963-16.3-6.715-2.621-2.074-7.727-5.522-13.131-9.175-7.123-4.813-15.2-10.268-19.634-13.948-1.681-1.4-2.769-4.835-3.822-8.179a31.736,31.736,0,0,0-2.13-5.662c-3.492-6.086-2.568-15.7-1.714-20.888.806-4.864,4.349-15.917,4.5-16.384l.126-.389.4.056c.059,0,5.987.889,5.767,6.908a57.268,57.268,0,0,1-.709,6c-.6,3.938-1.273,8.4-.379,11.1,1.44,4.34,9.366,8.058,11.762,9.1a2.092,2.092,0,0,0,2.082-.148c1.638-1.039,2.686-4.077,2.767-6.414a52.669,52.669,0,0,0-1.227-11.012A60.8,60.8,0,0,1,63.764,132.3c-.051-3.921,2.149-5.909,4.2-6.081,1.88-.164,4,1.171,4.55,4.526.537,3.285,1.319,6.478,1.947,9.044a39.285,39.285,0,0,1,1.107,5.324c.255,3.854,1.311,8.552,7.214,14.168,3.9,3.715,4.459,8.735,4.907,12.769.269,2.5.516,4.66,1.415,6.108,4.523,7.287,31.466,6.145,31.737,6.129l.046.972c-1.133.054-27.789,1.179-32.61-6.589-1.015-1.636-1.265-3.9-1.558-6.513-.451-4.08-.967-8.7-4.609-12.17-6.148-5.85-7.252-10.768-7.521-14.81a39.774,39.774,0,0,0-1.074-5.154c-.634-2.584-1.421-5.8-1.963-9.132-.475-2.928-2.192-3.83-3.505-3.712-1.625.14-3.355,1.8-3.314,5.1a59.9,59.9,0,0,0,1.246,9.9,53.739,53.739,0,0,1,1.244,11.23c-.078,2.554-1.233,5.947-3.223,7.206a3.075,3.075,0,0,1-2.989.218c-2.487-1.074-10.73-4.964-12.3-9.688-.97-2.922-.306-7.311.338-11.549a56.128,56.128,0,0,0,.7-5.888,5.526,5.526,0,0,0-4.528-5.831c-.661,2.084-3.631,11.549-4.335,15.831-.671,4.077-1.859,14.206,1.6,20.249a32.871,32.871,0,0,1,2.216,5.85c1.01,3.2,2.052,6.511,3.513,7.725,4.4,3.65,12.455,9.089,19.559,13.892,5.42,3.661,10.54,7.12,13.191,9.215,5.987,4.727,8.227,6.5,15.7,6.5,6.28,0,24.047,1.018,24.227,1.026Z" transform="translate(-39.15 -126.206)" fill="#95c11f"/>
              </g>
              <path id="Path_305" data-name="Path 305" d="M44.9,127.313c1.673.032,2.525,1.343,2.533,3.451a9.952,9.952,0,0,1-1.045,4.1,10.814,10.814,0,0,1-3.543-.682C43.493,131.857,44.648,128.119,44.9,127.313Z" transform="translate(-36.172 -126.206)" fill="#d0e49c"/>
              <path id="Path_306" data-name="Path 306" d="M69.5,127.957c-1.488-.207-3.438,1.179-3.451,3.76s.843,3.167.843,3.167l4.947-.83S71.212,128.2,69.5,127.957Z" transform="translate(-36.172 -126.206)" fill="#d0e49c"/>
            </g>
            <g id="Group_298" data-name="Group 298" transform="translate(3.757)">
              <g id="Group_295" data-name="Group 295" transform="translate(0 1.51)">
                <path id="Path_307" data-name="Path 307" d="M68.15,12.062S59.735,8.77,55.362,9.992c-3.741,1.042-9.938,1.88-11.748,1.295-2.664-.854-3.143-3.948-3.143-3.948S52.588,2.82,56.823,2.149a57.781,57.781,0,0,1,6.7-.075Z" transform="translate(-39.929 -1.51)" fill="#eaf3d2"/>
                <path id="Path_308" data-name="Path 308" d="M69.1,12.957l-1.128-.443c-.081-.032-8.31-3.223-12.476-2.055-3.887,1.074-10.118,1.9-12.028,1.289-2.909-.935-3.446-4.2-3.476-4.338l-.062-.389.373-.14c.5-.185,12.21-4.542,16.443-5.224a57.829,57.829,0,0,1,6.793-.081h.3ZM57.669,9.234A32.859,32.859,0,0,1,67.215,11.2L63.2,2.541a52.557,52.557,0,0,0-6.3.081c-3.72.6-13.73,4.244-15.86,5.025a4.474,4.474,0,0,0,2.721,3.177c1.676.537,7.811-.269,11.469-1.3A9.224,9.224,0,0,1,57.669,9.234Z" transform="translate(-39.929 -1.51)" fill="#95c11f"/>
              </g>
              <g id="Group_296" data-name="Group 296" transform="translate(3.419)">
                <path id="Path_309" data-name="Path 309" d="M93.763,15.686s-6.887-3.83-12.277-6.54c-5-2.511-15.2-8.633-15.2-8.633S56.694,2.334,52.762,6.575s-8.8,16.167-8.8,16.167,3.548,2.009,6.21-.046,5.442-7.574,6.234-8.506a38.044,38.044,0,0,1,4.956-3.446L78.16,19.2Z" transform="translate(-43.348)" fill="#eaf3d2"/>
                <path id="Path_310" data-name="Path 310" d="M47.334,24.114a8.085,8.085,0,0,1-3.613-.948l-.373-.209.164-.395c.2-.492,4.95-12.057,8.9-16.314C56.4,1.934,65.805.11,66.192.035L66.375,0l.158.1c.1.059,10.247,6.14,15.17,8.614C87.043,11.4,93.929,15.221,94,15.261l1.115.618-17,3.835L61.381,11.308a32.1,32.1,0,0,0-4.614,3.2c-.2.234-.586.878-1.037,1.612-1.3,2.149-3.271,5.42-5.259,6.954a5.012,5.012,0,0,1-3.137,1.045ZM44.586,22.5c.94.414,3.4,1.262,5.289-.2,1.845-1.424,3.833-4.719,5.023-6.688a18.882,18.882,0,0,1,1.12-1.746c.806-.97,4.66-3.282,5.1-3.543l.228-.137,16.892,8.493L92.4,15.492c-2.173-1.2-7.1-3.887-11.139-5.909-4.6-2.331-13.733-7.765-15.06-8.557-1.324.269-9.589,2.117-13.075,5.879-3.414,3.685-7.631,13.451-8.536,15.6Z" transform="translate(-43.348)" fill="#95c11f"/>
              </g>
              <g id="Group_297" data-name="Group 297" transform="translate(12.302 11.469)">
                <path id="Path_311" data-name="Path 311" d="M123.015,16.935s-13.986,1.692-22.634-.188c-10.717-2.329-12.436-1.95-18.619-2.536-8.608-.806-16.983-3.551-20.252-1.526S55.333,30.37,54.465,34.906c-.776,4-1.679,9.044-1.679,9.044s4.808.894,7.687-5.412a40.762,40.762,0,0,0,3.027-8.1,24.977,24.977,0,0,0,4.26-7.88c4.375,2.149,12.382,5.818,17.835,6.653a14.876,14.876,0,0,1-.14,2.724c-4.5,1.023-9.03,1.993-10.542,1.88-9.038-.645-13.873,3.449-16.347,6.61s-.282,5.871,3.881,5.232A79.156,79.156,0,0,1,79.788,44.6c5.216.389,16.1,1.759,26.252,3.253s13.658-1.612,19.8-7.521c2.476-2.385,8.506-8.026,8.506-8.026" transform="translate(-52.23 -11.469)" fill="#eaf3d2"/>
                <path id="Path_312" data-name="Path 312" d="M110.714,48.728a32.621,32.621,0,0,1-4.743-.381c-10.66-1.569-21.2-2.877-26.22-3.25a77.958,77.958,0,0,0-17.23,1.056c-2.361.363-4.263-.269-5.084-1.671a2.836,2.836,0,0,1-.365-1.074,6.828,6.828,0,0,1-4.365,1.029l-.475-.089.086-.475c0-.051.913-5.1,1.681-9.052l.126-.645c1.783-9.242,4.206-20.083,7.139-21.9,2.331-1.442,6.685-.7,12.2.244,2.7.462,5.49.937,8.359,1.211,1.469.137,2.672.223,3.835.3a86.4,86.4,0,0,1,14.84,2.24c8.469,1.843,22.333.2,22.473.18l.115.967c-.575.07-14.166,1.681-22.8-.193a84.692,84.692,0,0,0-14.7-2.224c-1.168-.081-2.377-.164-3.857-.3-2.9-.269-5.713-.757-8.431-1.222-5.1-.87-9.5-1.612-11.52-.376-2.955,1.826-5.769,16.449-6.7,21.256l-.124.645c-.623,3.2-1.343,7.118-1.585,8.514a6.043,6.043,0,0,0,3.76-1.311,5.42,5.42,0,0,1,1.053-2.068,18.076,18.076,0,0,1,2.031-2.2,37.521,37.521,0,0,0,2.823-7.593l.03-.132.091-.1a24.16,24.16,0,0,0,4.152-7.7l.175-.537.5.247c4.284,2.108,12.283,5.775,17.695,6.607l.287.043.1.269c.046.129.153.432-.113,2.938l-.038.344-.338.078c-5.345,1.217-9.21,2-10.687,1.9-5.667-.408-10.311,1-13.854,4.193-.038.078-.073.158-.107.239a11.012,11.012,0,0,1-2.89,3.964,2,2,0,0,0,.236,1.278c.6,1.031,2.176,1.491,4.1,1.2a79.217,79.217,0,0,1,17.458-1.074c5.041.376,15.605,1.684,26.287,3.258,9.734,1.434,13.161-1.391,19.4-7.4,2.45-2.358,8.453-7.972,8.512-8.031l.663.712c-.059.056-6.057,5.665-8.5,8.02C120.834,45.835,117.474,48.728,110.714,48.728ZM63.957,30.679a32.484,32.484,0,0,1-2.068,5.909,19.681,19.681,0,0,1,13.067-3.25c1.407.1,5.828-.838,10.061-1.8.1-.994.132-1.587.134-1.907-5.315-.916-12.772-4.279-17.1-6.392a25.413,25.413,0,0,1-4.091,7.435Z" transform="translate(-52.23 -11.469)" fill="#95c11f"/>
              </g>
              <path id="Path_313" data-name="Path 313" d="M59,44.42c-1.424-1.88,1.343-4.271,4.128-5.044a30.258,30.258,0,0,1,4-.913s1.029,4.512.561,5.318C65.268,44.568,60.1,45.876,59,44.42Z" transform="translate(-39.929)" fill="#d0e49c"/>
              <path id="Path_314" data-name="Path 314" d="M52.795,43.952s2.149-.712,2.861-4.144l.725-3.433-2.125-.32Z" transform="translate(-39.929)" fill="#d0e49c"/>
              <path id="Path_315" data-name="Path 315" d="M43.961,22.744s2.227-.167,3.709-3.344l1.483-3.18-1.88-.739S46.1,17.63,45.5,19.065C44.949,20.349,43.961,22.744,43.961,22.744Z" transform="translate(-39.929)" fill="#d0e49c"/>
              <path id="Path_316" data-name="Path 316" d="M40.482,7.322s1.056,1.563,4.461.733a12.983,12.983,0,0,0,3.325-1.1l-.782-2.111Z" transform="translate(-39.929)" fill="#d0e49c"/>
              <path id="Path_317" data-name="Path 317" d="M67.771,22.562s-.685-1.26-1.483-2.914a13.873,13.873,0,0,1-1.074-3.116,3.794,3.794,0,0,1,2.775,2.452A5.191,5.191,0,0,1,67.771,22.562Z" transform="translate(-39.929)" fill="#95c11f"/>
              <path id="Path_318" data-name="Path 318" d="M63.511,30.442a22.128,22.128,0,0,1-1.92-1.16,6.555,6.555,0,0,1-2.047-1.762,11.746,11.746,0,0,1,2.256.913,3.865,3.865,0,0,1,1.711,2.009Z" transform="translate(-39.929)" fill="#95c11f"/>
            </g>
          </g>
        </g>
      </g>
    </g>
  </g>
</svg>
