<svg xmlns="http://www.w3.org/2000/svg" xmlns:xlink="http://www.w3.org/1999/xlink" width="187.823" height="209.137" viewBox="0 0 187.823 209.137">
  <defs>
    <clipPath id="clip-path">
      <rect id="Rectangle_348" data-name="Rectangle 348" width="187.823" height="209.137" rx="14" fill="#fff" stroke="#707070" stroke-width="1"/>
    </clipPath>
    <linearGradient id="linear-gradient" x1="-16.71" y1="-0.364" x2="-16.71" y2="-0.366" gradientUnits="objectBoundingBox">
      <stop offset="0" stop-color="#f2ffcc"/>
      <stop offset="1" stop-color="#95c11f"/>
    </linearGradient>
    <radialGradient id="radial-gradient" cx="-23.993" cy="-0.585" r="0.001" gradientTransform="translate(-0.05) scale(1.101 1)" gradientUnits="objectBoundingBox">
      <stop offset="0" stop-color="#95c11f"/>
      <stop offset="1" stop-color="#95c11f" stop-opacity="0"/>
    </radialGradient>
    <linearGradient id="linear-gradient-2" x1="-56.076" y1="-1.003" x2="-56.076" y2="-1.009" xlink:href="#linear-gradient"/>
  </defs>
  <g id="Mask_Group_125" data-name="Mask Group 125" clip-path="url(#clip-path)">
    <g id="Layer_2" data-name="Layer 2" transform="translate(0 10.657)">
      <g id="Layer_1" data-name="Layer 1">
        <rect id="Rectangle_297" data-name="Rectangle 297" width="187.823" height="187.823" rx="8.547" opacity="0.5" fill="url(#linear-gradient)"/>
        <path id="Path_347" data-name="Path 347" d="M154.659,116.472c-3.107-2.621-4.279-4.282-11.669-13.939a17.02,17.02,0,0,0-2.9-2.381A70.233,70.233,0,0,0,119.82,91.39a5.308,5.308,0,0,0-2.471-.1v-68.6a5.742,5.742,0,0,0-5.742-5.739H51.973a5.739,5.739,0,0,0-5.742,5.735h0v124.5a5.742,5.742,0,0,0,5.725,5.76h59.651a5.725,5.725,0,0,0,4.567-2.294c1.575.278,3.007.483,4.2.584,8.6.74,18.423,1.96,22.816,3.264s21.276,8.467,21.276,8.467L176.579,132.5l2.325-5.84S157.676,119.017,154.659,116.472Z" opacity="0.5" fill="url(#radial-gradient)"/>
        <g id="Group_307-2" data-name="Group 307-2" transform="translate(95.693 90.592)">
          <path id="Path_348" data-name="Path 348" d="M182.363,132.521c-4.519-2.492-14.547-7.88-18.85-9.225-5.641-1.766-9.83-6.316-11.87-12.646a38.742,38.742,0,0,0-5.77-10.473A70.233,70.233,0,0,0,125.6,91.414c-8.843-2.12-2.5,12.3-4.171,18.722a2.3,2.3,0,0,1-.633,1.116c-.271,1.363-.528,2.812-.7,4.237a21.318,21.318,0,0,0,2.291,12.548s-22.5,8.294-25.826,16.372c0,0,21.016,6.09,29.619,6.83S144.607,153.2,149,154.5s21.276,8.467,21.276,8.467" transform="translate(-95.693 -90.592)" fill="#eaf3d2"/>
          <path id="Path_349" data-name="Path 349" d="M170,163.551c-.167-.073-16.886-7.164-21.2-8.443-4.519-1.338-14.686-2.551-22.695-3.24-8.568-.737-28.878-6.6-29.737-6.855l-.674-.195.268-.65c3.094-7.532,21.648-14.988,25.514-16.469a22.045,22.045,0,0,1-2.04-12.274c.167-1.293.41-2.732.72-4.275l.038-.195.143-.139a1.707,1.707,0,0,0,.459-.82c.556-2.12.174-5.294-.2-8.36-.525-4.341-1.018-8.443.966-10.212.956-.852,2.322-1.043,4.171-.6a70.444,70.444,0,0,1,20.48,8.853l.087.059.066.087a38.637,38.637,0,0,1,5.86,10.657c2,6.2,6.072,10.55,11.471,12.235,4.408,1.39,14.735,6.952,18.968,9.277l-.608,1.1c-4.2-2.312-14.436-7.835-18.735-9.177-5.791-1.811-10.15-6.448-12.281-13.052a38.171,38.171,0,0,0-5.61-10.2,69.031,69.031,0,0,0-19.98-8.617c-1.422-.348-2.433-.236-3.045.323-1.495,1.331-1.015,5.29-.553,9.121.382,3.181.782,6.472.163,8.829a2.948,2.948,0,0,1-.66,1.258c-.285,1.449-.511,2.8-.667,4.011a20.915,20.915,0,0,0,2.221,12.128l.382.65-.7.264c-.216.08-21.078,7.842-25.152,15.378,3.744,1.067,21.228,5.958,28.788,6.6,8.064.7,18.329,1.922,22.941,3.288,4.387,1.3,20.651,8.2,21.342,8.492Z" transform="translate(-95.693 -90.592)" fill="#95c11f"/>
        </g>
        <path id="Path_350" data-name="Path 350" d="M160.45,116.5c-3.128-2.621-3.824-4.661-11.2-14.317a13.507,13.507,0,0,0-2.962-2.475,42.689,42.689,0,0,1,5.363,10.949c2.04,6.33,6.229,10.88,11.87,12.642,4.3,1.345,14.321,6.736,18.85,9.229l2.325-5.84S163.46,119.041,160.45,116.5Z" fill="#95c11f"/>
        <g id="Group_308" data-name="Group 308" transform="translate(51.385 16.361)">
          <rect id="Rectangle_298" data-name="Rectangle 298" width="71.115" height="135.976" rx="3.167" transform="translate(0.629 0.612)" fill="#eaf3d2"/>
          <path id="Path_351" data-name="Path 351" d="M117.39,153.578H57.757a6.378,6.378,0,0,1-6.371-6.368V22.712a6.371,6.371,0,0,1,6.371-6.351H117.39a6.375,6.375,0,0,1,6.354,6.368V147.207a6.378,6.378,0,0,1-6.354,6.371ZM57.757,17.6a5.11,5.11,0,0,0-5.11,5.11V147.207a5.11,5.11,0,0,0,5.11,5.11H117.39a5.117,5.117,0,0,0,5.11-5.11V22.712a5.12,5.12,0,0,0-5.11-5.11Z" transform="translate(-51.385 -16.361)" fill="#95c11f"/>
        </g>
        <path id="Rectangle_299" data-name="Rectangle 299" d="M59.738,23.723H115.4a.723.723,0,0,1,.72.723V133a.726.726,0,0,1-.726.726H59.738a.726.726,0,0,1-.726-.726V24.45A.726.726,0,0,1,59.738,23.723Z" opacity="0.5" fill="url(#linear-gradient-2)"/>
        <path id="Path_352" data-name="Path 352" d="M114.821,134.353H60.343A1.943,1.943,0,0,1,58.4,132.41V25.051a1.94,1.94,0,0,1,1.926-1.957h54.5a1.943,1.943,0,0,1,1.943,1.933V132.434a1.95,1.95,0,0,1-1.943,1.919Zm-54.479-110a.7.7,0,0,0-.7.7V132.434a.7.7,0,0,0,.7.7h54.479a.7.7,0,0,0,.7-.7V25.051a.7.7,0,0,0-.7-.7Z" fill="#95c11f"/>
        <g id="Group_309" data-name="Group 309" transform="translate(82.05 137.749)">
          <circle id="Ellipse_29" data-name="Ellipse 29" cx="4.894" cy="4.894" r="4.894" transform="translate(0.629 0.619)" fill="#eaf3d2"/>
          <path id="Path_353" data-name="Path 353" d="M87.573,148.8a5.523,5.523,0,1,1,5.523-5.523h0a5.53,5.53,0,0,1-5.523,5.523Zm0-9.785a4.265,4.265,0,1,0,4.258,4.268h0a4.258,4.258,0,0,0-4.258-4.265Z" transform="translate(-82.05 -137.749)" fill="#95c11f"/>
        </g>
        <g id="Group_312" data-name="Group 312" transform="translate(88.394 94.884)">
          <g id="Group_311" data-name="Group 311">
            <path id="Path_354" data-name="Path 354" d="M137.3,98.6a18.012,18.012,0,0,0-13.09-2.885c-6.493,1.018-15.694.577-21.158,4.5-2.329,1.672-5.485,4.609-8.944,7.112-3.8,2.753-5.951,6.337-4.56,9.879,1.95,4.946,7.515,6.726,13.9,2.962,3.031-1.783,5.04-4.4,8.092-6a8.422,8.422,0,0,1,5.4-1.043s2.889,13.049,5.562,18.423c1.071,2.155,10.23,7.762,10.23,7.762" transform="translate(-88.394 -94.884)" fill="#eaf3d2"/>
            <path id="Path_355" data-name="Path 355" d="M137.3,98.6a24.374,24.374,0,0,0-5.252-1.915,20.484,20.484,0,0,0-5.457-.591,21.553,21.553,0,0,0-2.756.292c-.949.143-1.9.25-2.847.348-1.9.191-3.778.348-5.648.546a48.688,48.688,0,0,0-5.53.879,19.57,19.57,0,0,0-5.137,1.867,16.066,16.066,0,0,0-2.239,1.554c-.73.58-1.453,1.182-2.179,1.79-1.449,1.213-2.906,2.433-4.425,3.608l-1.151.859c-.382.278-.737.546-1.088.838a14.091,14.091,0,0,0-1.912,1.9,7.023,7.023,0,0,0-1.811,4.679,5.909,5.909,0,0,0,.7,2.405A7.275,7.275,0,0,0,92.1,119.7a6.952,6.952,0,0,0,4.706,1.738,11.933,11.933,0,0,0,5.134-1.286,20.884,20.884,0,0,0,4.519-3.107,26.5,26.5,0,0,1,4.689-3.438,10.8,10.8,0,0,1,2.84-1.022,8.419,8.419,0,0,1,3.094-.073h0l.375.076.1.4c.65,2.586,1.335,5.179,2.03,7.755s1.463,5.134,2.329,7.647c.212.629.459,1.234.7,1.849l.4.89a1.877,1.877,0,0,0,.191.348,3.155,3.155,0,0,0,.264.348,24.894,24.894,0,0,0,2.93,2.579c2.086,1.644,4.241,3.24,6.354,4.918a48.909,48.909,0,0,1-7.014-4.036,20.185,20.185,0,0,1-3.2-2.631c-.129-.143-.25-.292-.365-.445a2.78,2.78,0,0,1-.3-.521l-.445-.939c-.264-.629-.539-1.255-.772-1.894a75.139,75.139,0,0,1-2.433-7.727c-.716-2.6-1.324-5.214-1.863-7.863l.476.48h0a5.777,5.777,0,0,0-1.248-.052,8.577,8.577,0,0,0-1.3.174,9.486,9.486,0,0,0-2.471.935,25.921,25.921,0,0,0-4.414,3.313c-2.819,2.527-6.437,4.786-10.574,4.814a8.422,8.422,0,0,1-5.7-2.134,8.51,8.51,0,0,1-1.867-2.464,7.324,7.324,0,0,1-.859-3.01,7.136,7.136,0,0,1,.56-3.09,10.244,10.244,0,0,1,1.585-2.6,15.464,15.464,0,0,1,2.11-2.1c.375-.313.779-.615,1.161-.9l1.126-.838c1.481-1.144,2.941-2.336,4.4-3.542.733-.6,1.47-1.206,2.228-1.794A17.33,17.33,0,0,1,104,98.8a20.856,20.856,0,0,1,5.52-1.957,49.807,49.807,0,0,1,5.69-.852c1.894-.191,3.789-.323,5.662-.5.939-.087,1.87-.184,2.781-.313a23,23,0,0,1,2.868-.288,16.844,16.844,0,0,1,5.77.81,13.035,13.035,0,0,1,5.005,2.9Z" transform="translate(-88.394 -94.884)" fill="#95c11f"/>
          </g>
          <path id="Path_356" data-name="Path 356" d="M102.127,116.563c-2.433,2.3-8.162,4.418-10.65.7-2.117-3.167.288-5.436,2.162-6.684,1.526-1.015,3.163-1.926,3.163-1.926Z" transform="translate(-88.394 -94.884)" fill="#d0e49c"/>
        </g>
        <path id="Path_645" data-name="Path 645" d="M77.705,86.1H97.431V84.118a3.146,3.146,0,0,1,3.128-3.128h4.171a3.149,3.149,0,0,1,3.128,3.128v7.936a3.709,3.709,0,0,1-3.705,3.7H70.969a3.709,3.709,0,0,1-3.705-3.7V84.118a3.149,3.149,0,0,1,3.146-3.128h4.154a3.149,3.149,0,0,1,3.146,3.128v1.988Zm-1.929,1.936H99.367V84.118a1.213,1.213,0,0,1,1.21-1.21h4.171a1.21,1.21,0,0,1,1.21,1.21v7.936a1.773,1.773,0,0,1-1.769,1.769H70.969A1.773,1.773,0,0,1,69.2,92.054V84.118a1.21,1.21,0,0,1,1.21-1.21h4.154a1.21,1.21,0,0,1,1.213,1.21v3.924ZM79.3,69.144c-.414,0-1,.636-.348,1.449l8.029,10.049a.64.64,0,0,0,1.074,0l8.04-10.063c.657-.824.372-1.449-.042-1.449H92.52V60.207A1.21,1.21,0,0,0,91.313,59H83.819a1.21,1.21,0,0,0-1.2,1.206v8.937Zm1.39-1.933v-7a3.128,3.128,0,0,1,3.128-3.128h7.5a3.128,3.128,0,0,1,3.128,3.128v7h1.6c2.433,0,2.972,2.812,1.554,4.588l-8.04,10.08a2.572,2.572,0,0,1-4.1,0L77.417,71.8c-1.46-1.828-.462-4.588,1.867-4.588Z" fill="#95c11f" fill-rule="evenodd"/>
      </g>
    </g>
  </g>
</svg>
