<svg xmlns="http://www.w3.org/2000/svg" xmlns:xlink="http://www.w3.org/1999/xlink" width="187.823" height="209.137" viewBox="0 0 187.823 209.137">
  <defs>
    <clipPath id="clip-path">
      <rect id="Rectangle_346" data-name="Rectangle 346" width="187.823" height="209.137" rx="14" fill="#fff" stroke="#707070" stroke-width="1"/>
    </clipPath>
    <linearGradient id="linear-gradient" x1="-8.62" y1="-0.137" x2="-8.62" y2="-0.139" gradientUnits="objectBoundingBox">
      <stop offset="0" stop-color="#f2ffcc"/>
      <stop offset="1" stop-color="#95c11f"/>
    </linearGradient>
    <linearGradient id="linear-gradient-2" x1="-10.845" y1="0.074" x2="-10.845" y2="0.072" xlink:href="#linear-gradient"/>
  </defs>
  <g id="Mask_Group_123" data-name="Mask Group 123" clip-path="url(#clip-path)">
    <g id="Layer_2" data-name="Layer 2" transform="translate(13.98)">
      <g id="Layer_1" data-name="Layer 1">
        <rect id="Rectangle_202" data-name="Rectangle 202" width="159.864" height="159.864" rx="7.27" transform="translate(0 30.598)" opacity="0.5" fill="url(#linear-gradient)"/>
        <g id="Layer_2-2" data-name="Layer 2" transform="translate(24.601)">
          <g id="Layer_1-2" data-name="Layer 1-2">
            <g id="Group_204" data-name="Group 204">
              <g id="phone" transform="translate(0.956)">
                <path id="Path_111" data-name="Path 111" d="M121.875,209.137H40.655a15.113,15.113,0,0,1-15.1-15.1V15.1A15.116,15.116,0,0,1,40.655,0h81.219a15.113,15.113,0,0,1,15.077,15.1v178.95a15.113,15.113,0,0,1-15.077,15.092ZM40.655,1.336A13.777,13.777,0,0,0,26.9,15.1v178.95A13.771,13.771,0,0,0,40.661,207.8h81.213a13.771,13.771,0,0,0,13.759-13.756V15.1A13.774,13.774,0,0,0,121.875,1.339Z" transform="translate(-25.557)" fill="#95c11f"/>
                <path id="Path_112" data-name="Path 112" d="M123.093,5.354h-14.3V6.643a4.816,4.816,0,0,1-4.816,4.816H59.2a4.816,4.816,0,0,1-4.8-4.816h0V5.354H39.712a9.165,9.165,0,0,0-9.165,9.165h0V194.967a9.165,9.165,0,0,0,9.165,9.165h83.369a9.165,9.165,0,0,0,9.165-9.165V14.53a9.165,9.165,0,0,0-9.165-9.165Z" transform="translate(-25.557)" opacity="0.5" fill="url(#linear-gradient-2)"/>
                <path id="Path_113" data-name="Path 113" d="M103.98,12.121H59.2a5.493,5.493,0,0,1-5.475-5.478V5.354h1.336V6.643A4.139,4.139,0,0,0,59.2,10.782h44.78a4.139,4.139,0,0,0,4.139-4.139V5.354h1.339V6.643A5.5,5.5,0,0,1,103.98,12.121Z" transform="translate(-25.557)" fill="#95c11f"/>
              </g>
              <g id="accent" transform="translate(0 29.871)">
                <g id="Layer_13" data-name="Layer 13" transform="translate(0 47.224)">
                  <path id="Path_114" data-name="Path 114" d="M72.661,85.813c.275-.432,10.672,4.789,22.356-2.04s4.857,65.039,4.857,65.039l-.949,37.306L97.6,204.135H68.489l-5.972-56.7S68.6,92.238,72.661,85.813Z" transform="translate(-24.601 -77.095)" fill="#b7d567"/>
                  <path id="Path_115" data-name="Path 115" d="M125.233,96.421c-4.757-4.089-26.642-12.393-26.642-12.393L95.016,90.41s1.159,79.171.562,95.489v18.252h26.713l.133-41.229c7.725-1.96,13.661-5.215,16.922-8.786,3.7-4.053,4.6-6.341,4.6-11.728S129.987,100.515,125.233,96.421Z" transform="translate(-24.601 -77.095)" fill="#eaf3d2"/>
                  <path id="Path_116" data-name="Path 116" d="M122.951,204.143h-1.339l.139-41.746.5-.127c7.234-1.836,13.283-4.967,16.591-8.591,3.595-3.935,4.434-6.043,4.434-11.275,0-5.6-14.048-41.684-18.471-45.474C120.2,92.965,98.582,84.74,98.366,84.657l.473-1.253c.887.343,22.054,8.393,26.841,12.511,4.73,4.071,18.935,40.537,18.935,46.488,0,5.59-.937,7.982-4.772,12.18-3.4,3.725-9.487,6.936-16.751,8.851Z" transform="translate(-24.601 -77.095)" fill="#95c11f"/>
                  <path id="Path_117" data-name="Path 117" d="M70.257,155.47l.39-.63V84.74S48.771,93.042,44,97.13s-18.581,41.891-18.714,47.278c-.523,21.383,18.072,48.345,18.072,48.345a10.476,10.476,0,0,0,1.738-1.047c-.364,4.981-.979,12.417-.979,12.417H73.137s.095-22.155,0-23.169C73.1,180.375,71.517,166.574,70.257,155.47Z" transform="translate(-24.601 -77.095)" fill="#eaf3d2"/>
                  <path id="Path_118" data-name="Path 118" d="M44.788,204.2l-1.333-.112c0-.068.517-6.256.887-11.077a7.349,7.349,0,0,1-.71.37l-.5.216-.3-.449c-.21-.272-18.731-27.4-18.223-48.753.13-5.4,13.957-43.485,18.944-47.771C48.345,92.507,69.5,84.453,70.4,84.114l.473,1.251c-.219.083-21.832,8.307-26.444,12.275S26.1,139.323,25.96,144.426c-.461,19.355,15.148,43.73,17.626,47.47.275-.154.656-.39,1.132-.724l1.153-.813-.1,1.41C45.409,196.694,44.794,204.126,44.788,204.2Z" transform="translate(-24.601 -77.095)" fill="#95c11f"/>
                  <g id="Group_160" data-name="Group 160" transform="translate(81.605 47.78)">
                    <g id="Group_159" data-name="Group 159">
                      <path id="Path_119" data-name="Path 119" d="M116.813,136.39l-4.89,2.9a.364.364,0,0,1-.364,0l-5.168-2.906a.364.364,0,0,1-.186-.316V125.239a.364.364,0,0,1,.364-.364h10.052a.364.364,0,0,1,.364.364h0v10.838a.358.358,0,0,1-.171.313Z" transform="translate(-106.206 -124.875)" fill="#d5e1ed"/>
                    </g>
                  </g>
                  <g id="Group_162" data-name="Group 162" transform="translate(81.605 49.959)">
                    <g id="Group_161" data-name="Group 161">
                      <path id="Path_120" data-name="Path 120" d="M116.813,136.393l-4.89,2.9a.364.364,0,0,1-.364,0l-5.168-2.906a.367.367,0,0,1-.186-.319v-8.65a.364.364,0,0,1,.364-.364h10.052a.364.364,0,0,1,.364.364h0v8.65A.367.367,0,0,1,116.813,136.393Z" transform="translate(-106.206 -127.054)" fill="#b8ddff"/>
                    </g>
                  </g>
                  <g id="Group_164" data-name="Group 164" transform="translate(69.327 0.006)">
                    <g id="Group_163" data-name="Group 163">
                      <path id="Path_121" data-name="Path 121" d="M95.578,182.051h0L93.929,77.1s1.706.733,5.07,4.139c4.2,4.263,7.018,11.651,7.018,11.651l-7.592-1.478,9.85,9.933-7.057,44.883-3.622.837,2.661,5.321Z" transform="translate(-93.929 -77.101)" fill="#eaf3d2"/>
                    </g>
                  </g>
                  <g id="Group_166" data-name="Group 166" transform="translate(34.174)">
                    <g id="Group_165" data-name="Group 165">
                      <path id="Path_122" data-name="Path 122" d="M73.137,180.978V77.1s-1.709.733-5.07,4.139C63.86,85.5,61.045,92.885,61.045,92.885l7.595-1.478-9.865,9.927Z" transform="translate(-58.775 -77.095)" fill="#eaf3d2"/>
                    </g>
                  </g>
                  <path id="Path_123" data-name="Path 123" d="M84.944,189.456a67.085,67.085,0,0,1-11.766-1.011v-.612c.115.024,11.651,2.3,22.4-.03v.612a50.554,50.554,0,0,1-10.631,1.041Z" transform="translate(-24.601 -77.095)" fill="#95c11f"/>
                  <g id="Group_167" data-name="Group 167" transform="translate(48.533 15.024)">
                    <path id="Path_124" data-name="Path 124" d="M83.481,95.436a25.631,25.631,0,0,1-10.347-2.126v-.733c.1.05,10.7,5.082,21.028-.458v.71A22.125,22.125,0,0,1,83.481,95.436Z" transform="translate(-73.134 -92.119)" fill="#95c11f"/>
                  </g>
                  <path id="Path_125" data-name="Path 125" d="M34.926,144.44s7.9,1.517,12.009,5.617C46.935,150.066,36.694,144.946,34.926,144.44Z" transform="translate(-24.601 -77.095)" fill="#95c11f" opacity="0.5"/>
                  <path id="Path_126" data-name="Path 126" d="M55.875,179.656l1.656,2.01s-3.335,8.159-7.036,12.464l-3-4.177A35.637,35.637,0,0,0,55.875,179.656Z" transform="translate(-24.601 -77.095)" fill="#e8f1ce"/>
                  <path id="Path_127" data-name="Path 127" d="M44.28,144.44c.189.316,2.844,2.844,3.731,5.321l-4.183-4.751Z" transform="translate(-24.601 -77.095)" fill="#95c11f" opacity="0.5"/>
                  <path id="Path_128" data-name="Path 128" d="M52.7,117.009c-.021-.378-2.427,31.435-3.459,35.6l7.982,24.452S52.992,186.6,45.1,191.718c0,0,5.058-.754,13.023-11.754,0,0-3.982,11.379-9.608,16.183,0,0,8.848-5.245,11.441-21.176L51.609,152.6S53.066,124.086,52.7,117.009Z" transform="translate(-24.601 -77.095)" fill="#95c11f" opacity="0.5"/>
                  <path id="Path_129" data-name="Path 129" d="M121.505,139.042h0l-2.927-23.964.908,24.724c-9.815,3.728-20.4,8.177-20.4,8.177s5.617-1.446,12.517-3.284,19.745-9.04,19.745-9.04C128.707,136.426,125.212,137.656,121.505,139.042Z" transform="translate(-24.601 -77.095)" fill="#95c11f" opacity="0.5"/>
                </g>
                <g id="Layer_21" data-name="Layer 21" transform="translate(56.246 91.176)">
                  <path id="Path_130" data-name="Path 130" d="M101.012,166.784c1.138-11.565-2.188-18.693-1.8-18.867,3.755-1.694,13.088-5.363,20.606-8.278l.319-17.04-38.4-1.552-.887,56.723,38.293-1.555.231-12.381a144.125,144.125,0,0,1-18.359,2.95Z" transform="translate(-80.847 -121.047)" fill="#95c11f"/>
                </g>
                <g id="Layer_6" data-name="Layer 6" transform="translate(41.291 6.202)">
                  <g id="Group_169" data-name="Group 169" transform="translate(30.564 19.78)">
                    <g id="Group_168" data-name="Group 168">
                      <path id="Path_131" data-name="Path 131" d="M100.323,63.422c-1.094,3.944-3.027,6.965-3.867,6.732,0,0,.591-2.513,1.381-6.528.914-4.659,1.041-7.944,2.956-7.766C101.65,55.94,101.417,59.478,100.323,63.422Z" transform="translate(-96.456 -55.853)" fill="#95c11f"/>
                    </g>
                  </g>
                  <g id="Group_171" data-name="Group 171" transform="translate(0 19.78)">
                    <g id="Group_170" data-name="Group 170">
                      <path id="Path_132" data-name="Path 132" d="M66.887,63.422c1.094,3.944,2.909,6.989,3.749,6.755a64.615,64.615,0,0,1-1.422-6.669c-.727-4.692-.887-7.825-2.791-7.648C65.551,55.94,65.787,59.478,66.887,63.422Z" transform="translate(-65.892 -55.853)" fill="#95c11f"/>
                    </g>
                  </g>
                  <g id="Group_173" data-name="Group 173" transform="translate(7.253 38.923)">
                    <g id="Group_172" data-name="Group 172">
                      <path id="Path_133" data-name="Path 133" d="M94.085,86.325s-1.443,3.808-10.542,3.808-10.4-3.58-10.4-3.58V75H93.94Z" transform="translate(-73.146 -74.996)" fill="#d0e49c"/>
                    </g>
                  </g>
                  <g id="Group_175" data-name="Group 175" transform="translate(7.238 35.893)" opacity="0.6">
                    <g id="Group_174" data-name="Group 174">
                      <path id="Path_134" data-name="Path 134" d="M93.94,77.935c-1.877,3.923-9.224,7-10.412,7S76.1,82.573,73.131,78V71.966H93.926Z" transform="translate(-73.131 -71.966)" fill="#95c11f"/>
                    </g>
                  </g>
                  <g id="Group_178" data-name="Group 178" transform="translate(0.273)">
                    <g id="Group_177" data-name="Group 177">
                      <g id="Group_176" data-name="Group 176">
                        <path id="Path_135" data-name="Path 135" d="M96.45,70.154C92.985,81.542,83.525,81.731,83.525,81.731s-10-.027-12.981-11.849c-1.972-7.8-6.711-19.748-1.029-28.605,3.216-5.026,26.607-7.012,29.365,0S98.49,63.475,96.45,70.154Z" transform="translate(-66.165 -36.073)" fill="#eaf3d2"/>
                        <path id="Path_136" data-name="Path 136" d="M83.543,82.4c-.118,0-10.563-.171-13.643-12.357-.278-1.112-.618-2.312-.976-3.577-2.108-7.477-5-17.714.035-25.552,2.282-3.548,12.99-5.434,20.694-4.677,3.787.372,8.573,1.508,9.865,4.792,3.01,7.663-.718,23.76-2.409,29.315h0C93.532,82.065,83.643,82.4,83.543,82.4Zm2.486-44.992c-7.009,0-14.406,1.845-15.938,4.231-4.706,7.329-2.025,16.827.127,24.464.361,1.277.7,2.483.984,3.613C74.021,80.87,83.153,81.06,83.54,81.063s8.993-.355,12.278-11.107c2.3-7.548,4.993-21.945,2.445-28.434-.8-2.043-3.991-3.483-8.754-3.95C88.394,37.46,87.212,37.409,86.029,37.409Z" transform="translate(-66.165 -36.073)" fill="#95c11f"/>
                      </g>
                    </g>
                  </g>
                  <g id="Group_179" data-name="Group 179" transform="translate(11.445 112.281)">
                    <path id="Path_137" data-name="Path 137" d="M99.965,151.136l-3.923.591c-5.005.435-6.859-3.423-11.278-2.853s-3.9,2.327-3.9,2.327c-2.93.08-2.158,4.139-2.158,4.139-1.387,2.069.056,4.434.056,4.434-1.008,1.428.337,3.589.337,3.589.375,2.347,3.225,4.29,6.288,4.612.106,0,.207.018.313.027l.328.018h.349a3.781,3.781,0,0,0,.485-.021h.059a3.252,3.252,0,0,0,.414-.035c3.7-.506,13.895-4.633,13.895-4.633C101.4,155.385,99.965,151.136,99.965,151.136Z" transform="translate(-77.337 -148.354)" fill="#eaf3d2"/>
                    <path id="Path_138" data-name="Path 138" d="M99.965,151.136l-2.575.473-1.259.237a8.932,8.932,0,0,1-1.319.065,12.005,12.005,0,0,1-5.026-1.478,8.113,8.113,0,0,0-4.748-1.064,9.6,9.6,0,0,0-2.365.591,2.917,2.917,0,0,0-.908.562.967.967,0,0,0-.222.322.44.44,0,0,0-.035.136v.033h0l-.624.863a1.709,1.709,0,0,0-.863.3,1.685,1.685,0,0,0-.5.76,3.669,3.669,0,0,0-.169,1.1,6.338,6.338,0,0,0,.092,1.183l.05.269-.166.3a3.034,3.034,0,0,0-.361.834,2.957,2.957,0,0,0-.092.922,4.121,4.121,0,0,0,.171.967,4.568,4.568,0,0,0,.37.887l.239.42-.269.432a1.567,1.567,0,0,0-.21.544,2.527,2.527,0,0,0,.018.7,3.979,3.979,0,0,0,.216.76,5.979,5.979,0,0,0,.34.724l.086.151.021.136a3.843,3.843,0,0,0,1.3,2.185,7.341,7.341,0,0,0,2.427,1.425,8.056,8.056,0,0,0,2.809.5,12.174,12.174,0,0,0,2.918-.452c1.984-.488,3.967-1.106,5.951-1.7l5.951-1.862h0c0-1.026,0-2.052-.018-3.078s-.092-2.052-.186-3.072-.219-2.04-.387-3.054A24.939,24.939,0,0,0,99.965,151.136Zm0,0a24.171,24.171,0,0,1,.671,3c.169,1.014.3,2.034.39,3.054s.151,2.046.186,3.072.033,2.052.018,3.078h0q-2.8,1.4-5.691,2.581a59.755,59.755,0,0,1-5.889,2.164,12.456,12.456,0,0,1-3.2.621,9.461,9.461,0,0,1-3.3-.491,8.765,8.765,0,0,1-2.956-1.656,5.321,5.321,0,0,1-1.848-3.075l.106.3a5.839,5.839,0,0,1-.476-.987,5.124,5.124,0,0,1-.3-1.064,3.778,3.778,0,0,1-.018-1.183,3,3,0,0,1,.47-1.2l-.03.848a5.933,5.933,0,0,1-.757-2.587,4.493,4.493,0,0,1,.142-1.389,4.322,4.322,0,0,1,.591-1.289l-.115.565a7.536,7.536,0,0,1-.08-1.5,5.043,5.043,0,0,1,.3-1.534,2.974,2.974,0,0,1,1.02-1.41,3.069,3.069,0,0,1,1.661-.5l-.624.86h0a1.41,1.41,0,0,1,0-.609,1.839,1.839,0,0,1,.157-.482,2.383,2.383,0,0,1,.553-.707,4.106,4.106,0,0,1,1.33-.724,10.454,10.454,0,0,1,2.69-.508,6.749,6.749,0,0,1,2.732.346,13.988,13.988,0,0,1,2.415,1.12,11.341,11.341,0,0,0,4.73,1.744,3.493,3.493,0,0,0,.633.03h.642l1.3-.154Z" transform="translate(-77.337 -148.354)" fill="#95c11f"/>
                  </g>
                  <path id="Path_139" data-name="Path 139" d="M80.867,151.207s2.539.5,3.914.591a53,53,0,0,1,5.321.8s-4.139-.343-5.342-.42A17,17,0,0,1,80.867,151.207Z" transform="translate(-65.892 -36.073)" fill="#95c11f"/>
                  <path id="Path_140" data-name="Path 140" d="M81.669,156.473a7.522,7.522,0,0,1-2.409-1.508,3.429,3.429,0,0,1-.591-1.531,6.288,6.288,0,0,0,.038,1.913Z" transform="translate(-65.892 -36.073)" fill="#95c11f"/>
                  <path id="Path_141" data-name="Path 141" d="M81.734,160.892a15.93,15.93,0,0,1-2.492-1.36,3.843,3.843,0,0,1-1.094-1.582,4.562,4.562,0,0,0,.633,1.815Z" transform="translate(-65.892 -36.073)" fill="#95c11f"/>
                  <path id="Path_142" data-name="Path 142" d="M82.071,164.49a15.832,15.832,0,0,1-2.492-1.357,4.408,4.408,0,0,1-1.183-1.7,5.026,5.026,0,0,0,.707,1.933Z" transform="translate(-65.892 -36.073)" fill="#95c11f"/>
                  <path id="Path_143" data-name="Path 143" d="M81.237,150.182s-.449,1.032.361,1.183l.13.186-.86-.322A1.33,1.33,0,0,1,81.237,150.182Z" transform="translate(-65.892 -36.073)" fill="#95c11f"/>
                </g>
                <g id="Group_184" data-name="Group 184" transform="translate(35.294 54.502)" opacity="0.5">
                  <g id="Group_181" data-name="Group 181" transform="translate(0 7.29)">
                    <g id="Group_180" data-name="Group 180">
                      <path id="Path_144" data-name="Path 144" d="M67.2,103.022l.186-11.358-.952.183-.186,11.234c-5.144.887-6.176,10.019-6.35,21.67h0v.65c0,2.365,1.265,2.971,2.879,3.222a14.253,14.253,0,0,0,1.774.145.97.97,0,0,0,1.857-.393v-.792a.97.97,0,0,0-.97-.97.958.958,0,0,0-.946.84c-1.289-.065-2.879-.343-3.394-1.295s-.21-2.906-.166-4.236c.34-10.19,1.449-17.933,6.176-17.933s6.93,7.722,7.276,17.889c.041,1.277.266,3.151-.213,4.1a3.486,3.486,0,0,1-2.752,1.4.967.967,0,0,0-1.9.37l.095.789a.97.97,0,0,0,1.9.133c1.851-.257,3.95-1.076,3.885-3.5v-1C75.165,112.273,72.838,103.137,67.2,103.022Z" transform="translate(-59.895 -91.664)" fill="#95c11f"/>
                    </g>
                  </g>
                  <g id="Group_183" data-name="Group 183" transform="translate(41.542)">
                    <g id="Group_182" data-name="Group 182">
                      <path id="Path_145" data-name="Path 145" d="M113.284,112.2c-.958-22.509-11.4-27.621-11.846-27.828a31.5,31.5,0,0,1,3.222,4.1c2.726,3.775,6.959,10.575,7.53,23.751a4.621,4.621,0,1,0,1.094-.03Z" transform="translate(-101.438 -84.374)" fill="#95c11f"/>
                    </g>
                  </g>
                  <path id="Path_146" data-name="Path 146" d="M119.309,163.825l-.186,12.473L84.43,177.625h0l-.053,4.384,37.129-1.573V163.29Z" transform="translate(-59.895 -84.374)" fill="#95c11f"/>
                </g>
                <g id="Layer_12" data-name="Layer 12" transform="translate(33.976 51.381)">
                  <g id="Group_186" data-name="Group 186" transform="translate(0 20.668)">
                    <g id="Group_185" data-name="Group 185">
                      <path id="Path_147" data-name="Path 147" d="M74.08,123.01c-.234-11.988-2.028-21.09-7.757-21.09-5.818,0-7.556,9.4-7.746,21.667h0v.65c0,2.38,1.268,2.974,2.882,3.225a14.252,14.252,0,0,0,1.774.145.97.97,0,0,0,1.857-.393v-.792a.961.961,0,0,0-1.916-.133c-1.289-.062-2.879-.34-3.394-1.292s-.21-2.906-.166-4.239c.34-10.188,2-17.853,6.726-17.853s6.38,7.645,6.726,17.812c.041,1.277.266,3.148-.213,4.1a3.477,3.477,0,0,1-2.752,1.4.967.967,0,0,0-1.9.372l.095.786a.97.97,0,0,0,1.9.136c1.854-.257,3.953-1.076,3.885-3.506v-.955Z" transform="translate(-58.577 -101.919)" fill="#95c11f"/>
                    </g>
                  </g>
                  <g id="Group_188" data-name="Group 188" transform="translate(6.903 10.595)">
                    <g id="Group_187" data-name="Group 187">
                      <path id="Path_148" data-name="Path 148" d="M66.432,102.416H65.48V92.031l.952-.183Z" transform="translate(-65.48 -91.847)" fill="#95c11f"/>
                    </g>
                  </g>
                  <g id="Group_190" data-name="Group 190" transform="translate(40.437)">
                    <g id="Group_189" data-name="Group 189">
                      <path id="Path_149" data-name="Path 149" d="M109.789,109.568c-.491-13.481-4.8-20.4-7.553-24.209a30.247,30.247,0,0,0-3.222-4.106c.449.21,11.036,5.381,11.87,28.277Z" transform="translate(-99.013 -81.252)" fill="#95c11f"/>
                    </g>
                  </g>
                  <g id="Group_191" data-name="Group 191" transform="translate(47.204 27.807)">
                    <path id="Path_150" data-name="Path 150" d="M115.052,113.695a4.636,4.636,0,1,1-4.636-4.636h0a4.636,4.636,0,0,1,4.636,4.636Z" transform="translate(-105.78 -109.059)" fill="#95c11f"/>
                  </g>
                </g>
                <g id="Layer_4" data-name="Layer 4" transform="translate(41.281)">
                  <g id="Group_193" data-name="Group 193" transform="translate(0 8.863)">
                    <g id="Group_192" data-name="Group 192">
                      <path id="Path_151" data-name="Path 151" d="M68.454,62.24a109.86,109.86,0,0,1-2.365-11.929c-.364-4-.769-9.375,3.755-11.207s3.107,3.763,3.107,3.763-3.565,2.395-4.29,8.4C68.291,54.53,68.454,62.24,68.454,62.24Z" transform="translate(-65.883 -38.735)" fill="#bbd770"/>
                    </g>
                  </g>
                  <g id="Group_195" data-name="Group 195" transform="translate(28.064 8.864)">
                    <g id="Group_194" data-name="Group 194">
                      <path id="Path_152" data-name="Path 152" d="M98.428,62.118s2.217-7.8,2.575-11.808.778-9.377-3.731-11.207-3.125,3.763-3.125,3.763,3.568,2.4,4.281,8.4A96.207,96.207,0,0,1,98.428,62.118Z" transform="translate(-93.947 -38.736)" fill="#bbd770"/>
                    </g>
                  </g>
                  <g id="Group_197" data-name="Group 197" transform="translate(3.869)">
                    <g id="Group_196" data-name="Group 196">
                      <path id="Path_153" data-name="Path 153" d="M94.744,44.782s-5.493.887-9.165-.851c-1.079-.508-6.312,1.718-8.718,1.271a9.391,9.391,0,0,1-6.723-5c-.266-1.129-1.366-2.735,1.963-5.23,4.6-3.456,10.282-2.616,11.234-3.627A4,4,0,0,1,87.082,29.9c4.931.494,5.174,3.388,7.95,3.823,3.61.565,4.828,2.022,5.061,5.052C100.536,44.549,94.744,44.782,94.744,44.782Z" transform="translate(-69.752 -29.871)" fill="#bbd770"/>
                    </g>
                  </g>
                  <g id="Group_199" data-name="Group 199" transform="translate(6.63 0.706)">
                    <g id="Group_198" data-name="Group 198">
                      <path id="Path_154" data-name="Path 154" d="M84.282,30.577a40.568,40.568,0,0,0-5.428,5.617c-3.882,4.505-5.913,4.239-6.341,4.319,0,0,3.352.591,6.9-4.083A48.642,48.642,0,0,1,84.282,30.577Z" transform="translate(-72.513 -30.577)" fill="#95c11f"/>
                    </g>
                  </g>
                  <g id="Group_201" data-name="Group 201" transform="translate(24.492 12.15)">
                    <g id="Group_200" data-name="Group 200">
                      <path id="Path_155" data-name="Path 155" d="M90.375,44.641s6.48.766,9.3-2.619c0,0-.591,3.548-9.165,2.678Z" transform="translate(-90.375 -42.021)" fill="#95c11f"/>
                    </g>
                  </g>
                  <g id="Group_203" data-name="Group 203" transform="translate(4.046 8.319)">
                    <g id="Group_202" data-name="Group 202">
                      <path id="Path_156" data-name="Path 156" d="M79.72,44.729c-7.633,1.067-9.827-5.233-9.791-5.117a8.688,8.688,0,0,0,6.465,5.868,10.075,10.075,0,0,0,1.99.34c.358.027.591.027.591.027h.015c7.3.062,13.212-7.657,13.212-7.657C87.235,42.45,82.851,44.114,79.72,44.729Z" transform="translate(-69.929 -38.19)" fill="#95c11f"/>
                    </g>
                  </g>
                </g>
              </g>
            </g>
          </g>
        </g>
      </g>
    </g>
  </g>
</svg>
