<svg xmlns="http://www.w3.org/2000/svg" width="46.915" height="30.944" viewBox="0 0 46.915 30.944">
  <g id="noun_transport_1526074" transform="translate(-42.255 -45.718)">
    <g id="Group" transform="translate(39.255 26.718)">
      <path id="Compound_Path" data-name="Compound Path" d="M48.567,33.573l-3.843-6.388a4.791,4.791,0,0,0-4.093-2.3H31.6a1.747,1.747,0,0,0-1.747,1.747v6.338H29.2V22.244A3.244,3.244,0,0,0,25.958,19H17.174a3.244,3.244,0,0,0-3.244,3.244v1.8H9.089a3.244,3.244,0,0,0-3.244,3.244v5.69h-1.1A1.747,1.747,0,0,0,3,34.721v8.035A3.244,3.244,0,0,0,6.244,46H7.791a5.554,5.554,0,0,0,10.631,0H35.491a5.54,5.54,0,0,0,5.29,3.943A5.64,5.64,0,0,0,46.122,46h.549a3.244,3.244,0,0,0,3.244-3.244V36.219A3.294,3.294,0,0,0,48.567,33.573ZM33.345,28.383h7.287a1.348,1.348,0,0,1,1.1.6l2.4,3.993H33.345Zm-7.636-5.889V32.975H17.424V22.494ZM9.338,27.534H13.93v5.44H9.338ZM6.494,36.468H29.851v6.039H18.322a5.54,5.54,0,0,0-10.481,0H6.494Zm6.588,9.982a2.082,2.082,0,1,1,2.1-2.1A2.1,2.1,0,0,1,13.082,46.45Zm27.7,0a2.082,2.082,0,1,1,2.1-2.1A2.1,2.1,0,0,1,40.781,46.45Zm5.64-3.943h-.4a5.54,5.54,0,0,0-10.481,0h-2.2V36.468H46.421Z" fill="#28aade"/>
    </g>
  </g>
</svg>
