<svg xmlns="http://www.w3.org/2000/svg" width="38.318" height="49.464" viewBox="0 0 38.318 49.464">
  <g id="noun_urine_2997409" transform="translate(-1 -1.038)">
    <path id="Path_432" data-name="Path 432" d="M27.343,25H1.8a.8.8,0,0,0-.8.8v6.386a.8.8,0,0,0,.8.8h.8V52.94a2.4,2.4,0,0,0,2.395,2.395H24.15a2.4,2.4,0,0,0,2.395-2.395V32.983h.8a.8.8,0,0,0,.8-.8V25.8A.8.8,0,0,0,27.343,25Zm-5.588,6.386V26.6h1.6v4.79Zm-15.966,0V26.6h1.6v4.79ZM8.983,26.6h1.6v4.79h-1.6Zm3.193,0h1.6v4.79h-1.6Zm3.193,0h1.6v4.79h-1.6Zm3.193,0h1.6v4.79h-1.6ZM2.6,26.6h1.6v4.79H2.6ZM24.949,52.94a.8.8,0,0,1-.8.8H4.991a.8.8,0,0,1-.8-.8V32.983H24.949Zm1.6-21.554h-1.6V26.6h1.6Z" transform="translate(0 -4.834)" fill="#28aade"/>
    <path id="Path_433" data-name="Path 433" d="M7.8,54.562H23.764a.8.8,0,0,0,.8-.8V37.8a.8.8,0,0,0-.8-.8H7.8a.8.8,0,0,0-.8.8V53.764A.8.8,0,0,0,7.8,54.562ZM8.6,38.6H22.966V52.966H8.6Z" transform="translate(-1.21 -7.254)" fill="#28aade"/>
    <rect id="Rectangle_213" data-name="Rectangle 213" width="11.176" height="1.597" transform="translate(8.983 32.939)" fill="#28aade"/>
    <rect id="Rectangle_214" data-name="Rectangle 214" width="7.983" height="1.597" transform="translate(10.579 36.132)" fill="#28aade"/>
    <rect id="Rectangle_215" data-name="Rectangle 215" width="11.176" height="1.597" transform="translate(8.983 39.325)" fill="#28aade"/>
    <rect id="Rectangle_216" data-name="Rectangle 216" width="7.983" height="1.597" transform="translate(10.579 42.518)" fill="#28aade"/>
    <path id="Path_434" data-name="Path 434" d="M45.781,25H37.8a.8.8,0,0,0-.8.8V54.537a.8.8,0,0,0,.8.8h7.983a.8.8,0,0,0,.8-.8V25.8A.8.8,0,0,0,45.781,25Zm-.8,1.6V29.79H38.6V26.6ZM38.6,44.159V40.966h6.386v3.193Zm6.386,1.6v3.193H38.6V45.755ZM38.6,39.369V36.176h6.386v3.193Zm0-4.79V31.386h6.386v3.193Zm0,19.159V50.545h6.386v3.193Z" transform="translate(-7.262 -4.834)" fill="#28aade"/>
    <path id="Path_438" data-name="Path 438" d="M35.579,14.108a5.135,5.135,0,0,0-.644-2.487l-3.448-6.2a.83.83,0,0,0-1.4,0L26.7,11.529A5.55,5.55,0,0,0,26,14.22v.173a5.084,5.084,0,0,0,1.5,3.621,4.652,4.652,0,0,0,6.579,0,5.084,5.084,0,0,0,1.5-3.621Zm-1.6.283a3.5,3.5,0,0,1-1.032,2.492,3.13,3.13,0,0,1-4.322,0,3.5,3.5,0,0,1-1.032-2.49V14.22a3.955,3.955,0,0,1,.5-1.916l2.7-4.854L33.539,12.4a3.528,3.528,0,0,1,.444,1.709Z" transform="translate(-5.043 -0.807)" fill="#28aade"/>
    <path id="Path_439" data-name="Path 439" d="M32,17.8v1.6A2.4,2.4,0,0,0,34.395,17H32.8A.8.8,0,0,1,32,17.8Z" transform="translate(-6.253 -3.22)" fill="#28aade"/>
    <path id="Path_440" data-name="Path 440" d="M5.79,15.377a4.62,4.62,0,0,0,3.29-1.363,5.084,5.084,0,0,0,1.5-3.621v-.285a5.135,5.135,0,0,0-.644-2.487l-3.448-6.2a.83.83,0,0,0-1.4,0L1.7,7.529A5.55,5.55,0,0,0,1,10.22v.173a5.084,5.084,0,0,0,1.5,3.621A4.62,4.62,0,0,0,5.79,15.377ZM2.6,10.22a3.955,3.955,0,0,1,.5-1.916L5.79,3.45,8.539,8.4a3.528,3.528,0,0,1,.444,1.709v.283a3.5,3.5,0,0,1-1.032,2.492,3.13,3.13,0,0,1-4.322,0A3.5,3.5,0,0,1,2.6,10.393Z" fill="#28aade"/>
    <path id="Path_441" data-name="Path 441" d="M9.395,13H7.8a.8.8,0,0,1-.8.8v1.6A2.4,2.4,0,0,0,9.395,13Z" transform="translate(-1.21 -2.413)" fill="#28aade"/>
  </g>
</svg>
