<?xml version="1.0" encoding="utf-8"?>
<!-- Generator: Adobe Illustrator 25.4.1, SVG Export Plug-In . SVG Version: 6.00 Build 0)  -->
<svg version="1.1" id="Layer_2_00000065068243005528249220000001855878886881186951_"
	 xmlns="http://www.w3.org/2000/svg" xmlns:xlink="http://www.w3.org/1999/xlink" x="0px" y="0px" viewBox="0 0 20 20"
	 style="enable-background:new 0 0 20 20;" xml:space="preserve">
<style type="text/css">
	.st0{fill:#28AADE;}
</style>
<g id="Layer_1">
	<path id="Path_196" class="st0" d="M10,0C4.5,0,0,4.5,0,10s4.4,10,10,10c2.4,0,4.8-0.9,6.6-2.5l0,0c4.1-3.7,4.5-10,0.9-14.1
		C15.6,1.2,12.9,0,10,0z M10,19.1c-2,0-3.9-0.7-5.5-1.9c3.2-1.4,3.8-2,3.9-2.5c0,0,0-0.1,0-0.1v-0.8c0-0.1,0-0.2-0.1-0.3
		c-0.5-0.6-0.9-1.3-1.1-2.1c0-0.1-0.1-0.2-0.2-0.2c-0.4-0.3-0.5-0.9-0.2-1.3l0,0C6.9,9.7,7,9.7,7,9.6V7.7c0-1.8,1.1-2.8,3.1-2.8
		s3.1,1,3.1,2.8v1.9c0,0.1,0,0.2,0.1,0.3c0.3,0.4,0.3,1-0.1,1.3c0,0,0,0,0,0c0,0,0,0-0.1,0c-0.1,0.1-0.1,0.1-0.2,0.2
		c-0.2,0.8-0.6,1.5-1.1,2.1c-0.1,0.1-0.1,0.2-0.1,0.3v0.8c0,0,0,0.1,0,0.1c0.1,0.3,0.3,0.9,3.9,2.5C14,18.5,12,19.1,10,19.1z
		 M16.3,16.6c-3.1-1.3-3.7-1.9-3.8-2.1V14c0.6-0.6,1-1.4,1.2-2.2c0.7-0.6,0.8-1.6,0.3-2.4V7.7c0-2.3-1.4-3.7-4-3.7
		c-2.5,0-4,1.4-4,3.7v1.7c-0.2,0.4-0.4,0.8-0.3,1.2c0.1,0.4,0.3,0.8,0.6,1.1C6.6,12.6,7,13.3,7.6,14v0.6c-0.1,0.2-0.7,0.8-3.8,2.1
		C0.1,13.2-0.1,7.4,3.3,3.7s9.2-3.9,12.9-0.4c3.7,3.5,3.9,9.2,0.4,12.9C16.6,16.4,16.4,16.5,16.3,16.6L16.3,16.6z"/>
</g>
</svg>
