<svg id="Layer_2" data-name="Layer 2" xmlns="http://www.w3.org/2000/svg" width="64.26" height="64.26" viewBox="0 0 64.26 64.26">
  <g id="Layer_1" data-name="Layer 1" transform="translate(0 0)">
    <path id="Path_417" data-name="Path 417" d="M26.971,33.23c0,3.118-2.555,5.9-4.606,5.9s-4.606-2.782-4.606-5.9c0-3.487,1.559-5.24,4.606-5.24S26.971,29.743,26.971,33.23Z" transform="translate(-6.272 -9.884)" fill="#28aade"/>
    <path id="Path_418" data-name="Path 418" d="M53.077,21.236c0,5.175-4.114,9.554-7.5,9.554s-7.5-4.412-7.5-9.554c0-5.557,2.587-8.506,7.5-8.506S53.077,15.68,53.077,21.236Z" transform="translate(-13.444 -4.495)" fill="#28aade"/>
    <path id="Path_419" data-name="Path 419" d="M76.591,33.23c0,3.118-2.587,5.9-4.606,5.9s-4.606-2.782-4.606-5.9c0-3.487,1.559-5.24,4.606-5.24S76.591,29.743,76.591,33.23Z" transform="translate(-23.794 -9.884)" fill="#28aade"/>
    <path id="Path_420" data-name="Path 420" d="M32.13,0A32.13,32.13,0,0,0,0,32.13V64.26H32.13A32.13,32.13,0,1,0,32.13,0ZM48.192,16.909c3.681,0,5.822,2.342,5.777,6.41,0,3.584-2.853,7.116-5.777,7.116s-5.777-3.506-5.777-7.116C42.415,19.251,44.511,16.909,48.192,16.909ZM32.13,7.064c5.628,0,8.7,3.435,8.7,9.7,0,5.408-4.315,10.719-8.7,10.719s-8.7-5.311-8.7-10.719C23.43,10.5,26.522,7.064,32.13,7.064ZM16.068,31.108c-4.457,0-6.921,2.659-6.921,7.478v8.739H7.982V38.586c0-4.877,2.271-7.931,6.3-8.6A7.7,7.7,0,0,1,10.3,23.32c0-4.069,2.1-6.41,5.77-6.41s5.822,2.342,5.777,6.41a7.655,7.655,0,0,1-4,6.669,8.241,8.241,0,0,1,2.2.647l-.485,1.158a7.853,7.853,0,0,0-3.487-.686ZM44.388,53.2H43.217V40.572c0-7.161-3.946-11.113-11.113-11.113S20.991,33.411,20.991,40.572V53.2H19.826V40.572c0-7.821,4.483-12.29,12.29-12.29s12.29,4.483,12.29,12.29Zm10.725-5.874V39.233c0-4.457-2.465-6.921-6.921-6.921a8.468,8.468,0,0,0-3.487.647l-.485-1.074a9.625,9.625,0,0,1,3.972-.757c5.175,0,8.092,2.95,8.092,8.092v8.105Z" transform="translate(0 0)" fill="#28aade"/>
  </g>
</svg>
