<svg xmlns="http://www.w3.org/2000/svg" width="62.524" height="62.255" viewBox="0 0 62.524 62.255">
  <g id="Layer_2" data-name="Layer 2" transform="translate(0)">
    <g id="Layer_1" data-name="Layer 1" transform="translate(0)">
      <path id="Path_423" data-name="Path 423" d="M31.257,0A31.257,31.257,0,0,0,0,31.257v31H35.28A31.257,31.257,0,0,0,31.257,0ZM28.579,52.759c-6.022-1.242-4.4-5.447-3.584-8.836s4.3-12.756,4.3-14.38c0-5.091-6.333-1.294-6.255-2.646-.045-3.131,7.116-4.852,10.35-3.991,8.235,2.18-3.681,21.347-1.624,24.167,1.145,1.578,6.352.336,6.352,1.766S34.594,53.994,28.579,52.759Zm6.2-33.844a4.7,4.7,0,1,1,4.683-4.683,4.7,4.7,0,0,1-4.683,4.683Z" fill="#28aade" fill-rule="evenodd"/>
    </g>
  </g>
</svg>
